<?xml version="1.0" encoding="UTF-8"?>
<svg width="190px" height="37px" viewBox="0 0 190 37" version="1.1" xmlns="http://www.w3.org/2000/svg" xmlns:xlink="http://www.w3.org/1999/xlink">
    <!-- Generator: Sketch 64 (93537) - https://sketch.com -->
    <title>Aetna-Logo</title>
    <desc>Created with Sketch.</desc>
    <g id="Page-1" stroke="none" stroke-width="1" fill="none" fill-rule="evenodd">
        <path d="M175.8,27.6 C175.8,25.1 176.1,21.5 176.1,17.3 C176.1,9.5 172.9,6.6 164.2,6.6 C160,6.6 156.3,7.2 154,8.2 L154.3,14.4 C156.3,13.3 159.2,12.3 162,12.3 C166,12.3 167.1,13.9 167.1,17.8 L167.1,18.4 C166.8,18.4 166.1,18.4 165.8,18.4 C156,18.4 151.4,21.4 151.4,26.9 C151.4,32.6 154.2,35.9 162.3,35.9 C166.6,35.9 170.7,35.3 176.2,35.3 C175.8,33.2 175.8,29.9 175.8,27.6 Z M164.4,30.6 C161.4,30.6 160.1,29.6 160.1,27.1 C160.1,24.7 161.7,23.3 165.8,23.3 C166.2,23.3 166.6,23.3 167,23.3 C167,25.6 166.9,28.4 167.1,30.3 C166.4,30.5 165.4,30.6 164.4,30.6 Z M88.8,30.3 C83.9,30.3 81.3,27.8 81.3,23.8 L81.3,23.6 C82.2,23.6 83.9,23.7 84.9,23.7 C93.6,23.7 98,21 98,15.1 C98,10 94.3,6.7 86.4,6.7 C76.7,6.7 72.9,11 72,18.7 C70.6,18.6 69,18.6 66.9,18.6 C66.9,18.2 66.9,17.8 66.9,17.3 C66.9,9.5 63.7,6.6 55,6.6 C50.8,6.6 47.1,7.2 44.8,8.2 L45.1,14.4 C47.1,13.3 50,12.3 52.8,12.3 C56.8,12.3 58,13.9 58,17.8 L58,18.4 C57.7,18.4 57,18.4 56.7,18.4 C46.9,18.4 42.3,21.4 42.3,26.9 C42.3,32.6 45.1,35.9 53.2,35.9 C57.5,35.9 61.6,35.3 67.1,35.3 C66.7,33 66.7,29.7 66.7,27.5 C66.7,26.3 66.8,24.9 66.8,23.3 C69.1,23.3 70.8,23.4 71.9,23.4 C72.7,32.6 77.5,35.9 87.3,35.9 C90.9,35.9 94.6,35.3 96.6,34.4 L96.3,28.2 C94.4,29.4 91.7,30.3 88.8,30.3 Z M55.3,30.6 C52.3,30.6 51,29.6 51,27.1 C51,24.7 52.6,23.3 56.7,23.3 C57.1,23.3 57.5,23.3 57.9,23.3 C57.9,25.6 57.8,28.4 58,30.3 C57.3,30.5 56.2,30.6 55.3,30.6 Z M81.2,18.7 C81.2,14.8 82.4,11.9 86,11.9 C88,11.9 89.4,13 89.4,14.9 C89.4,17.6 87.6,18.9 83.8,18.9 C82.9,18.9 81.9,18.9 81.2,18.8 C81.2,18.8 81.2,18.7 81.2,18.7 Z M147.8,22.4 C147.8,20 147.8,16.9 147.8,16.9 C147.8,9.8 144.7,6.7 135.9,6.7 C131,6.7 127.5,7.6 122,7.6 C122.3,12.6 122.3,18.7 122.3,22.5 C122.3,26.4 122.2,33.3 122,35.5 L131.4,35.5 C131.2,33.3 131,26.8 131,22.5 C131,20 131,17 131.1,13 C132,12.7 133.2,12.4 134.5,12.4 C137.8,12.4 138.9,13.9 138.9,18.2 C138.9,18.2 138.9,20.9 138.9,22.4 C138.9,26.3 138.8,33.2 138.6,35.4 L148,35.4 C148,33.2 147.8,26.8 147.8,22.4 L147.8,22.4 Z M118.2,29.2 L118.6,35.4 C117.9,35.6 115.6,36 112.6,36 C106.4,36 103.1,33.4 103.1,27 C103.1,22 103.2,16.5 103.2,13.5 L100,13.5 C100.1,12.1 100,10.2 100,8.8 C104.8,8 106.3,5.3 107.1,0 L112.4,0 C112.2,2.2 112.1,5.3 112,7.5 L117.6,7.5 L117.6,13.5 L111.9,13.5 L111.9,24.4 C111.9,28.6 112.8,29.8 115.6,29.8 C116.6,29.8 117.7,29.6 118.2,29.2 L118.2,29.2 Z M11.2,4.1 C12.4,4.1 13.5,4.5 14.4,5.4 L19.6,10.6 L24.8,5.4 C25.7,4.5 26.8,4.1 28,4.1 C29.1,4.1 30.3,4.5 31.2,5.4 L37.6,11.8 C39.4,13.6 39.4,16.4 37.6,18.2 L19.6,36.1 L1.6,18.1 C-0.2,16.3 -0.2,13.5 1.6,11.7 L8,5.3 C8.9,4.5 10,4.1 11.2,4.1 M177.6,6.7 L182.5,6.7 L182.5,7.7 L180.6,7.7 L180.6,12.7 L179.4,12.7 L179.4,7.7 L177.5,7.7 L177.6,6.7 L177.6,6.7 Z M183.6,6.7 L185.2,6.7 L186,9.3 C186.2,10.1 186.6,11.6 186.6,11.6 L186.6,11.6 C186.6,11.6 187,10.1 187.2,9.3 L188,6.7 L189.6,6.7 L189.6,12.7 L188.5,12.7 L188.5,10.5 C188.5,9.4 188.6,7.8 188.6,7.8 L188.6,7.8 C188.6,7.8 188.2,9.2 187.9,10.4 L187.2,12.7 L186.1,12.7 L185.4,10.4 C185,9.2 184.7,7.8 184.7,7.8 L184.7,7.8 C184.7,7.8 184.8,9.5 184.8,10.5 L184.8,12.7 L183.7,12.7 L183.7,6.7 L183.6,6.7 Z" id="Aetna-Logo" fill="#7D3F98" fill-rule="nonzero"></path>
    </g>
</svg>