<?xml version="1.0" encoding="UTF-8" standalone="no"?>
<svg width="178px" height="60px" viewBox="0 0 178 60" version="1.1" xmlns="http://www.w3.org/2000/svg" xmlns:xlink="http://www.w3.org/1999/xlink">
    <!-- Generator: Sketch 41.2 (35397) - http://www.bohemiancoding.com/sketch -->
    <title>amerihealth</title>
    <desc>Created with Sketch.</desc>
    <defs></defs>
    <g id="Page-1" stroke="none" stroke-width="1" fill="none" fill-rule="evenodd">
        <g id="amerihealth">
            <path d="M84.4000948,59.6070853 L84.4000948,58.6706872 L86.6825118,58.6706872 L86.6825118,39.767346 L84.4000948,39.767346 L84.4000948,38.8309479 L94.349218,38.8309479 L94.349218,39.767346 L91.9204976,39.767346 L91.9204976,48.5167536 L98.7385308,48.5167536 L98.7385308,39.767346 L96.3098104,39.767346 L96.3098104,38.8309479 L106.55154,38.8309479 L106.55154,39.767346 L103.976445,39.767346 L103.976445,58.6706872 L106.55154,58.6706872 L106.55154,59.6070853 L96.3098104,59.6070853 L96.3098104,58.6706872 L98.7385308,58.6706872 L98.7385308,49.4531517 L91.9204976,49.4531517 L91.9204976,58.6706872 L94.349218,58.6706872 L94.349218,59.6070853 L84.4000948,59.6070853 Z M138.974005,39.5624645 L136.808602,39.5624645 L136.808602,38.6845735 L143.275592,38.6845735 L143.275592,58.7291943 L145.294692,58.7291943 L145.294692,59.6070853 L137.101209,59.6070853 L137.101209,58.7291943 L138.974005,58.7291943 L138.974005,39.5624645 L138.974005,39.5624645 Z M173.298555,58.7291943 L173.298555,59.6070853 L165.456327,59.6070853 L165.456327,58.7291943 L167.065806,58.7291943 L167.065806,50.506564 C167.065806,49.5116588 166.597607,48.8092891 165.456327,48.8092891 C164.168815,48.8092891 162.530118,50.1554502 162.530118,53.0816588 L162.530118,58.7291943 L164.315118,58.7291943 L164.315118,59.6070853 L156.531398,59.6070853 L156.531398,58.7291943 L158.228602,58.7291943 L158.228602,39.5332464 L156.297299,39.5332464 L156.297299,38.6553555 L162.530118,38.6553555 L162.530118,49.5993839 L162.588626,49.5993839 C163.495806,48.282654 165.16372,46.9364929 167.241327,46.9364929 C169.699336,46.9364929 171.367251,48.2240047 171.367251,51.003981 L171.367251,58.6999763 L173.298555,58.6999763 L173.298555,58.7291943 Z M0.00789099526,59.6070853 L0.00789099526,58.6706872 L0.534668246,58.6706872 C1.44177725,58.6706872 2.40746445,58.4658768 3.10976303,56.6516588 C6.3285782,48.3704502 10.1911848,38.3627488 10.1911848,38.3627488 L11.2445972,38.3627488 L19.0576066,58.6706872 L20.9304028,58.6706872 L20.9304028,59.6070853 L11.0690758,59.6070853 L11.0690758,58.6706872 L13.4685782,58.6706872 L11.8006635,53.7839573 L5.39218009,53.7839573 C5.39218009,53.7839573 4.92398104,55.0421801 4.42656398,56.5052844 C4.01687204,57.675782 4.45585308,58.6706872 5.65556872,58.6706872 L6.50417062,58.6706872 L6.50417062,59.6070853 L0.00789099526,59.6070853 Z M5.80187204,52.8767773 L11.4201896,52.8767773 L8.64028436,45.2685782 L8.61099526,45.2685782 L5.80187204,52.8767773 Z M52.5043365,53.1108768 L52.5043365,56.0370853 C52.5043365,58.114763 53.4699526,58.8462796 55.459763,58.8462796 C57.3618483,58.8462796 58.9712559,57.646564 59.8783649,56.0956635 L60.5221564,56.4761374 C59.5564692,58.1733412 57.7422512,59.9582701 54.552654,59.9582701 C50.982654,59.9582701 47.4712322,57.9099526 47.4712322,53.4620616 C47.4712322,49.5117299 50.7192654,46.9658531 54.552654,46.9658531 C58.1811611,46.9658531 61.0195735,49.2776303 60.814763,53.1108768 L52.5043365,53.1108768 L52.5043365,53.1108768 Z M56.5716825,52.2329858 L56.5716825,49.628673 C56.5716825,48.5752607 55.8693839,47.843673 54.5233649,47.843673 C53.2943602,47.843673 52.4750474,48.5167536 52.4750474,49.7457583 L52.4750474,52.2329858 L56.5716825,52.2329858 L56.5716825,52.2329858 Z M35.9419194,52.8767773 C35.9419194,50.0383649 37.4635308,48.721564 38.7803318,48.721564 C39.5996445,48.721564 40.3312322,49.2190521 40.3312322,50.5943602 L40.3312322,58.7292654 L38.7217536,58.7292654 L38.7217536,59.6071564 L46.5348341,59.6071564 L46.5348341,58.7292654 L44.5157346,58.7292654 L44.5157346,50.6235782 C44.5157346,48.5459005 43.0526303,46.965782 40.7116351,46.965782 C38.3706398,46.965782 36.7320142,48.3703791 35.8541232,49.8919905 C35.5322986,47.843673 33.9228199,46.965782 32.137891,46.965782 C29.6798815,46.965782 27.8948104,48.7800711 27.3973934,49.8042654 L27.3388863,47.3169668 L21.2522986,47.3169668 L21.2522986,48.1948578 L23.2421801,48.1948578 L23.2421801,58.7585545 L21.5449052,58.7585545 L21.5449052,59.6364455 L29.036019,59.6364455 L29.036019,58.7585545 L27.4265403,58.7585545 L27.4265403,52.9061374 C27.4265403,50.067654 28.9481517,48.7509242 30.2650237,48.7509242 C31.1721327,48.7509242 31.8158531,49.3068483 31.8158531,50.6237204 L31.8158531,58.7586256 L30.2064455,58.7586256 L30.2064455,59.6365166 L37.609763,59.6365166 L37.609763,58.7586256 L36.0003555,58.7586256 L36.0003555,52.8767773 L35.9419194,52.8767773 L35.9419194,52.8767773 Z M67.8669668,49.9213507 L67.9254028,49.9213507 C68.2765166,49.189763 69.5348815,46.9951422 71.9050948,46.9951422 C73.2804028,46.9951422 74.5386967,47.9022512 74.5679147,49.5409479 C74.5679147,50.916327 73.5437915,51.8819431 72.3440047,51.8819431 C71.1735071,51.8819431 70.2956872,51.0919194 70.2956872,50.067654 C70.2956872,49.599455 70.4420616,49.1020379 70.6468009,48.8386493 C70.9686967,48.3704502 70.3541943,48.3997393 69.9445024,48.7216351 C68.4521801,49.8629147 67.9546919,51.9404502 67.9254739,53.9010427 L67.9254739,58.7292654 L70.2664692,58.7292654 L70.2664692,59.6071564 L62.0437678,59.6071564 L62.0437678,58.7292654 L63.6239573,58.7292654 L63.6239573,48.1655687 L61.9852607,48.1655687 L61.9852607,47.2876777 L67.8083886,47.2876777 L67.8669668,49.9213507 L67.8669668,49.9213507 Z M77.2600948,48.1655687 L75.123981,48.1655687 L75.123981,47.2876777 L81.5616825,47.2876777 L81.5616825,58.7291232 L83.4636967,58.7291232 L83.4636967,59.6070142 L75.2410664,59.6070142 L75.2410664,58.7291232 L77.2600948,58.7291232 L77.2600948,48.1655687 L77.2600948,48.1655687 Z M79.2791943,44.4200474 C80.5081991,44.4200474 81.5031043,43.4543602 81.5031043,42.2253555 C81.5031043,41.0255687 80.5081991,40.0306635 79.2791943,40.0306635 C78.0501896,40.0306635 77.0552844,40.9963507 77.0552844,42.2253555 C77.0552844,43.4543602 78.0501896,44.4200474 79.2791943,44.4200474 Z M155.916825,56.8856872 C155.009716,58.6706161 153.429526,59.9581991 151.32263,59.9581991 C149.157299,59.9581991 148.220829,58.8755687 148.220829,56.9442654 L148.220829,48.1655687 L146.318815,48.1655687 L146.318815,47.2876066 L148.2209,47.2876066 L148.2209,43.5713744 L152.522417,43.5713744 L152.522417,47.2876066 L154.892701,47.2876066 L154.892701,48.1655687 L152.522417,48.1655687 L152.522417,56.8271801 C152.493199,57.5879858 152.756517,57.9683886 153.429526,57.9683886 C154.336706,57.9683886 155.009787,56.9734834 155.243815,56.4760664 L155.916825,56.8856872 L155.916825,56.8856872 Z M130.575853,50.12609 C130.575853,48.3996682 129.932062,47.8143839 128.41045,47.8143839 C127.50327,47.8143839 126.713246,48.1654976 126.713246,48.7214929 C126.713246,49.218981 127.239953,49.3652844 127.239953,50.3016825 C127.239953,51.2380806 126.479147,51.9696682 125.367156,51.9988863 C124.138152,51.9988863 123.377346,51.0624882 123.377346,49.9212796 C123.377346,48.1362796 125.747559,46.936564 128.556754,46.936564 C132.770474,46.936564 134.438389,47.9899763 134.438389,50.2724645 L134.438389,56.8271801 C134.438389,57.5294787 134.584692,57.9976777 135.140687,58.0268957 C135.667393,58.0268957 135.96,57.7342891 136.164882,57.5586967 L136.633081,58.0854028 C136.1941,58.7291943 135.286919,59.928981 133.238673,59.928981 C131.658412,59.928981 130.985474,58.7291943 130.780664,57.9391706 C129.990569,58.7877725 128.644479,59.928981 126.479076,59.928981 C123.757678,59.928981 122.674976,58.4658768 122.674976,56.7101659 C122.645687,53.2572512 127.912891,52.3793602 130.605,52.2037678 L130.605,50.12609 L130.575853,50.12609 L130.575853,50.12609 Z M130.575853,53.198673 C128.761564,53.198673 126.62545,54.0472749 126.62545,55.92 C126.62545,57.1490047 127.298531,57.9976777 128.498246,57.9976777 C129.873626,57.9976777 130.575924,56.8563981 130.575924,55.5981754 L130.575924,53.198673 L130.575853,53.198673 Z M112.374739,53.1108768 L112.374739,56.0370853 C112.374739,58.114763 113.340355,58.8462796 115.330166,58.8462796 C117.232251,58.8462796 118.841659,57.646564 119.748768,56.0956635 L120.392559,56.4761374 C119.426872,58.1733412 117.612654,59.9582701 114.423057,59.9582701 C110.853057,59.9582701 107.341635,57.9099526 107.341635,53.4620616 C107.341635,49.5117299 110.589668,46.9658531 114.423057,46.9658531 C118.051564,46.9658531 120.889976,49.2776303 120.685166,53.1108768 L112.374739,53.1108768 L112.374739,53.1108768 Z M116.442156,52.2329858 L116.442156,49.628673 C116.442156,48.5752607 115.739858,47.843673 114.393839,47.843673 C113.164834,47.843673 112.345521,48.5167536 112.345521,49.7457583 L112.345521,52.2329858 L116.442156,52.2329858 L116.442156,52.2329858 Z M44.5157346,19.1082227 L44.5157346,0 L63.6239573,0 L63.6239573,19.1082227 L44.5157346,19.1082227 Z" id="Shape" fill="#195B9B"></path>
            <path d="M54.084455,14.338436 C57.7129621,10.6221327 71.9343839,6.49620853 81.3568009,6.49620853 C84.4586019,6.49620853 86.6532938,7.1107109 86.6532938,8.57381517 C86.6532938,10.739218 88.6431043,11.2659242 91.9204976,11.2659242 C99.6749289,11.2659242 109.653341,7.02291469 119.28064,7.02291469 C127.444763,7.02291469 133.033863,9.27611374 134.43846,9.97841232 L134.43846,14.748128 C132.741256,13.8995261 127.181445,11.9097156 119.690332,11.9097156 C110.35564,11.9097156 100.11391,16.0649289 91.9204976,16.0649289 C88.2627014,16.0649289 86.6532938,15.3041232 86.6532938,13.3435308 C86.6532938,12.085237 85.5120142,11.5292417 81.3568009,11.5292417 C71.992891,11.5292417 58.9126777,15.245545 54.084455,19.1373697 L54.084455,14.338436 L54.084455,14.338436 Z" id="Shape" fill="#E84646"></path>
            <path d="M54.084455,23.8487204 C57.7129621,20.1324171 71.9343839,16.0357109 81.3568009,16.0357109 C84.4586019,16.0357109 86.6532938,16.6502133 86.6532938,18.1133175 C86.6532938,20.2787204 88.6431043,20.8054976 91.9204976,20.8054976 C99.6749289,20.8054976 109.653341,16.5624171 119.28064,16.5624171 C127.444763,16.5624171 133.033863,18.8156161 134.43846,19.4886256 L134.43846,24.2584123 C132.741256,23.4097393 127.181445,21.4199289 119.690332,21.4199289 C110.35564,21.4199289 100.11391,25.5459242 91.9204976,25.5459242 C88.2627014,25.5459242 86.6532938,24.7851185 86.6532938,22.8538152 C86.6532938,21.5955213 85.5120142,21.010237 81.3568009,21.010237 C71.992891,21.010237 58.9126777,24.7558294 54.084455,28.6183649 L54.084455,23.8487204 L54.084455,23.8487204 Z" id="Shape" fill="#E84646"></path>
            <path d="M177.131943,57.2953791 C177.366043,57.5294787 177.512346,57.8513033 177.512346,58.2024882 C177.512346,58.553673 177.395332,58.8462796 177.131943,59.1096682 C176.868555,59.3437678 176.575948,59.4900711 176.224763,59.4900711 C175.873578,59.4900711 175.580972,59.3730569 175.346872,59.1096682 C175.083555,58.8462796 174.966469,58.553673 174.966469,58.2024882 C174.966469,57.8513033 175.083483,57.5586967 175.346872,57.2953791 C175.580972,57.0612796 175.902867,56.9149052 176.224763,56.9149052 C176.576019,56.9442654 176.868555,57.0612796 177.131943,57.2953791 Z M177.278246,57.1490047 C176.98564,56.8563981 176.634455,56.7100948 176.224834,56.7100948 C175.815213,56.7100948 175.464028,56.8563981 175.200711,57.1490047 C174.908104,57.4416114 174.76173,57.7927962 174.76173,58.1731991 C174.76173,58.582891 174.908104,58.9340047 175.200711,59.2266114 C175.493318,59.519218 175.844502,59.6655213 176.224834,59.6655213 C176.634526,59.6655213 176.98564,59.519218 177.278246,59.2266114 C177.570853,58.9340047 177.717227,58.5828199 177.717227,58.1731991 C177.717227,57.7927962 177.570853,57.4416825 177.278246,57.1490047 Z M176.458863,58.1146919 C176.400355,58.14391 176.312559,58.14391 176.195545,58.14391 L175.932156,58.14391 L175.932156,57.5586967 L176.166256,57.5586967 C176.31263,57.5586967 176.429645,57.5879858 176.51737,57.6172038 C176.605095,57.6464929 176.634384,57.734218 176.634384,57.8513033 C176.634455,57.9976777 176.575948,58.0854028 176.458863,58.1146919 Z M175.63955,58.9925829 L175.932156,58.9925829 L175.932156,58.3487915 L176.166256,58.3487915 C176.31263,58.3487915 176.429645,58.3780095 176.488152,58.4072986 C176.605166,58.4658057 176.634455,58.582891 176.634455,58.7877014 L176.634455,59.0218009 L176.897844,59.0218009 L176.897844,58.9925829 L176.897844,58.9047867 L176.897844,58.6706872 C176.897844,58.5829621 176.868555,58.4950948 176.810047,58.4073697 C176.75154,58.3195735 176.663744,58.2609953 176.54673,58.2609953 C176.634455,58.2317773 176.722322,58.2317773 176.780829,58.1732701 C176.897844,58.114763 176.927133,57.9976777 176.927133,57.8513744 C176.927133,57.646564 176.839408,57.5002607 176.663815,57.4416825 C176.576019,57.4124645 176.429716,57.3831754 176.224834,57.3831754 L175.668839,57.3831754 L175.63955,58.9925829 L175.63955,58.9925829 Z" id="Shape" fill="#195B9B"></path>
        </g>
    </g>
</svg>