<?xml version="1.0" encoding="UTF-8" standalone="no"?>
<svg width="182px" height="59px" viewBox="0 0 182 59" version="1.1" xmlns="http://www.w3.org/2000/svg" xmlns:xlink="http://www.w3.org/1999/xlink">
    <!-- Generator: Sketch 41.2 (35397) - http://www.bohemiancoding.com/sketch -->
    <title>Cigna_logo</title>
    <desc>Created with Sketch.</desc>
    <defs></defs>
    <g id="Page-1" stroke="none" stroke-width="1" fill="none" fill-rule="evenodd">
        <g id="Cigna_logo" transform="translate(-1.000000, -1.000000)">
            <path d="M93.7878479,18.4498609 C93.7878479,20.165538 95.201577,21.5570037 96.9506494,21.5570037 C98.6983302,21.5570037 100.113451,20.165538 100.113451,18.4498609 C100.113451,16.7355751 98.6969388,15.3455009 96.9506494,15.3455009 C95.201577,15.3441095 93.7878479,16.7341837 93.7878479,18.4498609 L93.7878479,18.4498609 Z M118.489147,34.8079314 C118.489147,39.7128479 116.570315,41.7569109 113.797124,41.7569109 C110.998887,41.7569109 109.429314,39.3830705 109.429314,35.2184137 C109.429314,30.9674861 111.862987,27.4526438 116.36577,27.4526438 C117.293878,27.4526438 117.942301,27.5444805 118.487755,27.6766698 L118.487755,34.8079314 L118.489147,34.8079314 Z M118.759091,42.8547774 L118.759091,44.4480056 C118.759091,48.8213822 116.066605,50.5175788 112.724304,50.5175788 C109.721521,50.5175788 107.506308,49.6159091 106.805009,49.3696197 L106.805009,53.6956865 C107.37551,53.8473562 109.81475,54.6154453 113.294805,54.6154453 C119.474304,54.6154453 123.604174,52.0648887 123.604174,43.3237013 L123.604174,24.4609926 C122.81243,24.2578386 119.909833,23.4897495 116.568924,23.4897495 C107.901484,23.4897495 104.176531,29.3005102 104.176531,35.5843692 C104.176531,41.3631262 107.084694,45.8937384 112.651948,45.8937384 C116.324026,45.8937384 118.088404,43.6757421 118.661688,42.8533859 L118.759091,42.8533859 L118.759091,42.8547774 Z M89.282282,40.1859462 C87.8908163,40.8385436 85.6644712,41.267115 83.5104824,41.267115 C77.6343228,41.267115 73.3054731,37.0634972 73.3054731,30.6599722 C73.3054731,24.2954082 77.605102,20.0403061 83.5104824,20.0403061 C86.4381262,20.0403061 88.5225417,20.7569109 89.282282,21.118692 L89.282282,16.5407699 C87.9993506,16.0634972 85.9149351,15.5820501 82.9678108,15.5820501 C73.8453618,15.5820501 67.7173469,21.8867811 67.7173469,30.6599722 C67.7173469,38.9489332 73.3583488,45.7267625 82.9678108,45.7267625 C85.7841373,45.7267625 87.9075139,45.280102 89.282282,44.7652597 L89.282282,40.1859462 Z M166.678386,34.8079314 C166.678386,39.7128479 164.758163,41.7569109 161.986364,41.7569109 C159.183952,41.7569109 157.608813,39.3830705 157.608813,35.2184137 C157.608813,30.9674861 160.053618,27.4526438 164.550835,27.4526438 C165.471985,27.4526438 166.124583,27.5444805 166.676994,27.6766698 L166.676994,34.8079314 L166.678386,34.8079314 Z M172.437662,45.4164657 C172.273469,44.2225881 171.792022,41.0681354 171.792022,38.3575603 L171.792022,24.462384 C170.993321,24.2592301 168.090724,23.491141 164.758163,23.491141 C156.086549,23.491141 152.36577,29.3019017 152.36577,35.5857607 C152.36577,41.3645176 155.262801,45.8951299 160.837013,45.8951299 C164.905659,45.8951299 166.728479,43.2624768 167.417254,41.8598794 L167.552226,41.8598794 C167.600928,42.5263915 167.785993,44.7903061 167.845826,45.4178571 L172.437662,45.4178571 L172.437662,45.4164657 Z M99.5109462,24.037987 L94.3973098,24.037987 L94.3973098,45.4150742 L99.5109462,45.4150742 L99.5109462,24.037987 Z M129.395455,45.4164657 L129.395455,30.6237941 C129.395455,28.639564 129.214564,24.8366883 129.161688,23.9739796 L133.757699,23.9739796 L133.973377,26.9809369 L134.069388,26.9809369 C134.602319,26.1404917 136.322171,23.4897495 140.330983,23.4897495 C145.171892,23.4897495 147.861596,27.0477273 147.861596,31.4809369 L147.861596,45.4164657 L142.750742,45.4164657 L142.750742,32.491141 C142.750742,29.7694341 141.235436,27.7114564 138.632004,27.7114564 C135.943692,27.7114564 134.513265,29.8821429 134.513265,32.491141 L134.513265,45.4164657 L129.395455,45.4164657 L129.395455,45.4164657 Z" id="path3065" fill="#0982C6"></path>
            <path d="M179.942254,41.7410482 C179.811456,41.6659091 179.598562,41.6311224 179.31192,41.6311224 L178.86526,41.6311224 L178.86526,42.7011596 L179.336967,42.7011596 C179.555427,42.7011596 179.723794,42.684462 179.835111,42.6385436 C180.038265,42.5564471 180.141234,42.4047774 180.141234,42.1751855 C180.139842,41.9595083 180.075835,41.8147959 179.942254,41.7410482 L179.942254,41.7410482 Z M179.380102,41.2762987 C179.747449,41.2762987 180.018785,41.3110853 180.188544,41.3806586 C180.497449,41.5114564 180.647727,41.7577458 180.647727,42.1306586 C180.647727,42.3950371 180.550325,42.5940167 180.358302,42.7164657 C180.256725,42.783256 180.113404,42.8305659 179.931122,42.8597866 C180.162106,42.8959647 180.32769,42.9947588 180.439007,43.1519944 C180.544759,43.3064471 180.599026,43.4608998 180.599026,43.6097866 L180.599026,43.8268553 C180.599026,43.8950371 180.601809,43.9701763 180.604592,44.0453154 C180.612941,44.1246289 180.618506,44.1775046 180.632421,44.1997681 L180.649119,44.2359462 L180.162106,44.2359462 C180.157931,44.2248145 180.157931,44.2136827 180.153757,44.2067254 C180.153757,44.1983766 180.148191,44.1858534 180.148191,44.1747217 L180.137059,44.0814935 L180.137059,43.8463358 C180.137059,43.5054267 180.04244,43.2772263 179.857375,43.168692 C179.746058,43.1074675 179.549861,43.0712894 179.275742,43.0712894 L178.863868,43.0712894 L178.863868,44.2387291 L178.34346,44.2387291 L178.34346,41.2776902 L179.380102,41.2776902 L179.380102,41.2762987 Z M177.789657,41.1260204 C177.338822,41.5782468 177.116187,42.1250928 177.116187,42.7679499 C177.116187,43.41359 177.338822,43.9673933 177.786874,44.4210111 C178.237709,44.8774119 178.787338,45.1070037 179.431586,45.1070037 C180.075835,45.1070037 180.624072,44.8774119 181.07769,44.4210111 C181.524351,43.9673933 181.749768,43.4121985 181.749768,42.7679499 C181.749768,42.1250928 181.524351,41.5796382 181.07769,41.1260204 C180.619898,40.6682282 180.07166,40.4428108 179.431586,40.4428108 C178.791512,40.4428108 178.243275,40.6682282 177.789657,41.1260204 L177.789657,41.1260204 Z M181.342069,44.6798237 C180.816095,45.2085807 180.178803,45.4729592 179.431586,45.4729592 C178.684369,45.4729592 178.048469,45.2085807 177.523887,44.6798237 C177.002087,44.1524583 176.7391,43.5137755 176.7391,42.765167 C176.7391,42.0221243 177.00487,41.387616 177.529453,40.8602505 C178.054035,40.3342764 178.691327,40.0726809 179.431586,40.0726809 C180.178803,40.0726809 180.816095,40.3342764 181.342069,40.8602505 C181.869434,41.3834416 182.132421,42.0207328 182.132421,42.765167 C182.132421,43.512384 181.869434,44.1510668 181.342069,44.6798237 L181.342069,44.6798237 Z" id="path3069" fill="#0982C6"></path>
            <path d="M19.4288961,24.4829777 C21.0012523,24.4829777 31.2160019,28.992718 31.2160019,45.187987 C31.2160019,52.9273191 28.6125696,59.3795455 27.0736085,59.3795455 C26.3959647,59.3795455 26.1371521,58.7019017 26.1371521,57.3994898 C26.1371521,54.5330705 27.1487477,51.9964286 27.1487477,45.878154 C27.1487477,34.0673933 22.2841837,29.3030148 20.1051484,26.6216605 C19.4636827,25.828525 18.9752783,25.3108998 18.9752783,24.8447588 C18.9766698,24.654128 19.1116419,24.4829777 19.4288961,24.4829777 M45.176577,24.8461503 C45.176577,25.3108998 44.689564,25.8299165 44.0467069,26.6230519 C41.8704545,29.3044063 37.007282,34.0687848 37.007282,45.8795455 C37.007282,51.99782 38.0147032,54.5358534 38.0147032,57.4008813 C38.0147032,58.7032931 37.7586735,59.3809369 37.0796382,59.3809369 C35.5420686,59.3809369 32.934462,52.9273191 32.934462,45.1893785 C32.934462,28.992718 43.1519944,24.4843692 44.7271336,24.4843692 C45.0416048,24.4829777 45.176577,24.654128 45.176577,24.8461503" id="path3053" fill="#0982C6"></path>
            <path d="M28.345269,27.7252319 C28.345269,29.8402597 30.0136364,31.5517625 32.074397,31.5517625 C34.1393321,31.5517625 35.8118738,29.8402597 35.8118738,27.7252319 C35.8118738,25.6088126 34.1407236,23.8973098 32.074397,23.8973098 C30.0150278,23.8973098 28.345269,25.6074212 28.345269,27.7252319" id="path3057" fill="#F8971F"></path>
            <path d="M13.7805195,23.8275974 C11.8296846,22.9454082 10.3700371,21.1796382 10.1320965,19.4653525 C11.5806122,18.5108071 13.8667904,18.4384508 15.8176252,19.3206401 C17.8589054,20.2445733 18.3361781,21.8057978 18.3487013,23.1777829 C17.3120594,24.0780612 15.8245826,24.7529221 13.7805195,23.8275974 M19.375603,13.5196197 C18.1205009,11.5910482 17.8282931,9.15041744 18.604731,7.46256957 C20.4637291,7.43752319 22.5745826,8.69958256 23.8269017,10.6267625 C25.1376623,12.6457792 24.664564,14.3336271 23.8783859,15.5817718 C22.4159555,15.7932746 20.6835807,15.5414193 19.375603,13.5196197 M22.2782004,23.7315863 C20.7308905,22.4208256 19.862616,20.4310297 20.0922078,18.8071892 C21.6576067,18.3146104 23.7628942,18.8447588 25.3102041,20.1555195 C26.9312616,21.531679 26.956308,23.0762059 26.609833,24.3326994 C25.4270872,24.8767625 23.8992579,25.1035714 22.2782004,23.7315863 M27.0119666,18.7960575 C26.3454545,16.6448516 26.7211503,14.2626623 27.906679,12.8767625 C29.6668831,13.3512523 31.3171614,15.1086735 31.9850649,17.2612709 C32.6807978,19.5154453 31.7819109,20.9778757 30.7090909,21.9449443 C29.2758813,21.7529221 27.7049165,21.0516234 27.0119666,18.7960575 M18.8607607,34.5112709 C17.3204082,34.810436 15.6937848,34.3693414 14.8213358,33.4426252 C15.2805195,32.255705 16.6260668,31.2385436 18.1719852,30.9393785 C19.7860853,30.6262987 20.7350649,31.3596011 21.3264378,32.1791744 C21.0843228,33.1615492 20.4818182,34.1940167 18.8607607,34.5112709 M14.7879406,29.945872 C13.0333024,29.7552412 11.4331169,28.74782 10.8055659,27.4634972 C11.6919295,26.3433673 13.4730056,25.6949443 15.2290353,25.8869666 C17.0685529,26.0859462 17.8435993,27.187987 18.2081633,28.26359 C17.6209647,29.237616 16.6288497,30.146243 14.7879406,29.945872 M14.6320965,16.9092301 C13.2545455,15.7417904 12.482282,13.9746289 12.6868275,12.5302876 C14.0782931,12.0919759 15.9498145,12.5636827 17.325974,13.7269481 C18.7633581,14.9500464 18.7911874,16.3248145 18.482282,17.4407699 C17.4289425,17.9291744 16.070872,18.1295455 14.6320965,16.9092301 M24.0175325,7.64485158 C23.4623377,5.85125232 23.7782004,3.8656308 24.7619666,2.71071429 C26.2313544,3.107282 27.6089054,4.57249536 28.1654917,6.36331169 C28.7457328,8.24318182 27.9943414,9.46071429 27.0996289,10.2705473 C25.9043599,10.1091373 24.5991651,9.52472171 24.0175325,7.64485158 M0.952597403,54.1768553 C0.952597403,54.2283395 0.983209647,54.2659091 1.0458256,54.2659091 C1.1028757,54.2659091 1.20723562,54.2199907 1.31855288,54.1768553 C6.83014842,52.2023655 14.9688312,49.7784323 26.3899814,49.0353896 C26.4038961,48.9352041 26.4720779,48.4245362 26.4720779,48.0335343 C26.4720779,47.2056122 26.3746753,46.3429035 26.3482375,46.200974 C14.6446197,47.2737941 6.56855288,50.6675788 1.26150278,53.9291744 C1.0458256,54.0613636 0.952597403,54.0919759 0.952597403,54.1768553 M47.9660482,23.1777829 C47.9785714,21.8057978 48.4558442,20.2431818 50.4957328,19.3206401 C52.4437848,18.4384508 54.7341373,18.5108071 56.1812616,19.4653525 C55.940538,21.1782468 54.482282,22.9454082 52.5356215,23.8275974 C50.490167,24.7529221 49.0054731,24.0780612 47.9660482,23.1777829 M42.4377551,15.5831633 C41.6529685,14.3350186 41.1784787,12.6471707 42.4906308,10.628154 C43.740167,8.70097403 45.8510204,7.43891466 47.7128015,7.46396104 C48.4864564,9.15041744 48.1914657,11.5924397 46.9419295,13.5210111 C45.6339518,15.5414193 43.8974026,15.7932746 42.4377551,15.5831633 M39.703525,24.331308 C39.359833,23.0748145 39.3848794,21.5302876 41.0059369,20.154128 C42.5546382,18.8447588 44.6585343,18.3146104 46.2267161,18.8057978 C46.4521336,20.4296382 45.5852505,22.4194341 44.0365492,23.7301948 C42.419666,25.1035714 40.8848794,24.8767625 39.703525,24.331308 M35.6056586,21.9449443 C34.5328386,20.9778757 33.6353432,19.5140538 34.3310761,17.2612709 C34.9948052,15.1086735 36.6520408,13.3498609 38.4108534,12.8767625 C39.5949907,14.2640538 39.969295,16.6448516 39.3055659,18.7960575 C38.6084416,21.0516234 37.0416512,21.7529221 35.6056586,21.9449443 M44.9883117,32.1791744 C45.5810761,31.3596011 46.5258813,30.6276902 48.1455473,30.9393785 C49.6886827,31.2385436 51.0342301,32.255705 51.4934137,33.4426252 C50.6223562,34.3693414 48.9971243,34.8090445 47.4539889,34.5112709 C45.8357143,34.1940167 45.2290353,33.1615492 44.9883117,32.1791744 M48.1051948,28.26359 C48.4711503,27.187987 49.2461967,26.0859462 51.0871058,25.8869666 C52.8459184,25.6963358 54.6214286,26.3433673 55.5105751,27.4634972 C54.8816327,28.74782 53.2842301,29.7552412 51.5295918,29.945872 C49.6845083,30.146243 48.6923933,29.237616 48.1051948,28.26359 M47.8324675,17.4421614 C47.5235622,16.3262059 47.5472171,14.9514378 48.9915584,13.7283395 C50.3663265,12.5650742 52.2378479,12.0919759 53.6279221,12.531679 C53.8324675,13.9760204 53.0588126,15.7431818 51.6840445,16.9106215 C50.245269,18.1295455 48.8830241,17.9291744 47.8324675,17.4421614 M39.2165121,10.2705473 C38.3190167,9.45932282 37.5704082,8.24318182 38.1506494,6.36331169 C38.7044527,4.57249536 40.0847866,3.107282 41.5472171,2.71071429 C42.5379406,3.8656308 42.8510204,5.85125232 42.2972171,7.64485158 C41.7169759,9.52472171 40.4103896,10.1091373 39.2165121,10.2705473 M65.0518553,53.9277829 C59.7475881,50.6675788 51.6687384,47.2737941 39.9651206,46.1995826 C39.9428571,46.3429035 39.8426716,47.2056122 39.8426716,48.0321429 C39.8426716,48.4217532 39.9108534,48.9324212 39.9247681,49.0339981 C51.3445269,49.7770408 59.4804267,52.200974 64.9961967,54.1782468 C65.1102968,54.2185993 65.2146568,54.2645176 65.2675325,54.2645176 C65.3315399,54.2645176 65.3621521,54.2269481 65.3621521,54.1782468 C65.3621521,54.0919759 65.2675325,54.0613636 65.0518553,53.9277829 M33.1580705,12.1559833 C31.6399814,11.4505102 30.1469388,10.1383581 30.1469388,7.41247681 C30.1469388,4.80765306 31.375603,2.30579777 33.1580705,1.18149351 C34.9377551,2.30579777 36.1664193,4.80765306 36.1664193,7.41247681 C36.1678108,10.1397495 34.677551,11.4505102 33.1580705,12.1559833" id="path3061" fill="#56B948"></path>
        </g>
    </g>
</svg>