<svg width="764" height="764" viewBox="0 0 764 764" fill="none" xmlns="http://www.w3.org/2000/svg">
<path d="M382 764C592.973 764 764 592.973 764 382C764 171.027 592.973 0 382 0C171.027 0 0 171.027 0 382C0 592.973 171.027 764 382 764Z" fill="#D4E2D2"/>
<path d="M571.973 575.973C571.059 561.96 570.17 547.706 569.305 533.933C568.728 524.775 568.163 515.618 567.574 506.46C567.298 502.169 567.117 497.771 566.937 493.504C566.516 483.433 566.084 473.013 564.437 462.786C560.171 436.334 543.454 417.345 514.742 406.361C500.2 400.796 484.973 397.611 472.006 395.244C459.964 393.032 452.993 388.958 447.957 381.146C444.893 376.399 440.254 373.671 435.242 373.671C428.921 373.671 423.332 377.865 420.628 384.62C420.28 385.497 419.979 386.35 419.703 387.168C419.583 387.516 419.462 387.865 419.342 388.201L413.213 405.267C402.637 434.747 392.049 464.228 381.473 493.708C368.89 458.531 355.946 422.357 343.255 386.711C341.705 382.36 338.833 374.272 330.047 374.272C329.795 374.272 329.53 374.284 329.266 374.296C324.399 374.585 317.849 377.277 314.748 381.88C309.28 389.98 302.021 394.114 291.89 394.907C290.027 395.051 288.32 395.472 286.818 395.833C286.289 395.965 285.76 396.097 285.22 396.205L282.095 396.866C264.873 400.508 247.062 404.281 231.282 414.857C210.407 428.859 199.506 446.165 197.98 467.773C196.261 491.942 194.759 516.507 193.305 540.267C192.584 552.069 191.826 564.279 191.069 576.285C190.444 586.188 195.853 593.291 204.542 593.952C204.974 593.988 205.419 594 205.84 594C214.072 594 219.793 587.895 220.418 578.448C221.055 568.69 221.704 558.931 222.353 549.16C224.035 523.982 225.766 497.963 227.256 472.328C227.905 461.103 232.328 451.993 240.764 444.494C250.259 436.045 261.376 431.791 274.283 428.774C274.139 428.943 274.007 429.099 273.862 429.267C269.764 434.014 265.534 438.93 261.508 443.953C257.626 448.797 256.664 454.998 258.996 460.13C261.207 465.009 265.942 468.074 271.663 468.338C276.783 468.566 282.191 468.687 288.2 468.687C295.447 468.687 302.646 468.518 309.328 468.35C317.38 468.134 323.017 462.317 323.341 453.88C323.485 450.191 322.187 446.693 319.688 444.025C316.911 441.057 312.933 439.362 308.475 439.23C307.189 439.194 305.843 439.17 304.316 439.158L322.836 417.441C335.828 453.736 351.067 496.34 366.522 539.714C367.688 542.971 370.777 551.636 380.992 551.924C381.172 551.924 381.353 551.936 381.521 551.936C392.145 551.936 395.402 542.791 396.484 539.774C411.626 497.266 426.998 454.241 440.17 417.405L458.678 439.134C457.223 439.146 455.949 439.17 454.712 439.206C446.203 439.459 440.001 445.215 439.629 453.183C439.449 457.041 440.855 460.875 443.487 463.699C446.215 466.632 449.988 468.302 454.135 468.398C460.492 468.554 467.307 468.699 474.109 468.699C480.346 468.699 485.935 468.579 491.199 468.326C497.003 468.05 501.799 464.985 504.034 460.118C506.342 455.082 505.452 448.965 501.691 444.158C499.155 440.901 496.451 437.8 493.831 434.795C492.533 433.293 491.175 431.755 489.889 430.229C489.48 429.748 489.071 429.255 488.663 428.774C498.349 431.034 507.135 433.954 515.091 439.11C528.155 447.583 534.656 457.305 535.522 469.72C537.288 494.994 538.923 520.725 540.509 545.603C541.206 556.455 541.891 567.308 542.6 578.16C543.55 592.87 553.982 594.024 557.154 594.024C557.431 594.024 557.707 594.012 557.996 594C562.034 593.808 565.507 592.221 568.031 589.397C570.963 586.092 572.321 581.453 571.973 575.973Z" fill="#659F7A"/>
<path d="M257.722 358.276C257.758 367.265 263.767 373.863 272.024 373.984H272.24C280.232 373.984 286.277 367.818 286.926 358.997C287.01 357.843 286.998 356.75 286.986 355.788C286.986 355.512 286.986 355.235 286.986 354.947C286.986 350.596 286.974 346.246 286.974 341.895C286.962 333.627 286.95 325.37 286.95 317.102C286.95 315.047 286.95 312.991 286.95 310.924C286.938 302.836 286.926 294.472 287.13 286.275C292.034 285.65 297.033 285.218 301.901 284.809C301.913 284.809 301.937 284.809 301.949 284.809C302.165 286.275 302.369 287.729 302.562 289.159C303.571 296.286 304.605 303.665 306.42 310.816C314.207 341.523 328.064 364.129 348.772 379.933C359.239 387.925 370.861 392.143 382.35 392.143C394.441 392.143 406.375 387.504 416.866 378.719C423.464 373.19 429.437 366.701 434.112 359.934C451.647 334.6 460.024 304.11 459.002 269.305C458.377 247.793 453.137 230.018 442.982 214.959C439.208 209.371 434.737 206.535 429.666 206.535C425.856 206.535 421.986 208.157 417.852 211.51C409.583 218.204 402.084 224.117 393.912 228.72C373.349 240.306 348.868 248.021 316.875 253.021C309.015 254.247 301.011 255.136 292.551 256.074C290.94 256.254 289.306 256.434 287.647 256.626C287.695 256.23 287.743 255.833 287.791 255.437C288.452 249.836 289.029 244.993 289.931 240.222C296.216 207.015 313.739 185.815 343.496 175.42C355.598 171.189 368.181 169.05 380.896 169.05C391.292 169.05 401.988 170.48 412.684 173.316C437.417 179.854 455.108 194.096 465.264 215.632C471.753 229.417 475.178 244.212 475.443 259.607C475.803 281.071 475.888 302.92 475.972 324.048C476.02 334.804 476.056 345.921 476.14 356.87C476.176 361.713 477.378 365.691 479.709 368.72C482.329 372.109 486.223 373.972 490.658 373.972C490.838 373.972 491.03 373.972 491.211 373.96C499.78 373.659 505.332 367.001 505.356 356.966C505.368 351.69 505.392 346.414 505.416 341.138C505.5 325.022 505.584 308.364 505.236 291.936C505.176 288.799 505.128 285.662 505.08 282.525C504.875 268.032 504.671 253.057 502.267 238.455C495.309 196.283 473.484 166.779 437.393 150.77C420.844 143.439 403.07 139.87 383.059 139.87C376.317 139.87 369.202 140.291 361.919 141.12C335.143 144.172 311.551 154.893 293.704 172.115C275.761 189.421 264.284 212.64 260.534 239.26C258.311 255.04 258.034 271.192 257.782 285.446C257.446 304.591 257.554 324.036 257.65 342.845C257.674 347.988 257.698 353.132 257.722 358.276ZM382.338 362.614C375.716 362.614 368.878 359.862 362.556 354.658C348.627 343.169 339.722 327.065 334.518 303.99C333.533 299.639 333.076 295.12 332.583 290.349C332.259 287.189 331.922 283.92 331.417 280.675C331.393 280.53 331.381 280.398 331.369 280.29C331.61 280.23 331.922 280.158 332.307 280.086C362.665 274.497 388.359 265.604 410.845 252.889C415.34 250.341 419.619 247.577 424.149 244.632C424.414 244.464 424.666 244.296 424.931 244.127C427.478 250.653 428.909 257.888 429.365 266.397C430.844 293.931 426.349 316.813 415.641 336.343C412.095 342.797 407.636 348.709 402.721 353.445C396.508 359.442 389.453 362.614 382.338 362.614Z" fill="#659F7A"/>
</svg>
