<svg width="764" height="764" viewBox="0 0 764 764" fill="none" xmlns="http://www.w3.org/2000/svg">
<path d="M382 764C592.973 764 764 592.973 764 382C764 171.027 592.973 0 382 0C171.027 0 0 171.027 0 382C0 592.973 171.027 764 382 764Z" fill="#D4E2D2"/>
<path d="M328.207 481.396C340.762 507.519 360.33 529.64 384.728 545.286C409.126 560.932 437.393 569.489 466.372 570H594.452C594.452 570 556.614 552.762 586.695 502.168C600.579 480.511 608.552 455.598 609.824 429.905C611.095 404.211 605.619 378.633 593.941 355.711C582.262 332.79 564.788 313.325 543.255 299.251C521.722 285.176 496.88 276.983 471.199 275.485C461.704 274.953 452.179 275.328 442.756 276.605" stroke="#659F7A" stroke-width="30" stroke-linecap="round" stroke-linejoin="round"/>
<path d="M183.32 415.976C170.717 396.324 162.963 373.959 160.696 350.723C158.43 327.487 161.715 304.045 170.282 282.328C178.849 260.611 192.453 241.239 209.973 225.808C227.492 210.378 248.427 199.33 271.053 193.575C293.679 187.819 317.348 187.521 340.111 192.705C362.875 197.888 384.081 208.405 401.984 223.39C419.887 238.374 433.974 257.397 443.086 278.891C452.197 300.386 456.072 323.738 454.391 347.023C449.048 422.613 379.147 483.809 303.643 483.809H175.563C175.563 483.809 213.401 466.571 183.32 415.976Z" stroke="#659F7A" stroke-width="30" stroke-linecap="round" stroke-linejoin="round"/>
<path d="M255.721 320.046H359.15" stroke="#659F7A" stroke-width="30" stroke-linecap="round" stroke-linejoin="round"/>
<path d="M255.721 363.141H359.15" stroke="#659F7A" stroke-width="30" stroke-linecap="round" stroke-linejoin="round"/>
</svg>
