<?xml version="1.0" encoding="UTF-8"?>
<svg width="1140px" height="794px" viewBox="0 0 1140 794" version="1.1" xmlns="http://www.w3.org/2000/svg" xmlns:xlink="http://www.w3.org/1999/xlink">
    <!-- Generator: Sketch 61.2 (89653) - https://sketch.com -->
    <title>Embed-BG</title>
    <desc>Created with Sketch.</desc>
    <g id="Page-1" stroke="none" stroke-width="1" fill="none" fill-rule="evenodd">
        <g id="Landing-Page" transform="translate(-129.000000, -4378.000000)">
            <g id="Embed-BG" transform="translate(129.000000, 4378.000000)">
                <path d="M455.947705,126.944923 C384.546785,112.26888 297.396737,94.355621 241.212195,123.632682 C220.889178,134.220385 210.241344,148.049996 205.48565,154.222422 C182.881491,183.57558 192.859835,204.879996 176.966198,246.314143 C170.542912,263.054859 163.444777,273.83526 151.078659,292.615034 C97.2512064,374.362927 44.5304,374.317749 15.1517099,434.149848 C8.96739076,446.736605 -18.6651672,503.01827 20.8844434,553.509169 C46.5561312,586.282558 89.1643316,602.102649 101.174014,606.42431 C140.510831,620.588562 162.573396,616.134176 258.659892,626.306356 C296.828283,630.349402 324.40145,633.26976 347.543626,637.695456 C436.761667,654.746928 465.61667,695.190728 536.441874,732.461736 C634.397772,784.006692 769.311696,806.684754 879.37148,786.909062 C910.090053,781.389895 988.20017,767.359708 1028.87097,718.527777 C1061.64273,679.185559 1058.76324,630.891381 1056.34307,590.416044 C1053.47425,542.267902 1039.36156,525.344641 1049.05451,484.719914 C1056.31139,454.32123 1070.2249,438.566496 1085.38535,414.567294 C1088.21701,410.082068 1144.41884,318.718401 1139.7213,208.937549 C1137.48829,156.712987 1135.36769,107.098192 1084.46761,71.880095 C1044.42635,44.1707812 994.206936,39.2179505 968.667207,36.6984231 C893.663932,29.3021833 804.930298,46.0550379 747.775661,87.1057549 C714.062199,111.321134 708.793532,131.453115 666.609402,143.698384 C634.651496,152.976094 603.511687,151.335407 577.027837,149.742082 C527.526951,146.769067 508.851412,137.818779 455.947705,126.944923" id="Final-CTA-BG-Alt" fill="#E8E6E0"></path>
                <path d="M426.729272,139.323386 C354.044423,131.610974 265.327236,122.197335 212.756531,156.760265 C193.740439,169.259979 184.715459,184.052047 180.684094,190.65436 C161.524441,222.050733 173.862978,242.290612 162.746655,285.062723 C158.253565,302.344188 152.4141,313.75878 142.240626,333.643427 C97.9576938,420.200615 45.5111503,425.246015 23.0651005,487.630799 C18.3392079,500.754943 -2.77210694,559.437547 42.2868344,605.87021 C71.5345998,636.009396 115.708891,647.640457 128.14443,650.782037 C168.877123,661.08098 190.318241,654.51752 287.047718,655.36397 C325.471785,655.70255 353.229614,655.946772 376.750436,658.117016 C467.427044,666.473285 500.710055,703.939124 575.381486,734.19487 C678.656595,776.037273 815.424236,785.581349 922.660869,755.272873 C952.591522,746.813919 1028.69857,725.308528 1063.62284,672.781422 C1091.76479,630.461676 1083.43046,582.674693 1076.43862,542.625099 C1068.13145,494.982429 1052.17671,479.502099 1057.21689,438.134263 C1060.99217,407.179155 1073.04746,390.155788 1085.40928,364.806679 C1087.71791,360.069332 1133.27349,263.712745 1116.16638,154.9064 C1108.02993,103.145262 1100.30089,53.9706555 1045.68152,23.834245 C1002.71392,0.122532098 952.199638,0.0420499261 926.509872,0 C851.066313,-0.118914417 764.700432,25.1219598 712.498331,71.4963422 C681.706309,98.8519548 678.745836,119.397111 638.172224,135.657285 C607.434522,147.976607 576.273895,149.350355 549.74992,150.321691 C500.174609,152.142253 480.584271,145.03762 426.729272,139.323386" id="Final-CTA-BG" fill="#D4E2D2"></path>
            </g>
        </g>
    </g>
</svg>