<?xml version="1.0" encoding="utf-8"?>
<!-- Generator: Adobe Illustrator 25.2.1, SVG Export Plug-In . SVG Version: 6.00 Build 0)  -->
<svg version="1.1" id="Layer_1" xmlns="http://www.w3.org/2000/svg" xmlns:xlink="http://www.w3.org/1999/xlink" x="0px" y="0px"
	 viewBox="0 0 235 60" style="enable-background:new 0 0 235 60;" xml:space="preserve">
<style type="text/css">
	.st0{fill-rule:evenodd;clip-rule:evenodd;fill:#FFFFFF;}
	.st1{fill-rule:evenodd;clip-rule:evenodd;fill:#00A4E3;}
	.st2{fill-rule:evenodd;clip-rule:evenodd;}
</style>
<desc>Created with Sketch.</desc>
<polygon id="Shape" class="st0" points="218.7,48.5 212.6,43.8 207,34.8 205.2,27.5 206.8,15.5 211.5,17.3 217.3,18.3 225.2,17.3 
	230.3,15.7 232.2,23 231.9,29.6 229.8,37.7 224.5,44.8 "/>
<path id="Shape_1_" class="st1" d="M231.6,13.5c0,0-5.8,3-12.6,3c-6.8,0-12.7-3-12.7-3c-9,25.6,12.7,37.1,12.7,37.1
	S240.6,39.1,231.6,13.5L231.6,13.5z M219,47.8c0,0-16.8-10.7-10.8-30.5c0,0,5.4,2,10.8,2c5.4,0,10.8-2,10.8-2
	C235.7,37.1,219,47.8,219,47.8L219,47.8z"/>
<path id="Shape_2_" class="st1" d="M217.3,23.5c0.2,0,0.2-0.2,0.2-0.2c-0.3-0.3-1.2-0.2-1.2-0.2C216.8,23.2,217.1,23.5,217.3,23.5
	L217.3,23.5z"/>
<path id="Shape_3_" class="st1" d="M228.8,19c0,0-4.9,1.7-9.8,1.7c-4.9,0-9.8-1.7-9.8-1.7C204,35.8,219,46.2,219,46.2
	S233.8,35.8,228.8,19L228.8,19z M217.8,43.7c0,0-0.5-0.2-0.5-1c-0.1-1.1,0.8-1.6,0.8-1.6l0.1,1.5C217.9,42.8,217.7,43,217.8,43.7
	L217.8,43.7z M219.5,44.2c0,0-0.2,0.1-0.5,0.1c-0.3,0-0.4-0.1-0.4-0.1l-0.3-4.6c0,0,0.4,0,0.8,0.4c0.3,0.2,0.4,0.7,0.4,0.7
	L219.5,44.2L219.5,44.2z M219.8,41.6l0.1-0.9c0-0.3-0.3-1-1.2-1.3c-0.4-0.1-2.1-0.5-2.1-1.9c0-1.4,1.4-1.7,1.4-1.7s0.1,1.3,0.1,1.5
	c0,0,0,0-0.1,0.1c-0.1,0.1,0.7,0.4,1.1,0.6c0.3,0.1,1.8,0.6,1.8,1.9C220.9,41.4,219.8,41.6,219.8,41.6L219.8,41.6z M218.1,35.1
	l1.6,0.2l-0.1,2.7l-1.3-0.6L218.1,35.1L218.1,35.1z M219.9,37.2l0.1-1.7c0.2,0,0.2-0.4,0.1-0.5c-0.2-0.1-1.5-0.2-1.9-0.2
	c-0.5-0.1-2.1-0.4-2.3-2c-0.1-1.3,0.5-1.9,1.1-1.9c0.2,0,0.5,1.3,0.6,2c0,0.2,0.2,0.2,0.4,0.3c0.1,0,1,0.1,1.4,0.1
	c0.4,0,2.4,0.3,2.4,2.1C221.8,37.1,219.9,37.2,219.9,37.2L219.9,37.2z M217.5,29.5c0,0,1.9,0.1,2.2,0.4v3.3c0,0-1.6-0.2-1.9-0.2
	c0,0-0.2-0.9-0.4-1.4c-0.1-0.5-0.5-1.3-0.5-1.3L217.5,29.5L217.5,29.5z M220,32.6l0-2c0.8-0.8,0-1.1-1-1.2c-1.1-0.1-2.1-0.3-2.9-0.4
	c-0.7-0.1-2.9-0.8-2.8-3.4c0.1-2.7,2.6-2.9,3.2-2.8c0.8,0,1.1,0.3,1.3,0.4c0.4,0.2,0.9,1,0.9,1s-1.3,0.1-2.5,0.2l1.9,0.6
	c-0.1,0.2-0.7,0.3-1.1,0.3c-0.4,0-1.3-0.2-1.7-0.3c0,0-0.3,0.1-0.3,0.5c-0.2,1.7,2.8,1.7,3.9,1.8c1.2,0.1,3.4,0.7,3.4,2.4
	C222.4,31.3,221.7,32.3,220,32.6L220,32.6z M222.6,23.8c-0.5,0.5-2.4,2.5-2.8,3.3c0,0-1.3-0.2-2.3-0.2l-0.1-1.3
	c0.6-0.1,1.1-0.2,1.1-0.6c-0.1-0.1-0.2-0.2-0.2-0.2l0.2,0c0,0,1.7,0.6,1.2,0.2c-0.5-0.3-1.5-0.5-1.5-0.5l0.9-0.1l-0.2-0.4
	c0,0-0.6-1-1.2-1.2c-0.2-0.1-0.3-1.1,0.1-1c1.8,0.3,1.9,0.6,1.9,0.6c0.1,0.1,0,0.4,0.1,0.9c0,0.4,0.2,1.1,0.2,1.1s0.5-0.2,0.7-0.4
	c0.3-0.3,0.7-0.9,0.9-1C222.1,22.6,223.2,23.2,222.6,23.8L222.6,23.8z"/>
<path id="Shape_4_" class="st1" d="M226,49.4c0-0.7,0.6-1.4,1.3-1.4c0.7,0,1.3,0.6,1.3,1.4c0,0.8-0.6,1.4-1.3,1.4
	C226.6,50.7,226,50.1,226,49.4L226,49.4z M228.5,49.4c0-0.7-0.5-1.2-1.1-1.2c-0.7,0-1.1,0.5-1.1,1.2c0,0.7,0.5,1.2,1.1,1.2
	C228,50.5,228.5,50,228.5,49.4L228.5,49.4z M228,50.1h-0.2l-0.4-0.7H227v0.7h-0.2v-1.5h0.7c0.4,0,0.5,0.1,0.5,0.4
	c0,0.3-0.2,0.4-0.5,0.4L228,50.1L228,50.1z M227.3,49.3c0.2,0,0.5,0,0.5-0.3c0-0.2-0.2-0.3-0.4-0.3H227v0.5H227.3L227.3,49.3z"/>
<path id="Shape_5_" class="st2" d="M47.8,33.6c0-2.9-0.1-5.9-0.3-8.9c0.6,0.1,1.1,0.2,1.7,0.2c0.5,0,1.1-0.1,1.7-0.2
	c-0.1,2.9-0.3,5.9-0.3,8.9v5.9c0,2.9,0.1,5.9,0.3,8.9c-0.6-0.1-1.1-0.2-1.7-0.2c-0.5,0-1.1,0.1-1.7,0.2c0.1-2.9,0.3-5.9,0.3-8.9
	V33.6L47.8,33.6z"/>
<path id="Shape_6_" class="st2" d="M75.2,28.9c-1.4-1.7-4.1-3.4-7.5-3.4c-5.7,0-10,3.4-10,11c0,6.7,3.8,10.8,10.2,10.8
	c2,0,4.3-0.4,5.5-1.1c0-1.4,0.1-3.6,0.1-5c0-1.6-0.1-3.3-0.2-4.7c0.4,0.1,1.1,0.2,1.6,0.2c0.5,0,1,0,1.5-0.2c-0.1,1-0.1,4.1-0.1,7.8
	c0,0.9,0,1.8,0,2.8c-2,0.7-6.1,1.6-8.7,1.6c-8.1,0-13.2-4.2-13.2-12.3c0-7.8,5.3-12.2,13.4-12.2c4.6,0,7.1,1.1,8.7,2
	c-0.3,0.6-0.7,1.8-0.8,2.6L75.2,28.9L75.2,28.9z"/>
<path id="Shape_7_" class="st2" d="M96.9,33.6c0-2.9-0.1-5.9-0.3-8.9c0.6,0.1,1.1,0.2,1.7,0.2c0.6,0,1.1-0.1,1.7-0.2
	c-0.1,2.9-0.3,5.9-0.3,8.9v5.9c0,2.9,0.1,5.9,0.3,8.9c-0.6-0.1-1.1-0.2-1.7-0.2c-0.5,0-1.1,0.1-1.7,0.2c0.1-2.9,0.3-5.9,0.3-8.9
	v-3.1c-2.4,0-4.8-0.1-7.1-0.1c-2.4,0-4.8,0-7.2,0.1v3.1c0,2.9,0.1,5.9,0.3,8.9c-0.6-0.1-1.1-0.2-1.7-0.2c-0.5,0-1.1,0.1-1.7,0.2
	c0.1-2.9,0.3-5.9,0.3-8.9v-5.9c0-2.9-0.1-5.9-0.3-8.9c0.6,0.1,1.1,0.2,1.7,0.2c0.5,0,1.1-0.1,1.7-0.2c-0.1,2.9-0.3,5.9-0.3,8.9v1.2
	c2.4,0,4.8,0.1,7.2,0.1c2.4,0,4.8-0.1,7.1-0.1V33.6L96.9,33.6z"/>
<path id="Shape_8_" class="st2" d="M106.6,24.3c3.1,6.4,6.3,12.5,9.8,18.8c1.4-2.7,6.8-12.5,10.2-18.8h0.4c1,8.8,1.7,16.2,2.8,24
	c-0.5-0.1-1.1-0.2-1.6-0.2c-0.5,0-1.1,0.1-1.6,0.2c-0.5-6.1-1-11.8-1.7-17.7h-0.1c-3.1,5.7-6.3,11.3-9,17.5h-0.3
	c-2.7-5.7-5.8-11.6-8.8-17.5h-0.1c-0.6,5.6-1.6,13.8-1.6,17.7c-0.4-0.1-0.8-0.2-1.2-0.2s-0.8,0.1-1.2,0.2c1.2-7.6,2.6-16.8,3.3-24
	H106.6L106.6,24.3z"/>
<path id="Shape_9_" class="st2" d="M169.8,39.5v-5.9c0-2.9-0.1-5.9-0.3-8.9c0.6,0.1,1.1,0.2,1.7,0.2c0.5,0,1.1-0.1,1.7-0.2
	c-0.1,2.9-0.3,5.9-0.3,8.9v1.9c0,0.2,0.1,0.3,0.2,0.3c0.1,0,0.2-0.1,0.5-0.3c3.2-2.8,7.1-7,10.3-10.7c0.4,0.1,0.9,0.2,1.4,0.2
	c0.5,0,1.1-0.1,1.6-0.2c-3.1,2.8-8.5,7.8-10.9,10.7c3.7,4.1,9.2,11,13.1,15.4c-0.7-0.1-1.4-0.2-2.1-0.2c-0.6,0-1.3,0.1-1.9,0.2
	c-3.2-4-10.2-12.7-11.7-14.2c-0.2-0.2-0.3-0.3-0.4-0.3s-0.2,0.1-0.2,0.2v3c0,2.9,0.1,5.9,0.3,8.9c-0.6-0.1-1.1-0.2-1.7-0.2
	c-0.5,0-1.1,0.1-1.7,0.2C169.7,45.4,169.8,42.4,169.8,39.5L169.8,39.5z"/>
<path id="Shape_10_" class="st2" d="M159.2,36.6c2.6-0.3,7-2.1,7-6.5c0-4.1-3.2-5.4-7.1-5.4c-1.3,0-2.6,0.2-3.9,0.2
	c-1.3,0-2.6-0.1-3.9-0.2c0.1,2.9,0.3,5.9,0.3,8.9v5.9c0,2.9-0.1,5.9-0.3,8.8c-1.8-3.7-6.9-16.1-10.3-24h-0.6c-3.5,8.1-7,16-10.7,24
	c0.4-0.1,0.9-0.2,1.3-0.2c0.4,0,0.8,0.1,1.3,0.2c0.6-2.2,7.7-19.4,7.7-19.4s7.2,17.1,7.8,19.4c0.6-0.1,1.2-0.2,1.8-0.2
	s1.2,0.1,1.8,0.2v0h0h0c0,0,0,0,0,0c0.6-0.1,1.1-0.2,1.7-0.2c0.5,0,1.1,0.1,1.7,0.2c-0.1-2.9-0.3-5.9-0.3-8.9v-5.9
	c0-2.5,0.1-4.9,0.2-7.4c0.7-0.1,1.7-0.2,3.3-0.2c2.3,0,5.3,0.9,5.3,4.5c0,4.1-3.7,5.2-6.5,5.2c-0.4,0-0.8,0-1,0V37h0
	c2.9,3,7.2,9.3,8.6,11.4c0.7-0.1,1.3-0.2,2-0.2c0.7,0,1.4,0.1,2.1,0.2C166.3,46.1,160.9,38.7,159.2,36.6L159.2,36.6z"/>
<path id="Shape_11_" class="st1" d="M53.3,13.4c-15.3,0.6-28.5,2-38.1,3.8C8.7,18.5,0.7,20.7,0,23.8c-0.3,1.4,0.9,2.7,3.5,4
	c6.1,3,19.3,5.4,37.2,7l0-0.1l0-0.1h0l0-0.1l0-0.1c-14.2-1.5-24.5-3.7-29.6-6.2c-2.5-1.2-3.6-2.4-3.4-3.6c1-4.8,22.3-8.9,53-10.1
	c14.3-0.6,29.4-0.5,43.8,0.2l0-0.3C88.3,12.9,70.1,12.7,53.3,13.4L53.3,13.4z"/>
<path id="Shape_12_" class="st2" d="M43.1,32.7c0-3.4,0.1-8.5,0.3-12c-0.6,0.1-1.2,0.2-1.7,0.2c-0.6,0-1.1-0.1-1.7-0.2
	c0.1,3.4,0.3,8.5,0.3,12V39c0,3.4-0.1,6-0.3,9.4c0.6-0.1,1.2-0.2,1.7-0.2c0.6,0,1.1,0.1,1.7,0.2c-0.1-3.4-0.3-6-0.3-9.4V32.7
	L43.1,32.7z"/>
<path id="Shape_13_" class="st2" d="M25.5,34.3c-1-0.1-2-0.3-2.9-0.4V39c0,3.4-0.1,6-0.3,9.4c0.6-0.1,1.2-0.2,1.7-0.2
	s1.1,0.1,1.7,0.2c-0.1-3.4-0.3-6-0.3-9.4L25.5,34.3L25.5,34.3z"/>
<path id="Shape_14_" class="st2" d="M22.3,20.8c0.1,3.1,0.3,6.1,0.3,9.4c0.9,0.2,1.9,0.4,2.9,0.6c0-3.4,0.1-6.7,0.3-10
	C25.1,20.9,24.6,21,24,21S22.9,20.9,22.3,20.8L22.3,20.8z"/>
<path id="Shape_15_" class="st2" d="M193.1,44.5c1.3,0,2.2,1.1,2.2,2.3c0,1.3-1,2.4-2.2,2.4c-1.3,0-2.2-1.1-2.2-2.4
	C190.9,45.6,191.9,44.5,193.1,44.5L193.1,44.5z M193.1,49.6c1.5,0,2.7-1.2,2.7-2.8c0-1.5-1.2-2.8-2.7-2.8c-1.5,0-2.7,1.2-2.7,2.8
	C190.4,48.4,191.6,49.6,193.1,49.6L193.1,49.6z M192.1,48.4c0.1,0,0.2,0,0.3,0c0.1,0,0.2,0,0.3,0V47h0.1l0.8,1.5c0.1,0,0.2,0,0.4,0
	c0.1,0,0.2,0,0.3,0l-0.2-0.3c-0.3-0.4-0.5-0.8-0.8-1.3c0.4-0.1,0.7-0.4,0.7-0.8c0-0.5-0.3-0.7-0.9-0.7h-1.2V48.4L192.1,48.4z
	 M192.7,45.6h0.2c0.2,0,0.5,0,0.5,0.6c0,0.5-0.2,0.7-0.7,0.7V45.6L192.7,45.6z"/>
</svg>
