<svg width="140" height="30" viewBox="0 0 140 30" fill="none" xmlns="http://www.w3.org/2000/svg">
<path d="M103.941 29.4297V21.3555H112.02V8.44141H103.941V0.367188H91.0742V8.44141H83V21.3555H91.0742V29.4297H103.941Z" fill="#00468C"/>
<path d="M90.0625 12.1094L95.4141 12.6289C96.418 12.7656 96.5391 13.7422 96.2734 14.3242L92.6055 21.207L92.6094 21.1992C90.75 19.7383 89.5508 17.4688 89.5508 14.9219C89.5508 13.9297 89.7344 12.9844 90.0625 12.1094Z" fill="white"/>
<path d="M105 12.1094L99.6485 12.6289C98.6407 12.7656 98.5235 13.7422 98.7891 14.3242L102.457 21.207L102.453 21.1992C104.313 19.7383 105.508 17.4688 105.508 14.9219C105.508 13.9297 105.328 12.9844 105 12.1094Z" fill="white"/>
<path d="M97.5312 7.96094C98.4766 7.96094 98.7461 9.02734 98.3281 9.57812C97.9531 10.0703 97.8789 10.2109 97.9023 10.668C97.918 11.0547 98.2734 11.5312 99.082 11.5469H104.762C103.492 8.82812 100.73 6.94531 97.5312 6.94531C94.332 6.94531 91.5703 8.82812 90.3008 11.5469H95.9805C96.7891 11.5312 97.1445 11.0547 97.1602 10.668C97.1797 10.2109 97.1094 10.0703 96.7305 9.57812C96.3125 9.02734 96.5859 7.96094 97.5312 7.96094Z" fill="white"/>
<path d="M97.5312 22.8984C99.1523 22.8984 100.66 22.418 101.918 21.5859V21.5898L98.0312 15.7773C97.7578 15.4062 97.3203 15.375 97.0312 15.7773L93.1445 21.5898V21.5859C94.4063 22.418 95.9102 22.8984 97.5312 22.8984Z" fill="white"/>
<path d="M90.8555 13.2891L94.9102 13.6602C95.2031 13.6836 95.2227 13.8086 95.1602 13.9766L92.3203 19.3945C91.2852 18.1953 90.6602 16.6289 90.6602 14.9219C90.6602 14.3594 90.7305 13.8086 90.8555 13.2891Z" fill="#00468C"/>
<path d="M95.6211 8.32031C95.2148 8.99609 95.543 9.875 95.9297 10.2891C96 10.3633 95.9648 10.4375 95.8984 10.457H92.3086C93.1719 9.45313 94.3164 8.69922 95.6211 8.32031Z" fill="#00468C"/>
<path d="M104.203 13.2891L100.152 13.6602C99.8593 13.6836 99.8359 13.8086 99.9023 13.9766L102.742 19.3945C103.777 18.1953 104.402 16.6289 104.402 14.9219C104.402 14.3594 104.332 13.8086 104.203 13.2891Z" fill="#00468C"/>
<path d="M99.4414 8.32031C99.8437 8.99609 99.5156 9.875 99.1328 10.2891C99.0625 10.3633 99.0976 10.4375 99.1601 10.457H102.754C101.891 9.45313 100.746 8.69922 99.4414 8.32031Z" fill="#00468C"/>
<path d="M97.418 17.0899C97.4805 17.0078 97.5703 17.0039 97.6445 17.0899L100.324 21.1992C99.4727 21.5781 98.5273 21.793 97.5312 21.793C96.5352 21.793 95.5898 21.5781 94.7344 21.1992L97.418 17.0899C97.4922 17.0039 97.582 17.0078 97.6445 17.0899H97.418Z" fill="#00468C"/>
<path d="M127.945 29.6914C133.524 26.6094 136.902 21.7031 138.649 16.3164C140.453 10.7266 140.152 4.12109 138.059 0C134.875 1.60547 131.668 2.41016 127.945 2.41797C124.219 2.43359 121.016 1.60547 117.828 0C115.738 4.12109 115.438 10.7266 117.242 16.3164C118.984 21.7031 122.367 26.6094 127.945 29.6914Z" fill="#00468C"/>
<path d="M127.938 27.1953C132.531 24.3516 134.977 20.2813 136.543 15.6797C137.934 11.5938 138.274 6.81641 136.742 3.08594C134.449 3.875 133.106 4.12109 131.856 4.3125C130.695 4.49609 129.652 4.60547 127.949 4.62891H127.938C126.234 4.60547 125.195 4.49609 124.035 4.3125C122.781 4.12109 121.438 3.875 119.145 3.08594C117.617 6.81641 117.957 11.5938 119.348 15.6797C120.914 20.2813 123.359 24.3516 127.949 27.1953H127.938Z" fill="white"/>
<path d="M127.941 26.0664C131.047 24.1133 134.566 19.6836 135.973 13.8516C136.719 10.7578 136.93 7.28125 135.957 4.52344C134.566 4.89453 133.269 5.20313 131.926 5.38281C130.586 5.5625 129.258 5.69531 127.949 5.70312H127.941C126.633 5.69531 125.305 5.5625 123.965 5.38281C122.621 5.20313 121.324 4.89453 119.934 4.52344C118.961 7.28125 119.168 10.7578 119.914 13.8516C121.32 19.6836 124.844 24.1133 127.949 26.0664H127.941Z" fill="#00468C"/>
<path d="M124.774 7.77348C123.727 8.32035 123.363 9.6016 123.832 10.6368C124.242 11.5352 125.047 12.1289 125.984 12.4063C126.453 12.5469 126.93 12.5821 127.418 12.6094C128.012 12.6368 128.551 12.6563 129.121 12.8008C129.246 12.8321 129.379 12.9024 129.442 13.0196C129.594 13.3086 129.457 13.6211 129.152 13.7071C129.149 14.211 129.102 15.2149 129.102 15.2149C129.102 15.2149 131.539 14.9844 131.125 12.793C131.027 12.2657 130.617 11.7305 130.145 11.4883C128.922 10.8594 127.582 11.1329 126.332 10.7266C125.91 10.5899 125.32 10.3829 125.207 9.91019C125.16 9.71879 125.203 9.33988 125.399 9.27738C125.711 9.17582 126.063 9.44144 126.52 9.54691C126.809 9.61332 127.094 9.61332 127.328 9.54301C127.426 9.51566 127.574 9.4766 127.586 9.41801C127.574 9.36723 127.461 9.32035 127.399 9.2891C127.262 9.21879 127.113 9.18363 126.961 9.12894C126.711 9.02738 126.457 8.91019 126.203 8.76566C126.442 8.71879 126.844 8.70316 127.086 8.73441C127.274 8.75394 127.863 8.75004 128.043 8.70316C128.078 8.69144 128.168 8.66019 128.129 8.59379C128.063 8.4766 127.945 8.43363 127.867 8.32816C127.695 8.09379 127.543 7.8516 127.27 7.74613C126.465 7.43363 125.574 7.35941 124.774 7.77348Z" fill="white"/>
<path d="M128.84 15.5898L128.852 13.0352C128.852 13.0352 128.527 12.9648 128.066 12.9375C127.465 12.8945 127.195 12.9062 127.195 12.9062V13.1211C127.195 13.1211 126.906 13.2422 126.863 13.3203C126.84 13.3555 126.766 13.4531 126.801 13.5469C127.039 14.1797 127.363 14.793 127.457 15.4648C127.902 15.5273 128.297 15.5156 128.84 15.5898Z" fill="white"/>
<path d="M125.785 15.2031C125.672 16.207 126.332 16.7422 127.055 16.918C127.625 17.0508 128.184 17.082 128.777 17.1523C128.852 17.1602 129.012 17.1641 129.133 17.2148C129.238 17.2617 129.289 17.3242 129.313 17.3906C129.336 17.4844 129.328 17.5547 129.266 17.6289C129.203 17.7109 129.031 17.7539 129.031 17.7539L128.996 18.9609C128.996 18.9609 129.481 18.9414 129.875 18.707C130.25 18.4844 130.481 18.1992 130.563 17.8398C130.656 17.4219 130.59 17.0156 130.297 16.6133C130.106 16.3438 129.762 16.1523 129.422 16.0312C128.707 15.7812 127.938 15.8203 127.199 15.7148C127.086 15.6992 126.984 15.6133 126.977 15.5117C126.957 15.3242 127.129 15.2383 127.129 15.2383C127.129 15.2383 127.043 14.9531 126.949 14.6719C126.867 14.457 126.746 14.1641 126.664 14.0078C126.164 14.2227 125.84 14.6836 125.785 15.2031Z" fill="white"/>
<path d="M128.777 17.4297L128.758 19.5938L128.215 19.3477L127.68 19.125L127.672 17.3203C128.148 17.375 128.371 17.3828 128.777 17.4297Z" fill="white"/>
<path d="M126.356 18.625C126.059 19.3242 126.43 20.0117 127.02 20.3008C127.328 20.4531 127.734 20.5898 128.063 20.7148C128.387 20.8438 128.961 21.1992 129.008 21.3672C129.035 21.4766 128.91 21.5781 128.91 21.5781L128.898 22.4219C128.898 22.4219 129.25 22.3477 129.512 22.1328C129.754 21.9297 129.934 21.668 129.93 21.2461C129.93 20.7852 129.715 20.4219 129.055 20.0391C128.547 19.7383 127.926 19.5 127.445 19.2852C127.375 19.2539 127.313 19.1172 127.34 19.0352C127.367 18.9453 127.426 18.9102 127.426 18.9102L127.41 17.9336C127.41 17.9336 127.043 18.0078 126.871 18.1133C126.707 18.207 126.461 18.3672 126.356 18.625Z" fill="white"/>
<path d="M128.688 21.5039C128.695 21.4336 128.672 21.4219 128.637 21.375C128.492 21.2227 128.285 21.1211 128.234 21.0898C128.082 21 127.75 20.8789 127.75 20.8789C127.75 20.8789 127.773 23.0898 127.812 24.2344C127.824 24.4922 127.969 24.5625 128.215 24.5781C128.523 24.5938 128.613 24.3984 128.617 24.2891C128.629 23.9258 128.672 22.3359 128.688 21.5039Z" fill="white"/>
<path d="M128.922 7.25779C129.035 7.33982 129.035 7.34372 129.066 7.50779C129.141 7.86325 129.062 8.41794 129.133 8.66013C129.168 8.73825 129.25 8.73435 129.305 8.7031C129.797 8.43747 130.129 7.98435 130.625 7.7695C130.859 7.67185 131.504 7.99607 131.355 8.48435C131.285 8.71091 131.184 8.74607 131.039 8.8945C130.75 9.19138 130.344 9.47654 129.988 9.86716C129.746 10.1289 129.453 10.3203 129.266 10.6211C129.207 10.7148 129.113 10.8437 129.113 10.8437C128.422 10.7031 127.73 10.7265 127.195 10.6211L127.191 9.82029C127.191 9.82029 127.738 9.72654 127.844 9.457C127.852 9.43357 127.832 9.34372 127.754 9.28513C127.664 9.21482 127.5 9.1445 127.449 9.12888C128 9.21091 128.344 9.30466 128.871 9.53513C128.906 9.47654 128.887 9.34763 128.848 9.30075C128.773 9.21872 128.734 9.19138 128.547 9.14841C128.223 9.06247 127.34 8.957 127.34 8.957C127.34 8.957 127.75 8.9531 128.09 8.89841C128.258 8.87107 128.395 8.83982 128.43 8.78122C128.469 8.69919 128.398 8.57029 128.281 8.44529C128.203 8.36325 128.117 8.27341 128.051 8.18747C127.969 8.0781 127.84 7.87888 127.695 7.74997C127.57 7.6406 127.262 7.48044 127.262 7.48044C127.262 7.48044 127.207 7.05075 127.293 6.87888C127.359 6.74997 127.523 6.67575 127.609 6.72263C128.004 6.94529 128.398 7.16794 128.922 7.25779Z" fill="white"/>
<path d="M127.215 22.3164C127.082 22.457 126.859 22.7422 126.82 23.1914C126.785 23.5977 126.879 23.7109 126.98 23.9297C127.062 24.1055 127.258 24.0938 127.328 23.9297C127.383 23.793 127.305 23.668 127.355 23.3711C127.391 23.1523 127.562 23.0352 127.562 23.0352L127.547 22.0508C127.547 22.0508 127.391 22.1328 127.215 22.3164Z" fill="white"/>
<path d="M127.188 8.08203C127.086 8.15625 127.016 8.22656 126.902 8.24609C126.676 8.28516 126.707 8.08984 126.551 7.97656C126.457 7.91406 126.367 7.99609 126.281 7.83984C126.609 7.84766 127.039 7.82031 127.285 8.07031C127.254 8.05469 127.199 8.07422 127.188 8.08203Z" fill="#007AC2"/>
<path d="M106.665 26.7573C107.391 26.7573 108 27.3295 108 28.0812C108 28.8497 107.391 29.4219 106.665 29.4219C105.936 29.4219 105.324 28.8497 105.324 28.0812C105.324 27.3295 105.936 26.7573 106.665 26.7573ZM106.665 29.2256C107.282 29.2256 107.759 28.7347 107.759 28.0812C107.759 27.4445 107.282 26.9537 106.665 26.9537C106.042 26.9537 105.565 27.4445 105.565 28.0812C105.565 28.7347 106.042 29.2256 106.665 29.2256ZM106.146 27.3099H106.746C107.116 27.3099 107.29 27.4557 107.29 27.7558C107.29 28.0363 107.114 28.1513 106.881 28.1794L107.327 28.8665H107.066L106.642 28.1962H106.387V28.8665H106.146V27.3099ZM106.387 27.9999H106.64C106.853 27.9999 107.049 27.9886 107.049 27.7446C107.049 27.5371 106.872 27.5034 106.707 27.5034H106.387V27.9999Z" fill="#00468C"/>
<path d="M76.3407 26.7573C77.0671 26.7573 77.6758 27.3295 77.6758 28.0812C77.6758 28.8497 77.0671 29.4219 76.3407 29.4219C75.6114 29.4219 75 28.8497 75 28.0812C75 27.3295 75.6114 26.7573 76.3407 26.7573ZM76.3407 29.2256C76.9578 29.2256 77.4346 28.7347 77.4346 28.0812C77.4346 27.4445 76.9578 26.9537 76.3407 26.9537C75.718 26.9537 75.2412 27.4445 75.2412 28.0812C75.2412 28.7347 75.718 29.2256 76.3407 29.2256ZM75.8218 27.3099H76.422C76.7923 27.3099 76.9662 27.4557 76.9662 27.7558C76.9662 28.0363 76.7895 28.1513 76.5567 28.1794L77.0026 28.8665H76.7418L76.3183 28.1962H76.063V28.8665H75.8218V27.3099ZM76.063 27.9999H76.3155C76.5286 27.9999 76.725 27.9886 76.725 27.7446C76.725 27.5371 76.5483 27.5034 76.3828 27.5034H76.063V27.9999Z" fill="#00468C"/>
<path d="M134.341 26.7573C135.067 26.7573 135.676 27.3295 135.676 28.0812C135.676 28.8497 135.067 29.4219 134.341 29.4219C133.611 29.4219 133 28.8497 133 28.0812C133 27.3295 133.611 26.7573 134.341 26.7573ZM134.341 29.2256C134.958 29.2256 135.435 28.7347 135.435 28.0812C135.435 27.4445 134.958 26.9537 134.341 26.9537C133.718 26.9537 133.241 27.4445 133.241 28.0812C133.241 28.7347 133.718 29.2256 134.341 29.2256ZM133.822 27.3099H134.422C134.792 27.3099 134.966 27.4557 134.966 27.7558C134.966 28.0363 134.789 28.1513 134.557 28.1794L135.003 28.8665H134.742L134.318 28.1962H134.063V28.8665H133.822V27.3099ZM134.063 27.9999H134.315C134.529 27.9999 134.725 27.9886 134.725 27.7446C134.725 27.5371 134.548 27.5034 134.383 27.5034H134.063V27.9999Z" fill="#00468C"/>
<path d="M0.00390625 0.210938C25.4258 2.47266 49.7773 8.71484 71.6836 18.1719V0H0L0.00390625 0.210938Z" fill="#00468C"/>
<path d="M29.9531 23.8438V28.3945H31.5625V29.0391H25.7461V28.3945H27.1562V19.0508H25.7461V18.3984H27.1406C27.9219 18.3984 28.5469 18.3555 29.8516 18.2266V20.1484C30.5312 18.5664 31.4883 18.1172 32.5039 18.1172C33.5586 18.1172 34.4375 18.9648 34.4375 20.1328C34.4375 21.2344 33.8672 21.7656 33.1875 21.7656C32.6211 21.7656 32.1484 21.5 31.9531 21C31.7734 20.5312 31.9883 20.0312 31.9219 19.6641C31.8594 19.3086 31.6836 19.1719 31.4727 19.1719C30.7852 19.1719 29.9531 20.5312 29.9531 23.8438Z" fill="#00468C"/>
<path d="M68.9297 21.332V28.3945H67.5195V29.0391H73.1523V28.3945L71.7266 28.3906V21.7344C71.7266 19.0391 70.1992 18.1484 68.3633 18.1484C66.7422 18.1484 65.7383 18.9258 65.2344 19.8477V18.2266C63.8164 18.3555 63.1875 18.3984 62.4102 18.3984H61.0117V19.0508H62.4258V28.3945H61.0117V29.0391H66.6445V28.3945H65.2188V23.8438L65.2344 22.3828C65.2344 20.1523 66.3047 19.1836 67.4062 19.1836C68.3359 19.1836 68.9297 19.7695 68.9297 21.332Z" fill="#00468C"/>
<path d="M39.0898 28.3945V18.2266C37.8906 18.3477 37.0195 18.3984 36.2812 18.3984H34.9844V19.0508H36.2969V28.3945H34.8867V29.0391H40.5547V28.3945H39.0898Z" fill="#00468C"/>
<path d="M49.0469 24.8945V25.332C49.0469 27.418 47.3516 28.3945 45.6875 28.3945H44.4531L49.9258 18.3984H41.6016V22.0352H42.3359V21.8711C42.3359 20.3477 43.0977 19.0508 45.2695 19.0508H46.4883L41.0117 29.0391H49.6719V24.8945H49.0469Z" fill="#00468C"/>
<path d="M15.5859 14.1602V13.5078H8.74219V14.1602H10.6484V20.7969H4.9375V14.1602H6.84375V13.5078H0V14.1602H1.90625V28.3945H0V29.0391H6.84375V28.3945H4.9375V21.4492H10.6484V28.3945H8.74219V29.0391H15.5859V28.3945H13.6797V14.1602H15.5859Z" fill="#00468C"/>
<path d="M37.6055 16.6953C38.5703 16.6953 39.3477 15.918 39.3477 14.957C39.3477 13.9961 38.5703 13.2148 37.6055 13.2148C36.6445 13.2148 35.8672 13.9961 35.8672 14.957C35.8672 15.918 36.6445 16.6953 37.6055 16.6953Z" fill="#00468C"/>
<path d="M18.3906 24.9336V22.4844C18.3906 19.8008 19.125 18.7852 20.4336 18.7852C21.7422 18.7852 22.4766 19.8008 22.4766 22.4844V24.9336C22.4766 27.6133 21.7422 28.6328 20.4336 28.6328C19.125 28.6328 18.3906 27.6133 18.3906 24.9336ZM20.4336 29.2734C23.8594 29.2734 25.582 26.7617 25.582 23.707C25.582 20.8516 23.7734 18.1445 20.4336 18.1445C17.0937 18.1445 15.2852 20.8516 15.2852 23.707C15.2852 26.7617 17.0078 29.2734 20.4336 29.2734Z" fill="#00468C"/>
<path d="M53.5586 24.9336V22.4844C53.5586 19.8008 54.293 18.7852 55.6016 18.7852C56.9102 18.7852 57.6445 19.8008 57.6445 22.4844V24.9336C57.6445 27.6133 56.9102 28.6328 55.6016 28.6328C54.293 28.6328 53.5586 27.6133 53.5586 24.9336ZM55.6016 29.2734C59.0273 29.2734 60.75 26.7617 60.75 23.707C60.75 20.8516 58.9414 18.1445 55.6016 18.1445C52.2617 18.1445 50.4531 20.8516 50.4531 23.707C50.4531 26.7617 52.1758 29.2734 55.6016 29.2734Z" fill="#00468C"/>
</svg>
