<?xml version="1.0" encoding="utf-8"?>
<!-- Generator: Adobe Illustrator 25.2.1, SVG Export Plug-In . SVG Version: 6.00 Build 0)  -->
<svg version="1.1" id="Layer_1" xmlns="http://www.w3.org/2000/svg" xmlns:xlink="http://www.w3.org/1999/xlink" x="0px" y="0px"
	 viewBox="0 0 282 60" style="enable-background:new 0 0 282 60;" xml:space="preserve">
<style type="text/css">
	.st0{fill-rule:evenodd;clip-rule:evenodd;fill:#0093D0;}
	.st1{fill:#FFFFFF;}
</style>
<desc>Created with Sketch.</desc>
<path id="Shape" class="st0" d="M276.3,49c-0.8,0-1.6-0.6-1.6-1.6c0-0.9,0.7-1.6,1.6-1.6c0.8,0,1.6,0.6,1.6,1.6
	C277.9,48.4,277.1,49,276.3,49L276.3,49z M275.1,47.4c0,0.7,0.5,1.3,1.3,1.3c0.7,0,1.2-0.5,1.2-1.3c0-0.7-0.5-1.3-1.2-1.3
	C275.6,46.2,275.1,46.7,275.1,47.4L275.1,47.4z M276,47.6v0.8h-0.2v-1.8h0.7c0.4,0,0.6,0.1,0.6,0.5c0,0.3-0.2,0.4-0.4,0.5l0.5,0.8
	h-0.3l-0.5-0.8L276,47.6L276,47.6z M276,47.3h0.3c0.2,0,0.4,0,0.4-0.3c0-0.2-0.2-0.2-0.4-0.2H276L276,47.3L276,47.3z M271.6,48.9
	v-9.7h9.7V23.7h-9.7V14h-15.5v9.7h-9.7v15.5h9.7V49L271.6,48.9L271.6,48.9z M4,16h5.5v25.6H4V16z M13.4,22h5.1l0.2,2.3
	c1.4-1.5,3.5-2.7,6-2.7c4.4,0,6.3,2.7,6.3,7.1v13h-5.4V28.5c0-1.8-0.7-3-2.6-3c-1.7,0-3.1,0.8-4.2,2.3v13.8h-5.3V22L13.4,22z
	 M33.6,31.5c0-6.6,3.1-10,7.6-10c2.1,0,4.2,1,5.6,2.6V14h5.4v27.6h-4.8l-0.3-2.3c-1.6,1.6-3.5,2.7-6,2.7
	C36.7,42,33.6,38.5,33.6,31.5z M46.9,36v-8.3c-1.2-1.3-2.5-2-4.1-2c-2.6,0-3.8,2.1-3.8,6c0,3.8,1.3,6.4,3.8,6.4
	C44.4,38,45.7,37.4,46.9,36z M64.8,21.5c5.6,0,8.8,3.7,8.8,8.9c0,0.8-0.1,1.8-0.2,2.4H60.4c0.3,3.4,1.8,5,4.8,5c2,0,3.8-0.7,5.4-1.7
	l2.2,3.4c-2.4,1.7-5.2,2.6-8.1,2.6c-5.8,0-9.9-3.8-9.9-10.5C54.9,25.4,59.3,21.5,64.8,21.5z M60.5,29.8h7.9c0-2.5-1-4.4-3.5-4.4
	C62.7,25.4,61,26.9,60.5,29.8z M81.6,49h-5.3V22h4.8l0.4,2.4c1.5-1.7,3.5-2.8,5.7-2.8c4.5,0,7.6,3.4,7.6,10c0,6.9-3.1,10.5-7.5,10.5
	c-2.4,0-4.3-1.1-5.8-2.5V49z M85.7,38c2.6,0,3.9-2.5,3.9-6.4c0-3.9-1.3-6-3.9-6c-1.6,0-2.9,0.7-4.1,2V36C82.8,37.4,84.1,38,85.7,38z
	 M106.5,21.5c5.6,0,8.8,3.7,8.8,8.9c0,0.8-0.1,1.8-0.2,2.4h-12.9c0.3,3.4,1.8,5,4.8,5c2,0,3.8-0.7,5.4-1.7l2.2,3.4
	c-2.4,1.7-5.2,2.6-8.1,2.6c-5.8,0-9.9-3.8-9.9-10.5C96.7,25.4,101.1,21.5,106.5,21.5z M102.2,29.8h7.9c0-2.5-1-4.4-3.5-4.4
	C104.5,25.4,102.8,26.9,102.2,29.8z M118,22h5.1l0.2,2.3c1.4-1.5,3.5-2.7,6-2.7c4.4,0,6.3,2.7,6.3,7.1v13h-5.4V28.5
	c0-1.8-0.7-3-2.6-3c-1.7,0-3.1,0.8-4.2,2.3v13.8H118V22L118,22z M138.2,31.5c0-6.6,3.1-10,7.6-10c2.1,0,4.2,1,5.6,2.6V14h5.4v27.6
	h-4.8l-0.3-2.3c-1.6,1.6-3.5,2.7-6,2.7C141.3,42,138.2,38.5,138.2,31.5z M151.5,36v-8.3c-1.2-1.3-2.5-2-4.1-2c-2.6,0-3.8,2.1-3.8,6
	c0,3.8,1.3,6.4,3.8,6.4C149.1,38,150.3,37.4,151.5,36z M169.4,21.5c5.6,0,8.8,3.7,8.8,8.9c0,0.8,0,1.8-0.2,2.4H165
	c0.3,3.4,1.8,5,4.8,5c2,0,3.8-0.7,5.4-1.7l2.2,3.4c-2.4,1.7-5.2,2.6-8.1,2.6c-5.8,0-9.9-3.8-9.9-10.5
	C159.5,25.4,163.9,21.5,169.4,21.5z M165.1,29.8h7.9c0-2.5-1-4.4-3.5-4.4C167.3,25.4,165.6,26.9,165.1,29.8z M180.8,22h5.1l0.2,2.3
	c1.4-1.5,3.5-2.7,6-2.7c4.4,0,6.3,2.7,6.3,7.1v13H193V28.5c0-1.8-0.7-3-2.6-3c-1.7,0-3.1,0.8-4.2,2.3v13.8h-5.3V22L180.8,22z
	 M210.9,21.5c2.4,0,4.8,0.7,7,2.4l-2.7,3.5c-1.1-0.9-2.4-1.6-4.1-1.6c-2.6,0-4.7,2-4.7,5.8c0,3.9,2.1,6.1,4.7,6.1
	c1.8,0,2.9-0.6,4.1-1.6l2.9,3.1c-2.1,1.9-4.4,2.8-7.2,2.8c-5.7,0-10-3.8-10-10.4C200.9,25.4,205.2,21.5,210.9,21.5z M228,21.5
	c5.6,0,8.8,3.7,8.8,8.9c0,0.8,0,1.8-0.2,2.4h-12.9c0.3,3.4,1.8,5,4.8,5c2,0,3.8-0.7,5.4-1.7l2.2,3.4c-2.4,1.7-5.2,2.6-8.1,2.6
	c-5.8,0-9.9-3.8-9.9-10.5C218.2,25.4,222.6,21.5,228,21.5z M223.8,29.8h7.9c0-2.5-1-4.4-3.5-4.4C226,25.4,224.3,26.9,223.8,29.8z"/>
<path id="Shape_1_" class="st1" d="M254.9,28.1l6.4,0.6c1.2,0.1,1.4,1.4,1,2l-4.4,8.3l0,0c-2.2-1.8-3.6-4.5-3.6-7.5
	C254.3,30.3,254.5,29.2,254.9,28.1L254.9,28.1z M255.6,31.5c0,2,0.7,3.9,2,5.4l3.4-6.5c0.1-0.2,0-0.3-0.3-0.4l-4.9-0.4
	C255.7,30.1,255.6,30.8,255.6,31.5z M272.8,28.1c0.4,1.1,0.6,2.2,0.6,3.4c0,3.1-1.4,5.8-3.6,7.5l0,0l-4.4-8.3c-0.3-0.7-0.2-1.9,1-2
	L272.8,28.1L272.8,28.1z M271.9,29.5l-4.9,0.4c-0.3,0-0.4,0.2-0.3,0.4l3.4,6.5c1.3-1.5,2-3.3,2-5.4C272.1,30.8,272,30.1,271.9,29.5z
	 M263.9,41.1c-1.9,0-3.7-0.6-5.2-1.6l0,0l4.7-7c0.3-0.5,0.9-0.4,1.2,0l4.7,7l0,0C267.6,40.5,265.8,41.1,263.9,41.1L263.9,41.1z
	 M264,34.1c-0.1-0.1-0.2-0.1-0.3,0l-3.2,4.9c1,0.4,2.1,0.7,3.4,0.7s2.3-0.2,3.4-0.7L264,34.1c-0.1-0.1-0.2-0.1-0.3,0H264z
	 M270.1,26.1h-4.3c-0.1,0-0.1-0.1,0-0.2c0.4-0.5,0.9-1.6,0.4-2.4C267.7,24,269.1,24.9,270.1,26.1z M263.9,21.9
	c-3.8,0-7.1,2.3-8.7,5.5h6.8c1,0,1.4-0.6,1.4-1.1c0-0.5,0-0.7-0.5-1.3c-0.5-0.6-0.1-1.9,1-1.9c1.1,0,1.5,1.3,1,1.9
	c-0.4,0.6-0.5,0.8-0.5,1.3c0,0.5,0.4,1,1.4,1.1h6.8C271,24.2,267.7,21.9,263.9,21.9z M261.5,23.6c-0.5,0.8-0.1,1.8,0.4,2.4
	c0.1,0.1,0,0.2,0,0.2h-4.3C258.6,24.9,260,24,261.5,23.6z"/>
</svg>
