<?xml version="1.0" encoding="UTF-8"?>
<svg width="976px" height="708px" viewBox="0 0 976 708" version="1.1" xmlns="http://www.w3.org/2000/svg" xmlns:xlink="http://www.w3.org/1999/xlink">
    <!-- Generator: Sketch 61.2 (89653) - https://sketch.com -->
    <title>What We Do Background</title>
    <desc>Created with Sketch.</desc>
    <g id="Page-1" stroke="none" stroke-width="1" fill="none" fill-rule="evenodd">
        <g id="Landing-Page" transform="translate(-406.000000, -1124.000000)">
            <g id="What-We-Do-Background" transform="translate(382.000000, 1103.000000)">
                <path d="M29.4103464,332.494189 C34.8728236,419.391557 93.2397066,478.749259 114.43663,500.316769 C169.563699,556.399824 256.41478,576.048234 356.028812,640.173102 C455.642843,704.297969 321.910305,617.953171 456.588622,704.41141 C591.26694,790.869649 722.640487,652.829591 778.470771,661.524347 C806.687291,665.903091 851.931671,672.326922 899.787995,649.078175 C909.093042,644.573965 953.810011,621.78944 978.585798,571.389971 C991.695744,544.74111 990.779052,527.527251 988.958226,424.281735 C986.660219,294.261894 887.35832,438.111001 889.995378,415.364116 C895.43274,368.615691 906.772089,314.414618 909.697968,300.375035 C920.673152,247.842653 928.308063,224.656639 925.25661,186.427317 C923.059062,158.887652 920.936858,132.376803 902.43978,109.76793 C870.179771,70.3215938 811.260361,71.1622122 792.53725,71.4382362 C761.696229,71.8773653 754.525943,79.1292681 634.929085,115.978469 C590.475822,129.679296 577.25286,133.054317 558.203256,130.482275 C518.584599,125.1249 509.028403,101.449571 468.003316,76.6074126 C385.388057,26.621979 292.01109,42.6313699 272.032237,46.5709849 C261.810498,48.5909786 225.130277,56.4451155 183.904271,80.7603188 C113.293905,122.4023 22.1270435,216.639397 29.4103464,332.494189 Z" id="What-We-Do-BG-Alt" fill="#F4F3F0" transform="translate(509.500000, 387.000000) rotate(-5.000000) translate(-509.500000, -387.000000) "></path>
                <path d="M29.4103464,312.494189 C34.8728236,399.391557 93.2397066,458.749259 114.43663,480.316769 C169.563699,536.399824 256.41478,556.048234 356.028812,620.173102 C455.642843,684.297969 321.910305,597.953171 456.588622,684.41141 C591.26694,770.869649 722.640487,632.829591 778.470771,641.524347 C806.687291,645.903091 851.931671,652.326922 899.787995,629.078175 C909.093042,624.573965 953.810011,601.78944 978.585798,551.389971 C991.695744,524.74111 990.779052,507.527251 988.958226,404.281735 C986.660219,274.261894 887.35832,418.111001 889.995378,395.364116 C895.43274,348.615691 906.772089,294.414618 909.697968,280.375035 C920.673152,227.842653 928.308063,204.656639 925.25661,166.427317 C923.059062,138.887652 920.936858,112.376803 902.43978,89.7679299 C870.179771,50.3215938 811.260361,51.1622122 792.53725,51.4382362 C761.696229,51.8773653 754.525943,59.1292681 634.929085,95.9784695 C590.475822,109.679296 577.25286,113.054317 558.203256,110.482275 C518.584599,105.1249 509.028403,81.4495708 468.003316,56.6074126 C385.388057,6.62197902 292.01109,22.6313699 272.032237,26.5709849 C261.810498,28.5909786 225.130277,36.4451155 183.904271,60.7603188 C113.293905,102.4023 22.1270435,196.639397 29.4103464,312.494189 Z" id="What-We-Do-BG" fill="#D4E2D2"></path>
            </g>
        </g>
    </g>
</svg>