<?xml version="1.0" encoding="UTF-8"?>
<svg width="1079px" height="664px" viewBox="0 0 1079 664" version="1.1" xmlns="http://www.w3.org/2000/svg" xmlns:xlink="http://www.w3.org/1999/xlink">
    <!-- Generator: Sketch 61.2 (89653) - https://sketch.com -->
    <title>Group 112</title>
    <desc>Created with Sketch.</desc>
    <g id="Page-1" stroke="none" stroke-width="1" fill="none" fill-rule="evenodd">
        <g id="Landing-Page" transform="translate(-69.000000, -1940.000000)">
            <g id="How-We-Do-It" transform="translate(69.000000, 1882.000000)">
                <g id="Group-112" transform="translate(539.500000, 390.000000) scale(-1, 1) translate(-539.500000, -390.000000) translate(0.000000, 58.000000)">
                    <path d="M131.85036,624.82188 L925.34676,624.82188 C1066.14636,542.93508 1040.74836,375.33948 1001.72436,347.15028 C948.37236,308.60748 876.02916,453.69108 823.82916,427.19508 C674.70636,351.47508 984.78756,138.21828 859.82916,88.80588 C778.51956,56.65428 722.04516,302.65428 622.90476,216.74628 C571.32396,172.04988 618.17436,106.97388 608.29716,54.17388 C592.63716,-29.60892 452.62716,-11.74572 386.72316,117.89508 C340.71276,208.40148 244.97076,167.57988 189.08556,148.18788 C137.19876,130.18788 -7.71444,216.40908 166.04916,373.45788 C223.80276,425.65668 -36.64764,456.32508 131.85036,624.82188" id="Fill-1" fill="#D4E2D2"></path>
                    <path d="M339.14916,12.91272 C338.55156,7.51152 336.97476,3.82992 333.23436,1.80072 C322.14396,-4.21368 294.31116,5.54472 282.73836,20.59992 C266.59956,41.59512 281.31876,73.87992 296.99676,75.94152 C315.23676,78.34032 342.23436,40.80192 339.14916,12.91272" id="Fill-3" fill="#D4E2D2"></path>
                    <path d="M548.60892,644.02884 L292.83732,644.02884 L548.60892,644.02884 Z" id="Fill-5" fill="#659F7A"></path>
                    <polygon id="Fill-7" fill="#659F7A" points="292.8372 645.2292 548.6088 645.2292 548.6088 642.8292 292.8372 642.8292"></polygon>
                    <path d="M355.78632,662.316 L195.41952,662.316 L355.78632,662.316 Z" id="Fill-9" fill="#659F7A"></path>
                    <polygon id="Fill-10" fill="#659F7A" points="195.42 663.516 355.7868 663.516 355.7868 661.116 195.42 661.116"></polygon>
                    <path d="M634.72416,662.316 L423.12216,662.316 L634.72416,662.316 Z" id="Fill-11" fill="#659F7A"></path>
                    <polygon id="Fill-12" fill="#659F7A" points="423.1224 663.516 634.7244 663.516 634.7244 661.116 423.1224 661.116"></polygon>
                    <path d="M220.75284,644.30892 L144.14964,644.30892 L220.75284,644.30892 Z" id="Fill-13" fill="#659F7A"></path>
                    <polygon id="Fill-14" fill="#659F7A" points="144.15 645.5088 220.7532 645.5088 220.7532 643.1088 144.15 643.1088"></polygon>
                    <path d="M743.94876,644.02884 L588.84996,644.02884 L743.94876,644.02884 Z" id="Fill-15" fill="#659F7A"></path>
                    <polygon id="Fill-16" fill="#659F7A" points="588.8496 645.2292 743.9484 645.2292 743.9484 642.8292 588.8496 642.8292"></polygon>
                    <path d="M458.112,529.29768 C449.7732,529.29768 442.9884,536.08128 442.9884,544.42128 C442.9884,552.76008 449.7732,559.54368 458.112,559.54368 C466.4508,559.54368 473.2356,552.76008 473.2356,544.42128 C473.2356,536.08128 466.4508,529.29768 458.112,529.29768 M458.112,561.94368 C448.4496,561.94368 440.5884,554.08248 440.5884,544.42128 C440.5884,534.75888 448.4496,526.89768 458.112,526.89768 C467.7744,526.89768 475.6356,534.75888 475.6356,544.42128 C475.6356,554.08248 467.7744,561.94368 458.112,561.94368" id="Fill-17" fill="#4B5B47"></path>
                    <polygon id="Fill-18" fill="#659F7A" points="400.512 623.6208 515.7132 623.6208 515.7132 544.4208 400.512 544.4208"></polygon>
                    <polygon id="Fill-19" fill="#4B5B47" points="503.7132 623.6208 515.7132 623.6208 515.7132 544.4208 503.7132 544.4208"></polygon>
                    <polygon id="Fill-20" fill="#4B5B47" points="400.512 585.2196 503.7132 585.2196 503.7132 582.8196 400.512 582.8196"></polygon>
                    <polygon id="Fill-21" fill="#FFFFFF" points="443.712 593.6208 460.512 593.6208 460.512 582.8196 443.712 582.8196"></polygon>
                    <polygon id="Fill-22" fill="#F4F3F0" points="228.474 478.2636 468.474 478.2636 468.474 94.2636 228.474 94.2636"></polygon>
                    <polygon id="Fill-23" fill="#4B5B47" points="347.274 623.6208 349.674 623.6208 349.674 478.2636 347.274 478.2636"></polygon>
                    <polygon id="Fill-24" fill="#4B5B47" points="428.3124 624.46908 348.474 544.63188 268.638 624.46908 266.94 622.77228 348.474 541.23828 430.0092 622.77228"></polygon>
                    <polygon id="Fill-25" fill="#EEEAE3" points="468.47436 440.87268 468.47436 478.26348 228.47436 478.26348"></polygon>
                    <path d="M307.37436,134.05932 L307.37436,188.95932 L259.82316,216.40932 C255.14556,208.34292 252.47436,198.95772 252.47436,188.95932 C252.47436,178.96092 255.14556,169.57572 259.82316,161.50932 C269.31396,145.09212 287.04996,134.05932 307.37436,134.05932" id="Fill-26" fill="#659F7A"></path>
                    <path d="M354.92616,216.40932 C345.43416,232.82652 327.69816,243.85932 307.37496,243.85932 C287.05056,243.85932 269.31456,232.82652 259.82256,216.40932 L307.37496,188.95932 L354.92616,216.40932 Z" id="Fill-27" fill="#77A6A0"></path>
                    <path d="M362.27436,188.95932 C362.27436,198.95772 359.60316,208.34292 354.92556,216.40932 L307.37436,188.95932 L307.37436,134.05932 C327.69876,134.05932 345.43476,145.09212 354.92556,161.50932 C359.60316,169.57572 362.27436,178.96092 362.27436,188.95932" id="Fill-28" fill="#4B5B47"></path>
                    <polygon id="Fill-29" fill="#4B5B47" points="255.6228 273.0648 314.574 273.0648 314.574 270.6648 255.6228 270.6648"></polygon>
                    <polygon id="Fill-30" fill="#4B5B47" points="255.6228 280.2648 314.574 280.2648 314.574 277.8648 255.6228 277.8648"></polygon>
                    <polygon id="Fill-31" fill="#4B5B47" points="255.6228 287.4648 314.574 287.4648 314.574 285.0648 255.6228 285.0648"></polygon>
                    <polygon id="Fill-32" fill="#4B5B47" points="255.6228 294.6648 295.2228 294.6648 295.2228 292.2648 255.6228 292.2648"></polygon>
                    <polygon id="Fill-33" fill="#4B5B47" points="255.6228 301.8648 295.2228 301.8648 295.2228 299.4648 255.6228 299.4648"></polygon>
                    <polygon id="Fill-34" fill="#4B5B47" points="386.7228 147.6348 445.674 147.6348 445.674 145.2348 386.7228 145.2348"></polygon>
                    <polygon id="Fill-35" fill="#4B5B47" points="386.7228 154.8348 445.674 154.8348 445.674 152.4348 386.7228 152.4348"></polygon>
                    <polygon id="Fill-36" fill="#4B5B47" points="386.7228 162.0348 445.674 162.0348 445.674 159.6348 386.7228 159.6348"></polygon>
                    <polygon id="Fill-37" fill="#4B5B47" points="386.7228 169.2348 426.3228 169.2348 426.3228 166.8348 386.7228 166.8348"></polygon>
                    <polygon id="Fill-38" fill="#4B5B47" points="386.7228 176.4348 426.3228 176.4348 426.3228 174.0348 386.7228 174.0348"></polygon>
                    <polygon id="Fill-39" fill="#659F7A" points="353.2752 292.2636 445.6752 292.2636 445.6752 270.6636 353.2752 270.6636"></polygon>
                    <polygon id="Fill-41" fill="#77A6A0" points="353.2752 325.8648 445.6752 325.8648 445.6752 304.2648 353.2752 304.2648"></polygon>
                    <polygon id="Fill-42" fill="#4B5B47" points="353.2752 359.4648 445.6752 359.4648 445.6752 337.8648 353.2752 337.8648"></polygon>
                    <polygon id="Fill-43" fill="#659F7A" points="0 626.0196 1078.0716 626.0196 1078.0716 623.6196 0 623.6196"></polygon>
                    <path d="M773.70744,230.88792 C770.17944,247.24032 764.26584,262.98552 759.54384,279.03312 C754.68384,295.55232 749.78184,312.35712 749.84064,329.57592 C749.91864,351.97272 758.80584,374.22192 774.18264,390.50712 C780.20664,396.88872 787.24104,402.46512 791.88264,409.91352 C796.52304,417.36312 798.23304,427.59312 793.05144,434.67432 C785.57424,444.89232 769.57944,442.67832 758.64384,449.06112 C744.87744,457.09752 742.96464,477.58032 750.81384,491.45472 C758.66304,505.32912 794.40504,545.02512 845.40504,535.19592 C868.23144,530.79552 899.17224,509.07192 898.28904,485.84232 C897.37104,461.65392 874.27224,442.06272 875.05824,417.86712 C875.57424,402.01872 886.23024,388.62312 895.45224,375.72312 C904.67664,362.82432 913.27104,347.10912 909.02424,331.83072 C902.77224,309.33912 873.80664,302.39232 859.78104,283.73232 C850.74744,271.71672 848.75904,255.91152 848.19744,240.88872 C847.63584,225.86712 848.01984,210.47232 843.00864,196.30032 C830.85504,161.92512 787.70544,166.02552 773.70744,230.88792" id="Fill-44" fill="#659F7A"></path>
                    <polygon id="Fill-45" fill="#3F5439" points="826.11 578.0256 828.51 578.0256 828.51 317.3256 826.11 317.3256"></polygon>
                    <path d="M828.49368,392.65464 L826.12488,392.26464 C830.00688,368.67984 856.82808,354.01344 857.96808,353.40024 L859.10448,355.51464 C858.83568,355.65864 832.18128,370.24584 828.49368,392.65464" id="Fill-46" fill="#3F5439"></path>
                    <path d="M826.12536,495.318 C823.50096,479.3676 804.50136,468.9852 804.31056,468.882 L805.44816,466.7676 C806.27136,467.2116 825.67896,477.8244 828.49416,494.928 L826.12536,495.318 Z" id="Fill-47" fill="#3F5439"></path>
                    <path d="M840.60852,623.6184 L813.60132,623.6184 C797.20092,623.6184 783.90492,610.3224 783.90492,593.922 L783.90492,569.0256 L870.30492,569.0256 L870.30492,593.922 C870.30492,610.3224 857.00892,623.6184 840.60852,623.6184" id="Fill-48" fill="#F16034"></path>
                    <path d="M799.24488,621.28632 C789.04248,615.92352 782.70528,605.43792 782.70528,593.92152 L782.70528,584.76552 L785.10528,584.76552 L785.10528,593.92152 C785.10528,604.54392 790.95048,614.21472 800.36208,619.16112 L799.24488,621.28632 Z" id="Fill-49" fill="#4B5B47"></path>
                    <polygon id="Fill-50" fill="#FFFFFF" points="783.9048 579.2256 870.3048 579.2256 870.3048 576.8256 783.9048 576.8256"></polygon>
                    <polygon id="Fill-51" fill="#4B5B47" points="815.268 570.2256 870.3048 570.2256 870.3048 567.8256 815.268 567.8256"></polygon>
                    <path d="M828.17376,624.82068 L883.51896,624.82068 L828.17376,624.82068 Z" id="Fill-52" fill="#F8F7FF"></path>
                    <polygon id="Fill-53" fill="#4B5B47" points="828.174 626.0196 883.5192 626.0196 883.5192 623.6196 828.174 623.6196"></polygon>
                    <polygon id="Fill-54" fill="#FFFFFF" points="260.42256 217.44876 259.22256 215.37036 306.17376 188.26716 306.17376 133.90356 308.57376 133.90356 308.57376 189.65196"></polygon>
                    <polygon id="Fill-55" fill="#FFFFFF" points="354.32616 217.44876 306.77376 189.99876 307.97376 187.92036 355.52616 215.37036"></polygon>
                    <polygon id="Fill-56" fill="#4B5B47" points="471.1248 626.022 539.0352 626.022 539.0352 623.622 471.1248 623.622"></polygon>
                    <polygon id="Fill-57" fill="#4B5B47" points="557.6868 626.022 694.6872 626.022 694.6872 623.622 557.6868 623.622"></polygon>
                    <polygon id="Fill-58" fill="#4B5B47" points="704.3436 626.0196 715.3692 626.0196 715.3692 623.6196 704.3436 623.6196"></polygon>
                    <polygon id="Fill-59" fill="#40327A" points="910.1412 626.0196 921.168 626.0196 921.168 623.6196 910.1412 623.6196"></polygon>
                    <polygon id="Fill-60" fill="#FFFFFF" points="227.274 478.2636 229.674 478.2636 229.674 94.2636 227.274 94.2636"></polygon>
                    <polygon id="Fill-61" fill="#7E8E7B" points="469.67436 479.4636 286.72236 479.4636 286.72236 477.0636 467.27436 477.0636 467.27436 348.6648 469.67436 348.6648"></polygon>
                    <polygon id="Fill-62" fill="#7E8E7B" points="467.274 337.866 469.674 337.866 469.674 329.8548 467.274 329.8548"></polygon>
                    <path d="M657.34488,277.07328 C653.88528,272.21208 650.42688,267.46728 650.42688,260.43168 C650.42688,243.09768 658.15608,242.42808 657.46128,225.09408 C656.76768,207.75888 643.90728,208.44048 643.21248,191.10528 C643.12248,188.86848 643.32768,186.90048 643.75248,185.15088 C645.10248,182.87568 646.24728,180.47088 647.17248,177.96288 C647.34048,177.52608 647.49528,177.07608 647.63568,176.63928 C649.12728,172.18848 649.92528,167.43048 649.92528,162.49368 C649.92528,137.86728 629.95368,117.89568 605.32728,117.89568 C580.68768,117.89568 560.71848,137.86728 560.71848,162.49368 C560.71848,167.43048 561.51528,172.18848 563.00688,176.63928 C563.14848,177.07608 563.30208,177.49968 563.45688,177.93768 L563.46888,177.94968 C564.39528,180.47088 565.55328,182.88888 566.90328,185.17728 C567.31488,186.92688 567.52008,188.88168 567.43008,191.10528 C566.73528,208.44048 553.88928,207.75888 553.19448,225.09408 C552.49968,242.42808 560.22888,243.09768 560.22888,260.43168 C560.22888,267.46728 556.76928,272.21208 553.29768,277.07328 C549.85008,281.94648 546.39168,286.93608 546.39168,294.42048 C546.39168,315.89568 563.79048,333.29568 585.26688,333.29568 L625.38888,333.29568 C646.86528,333.29568 664.25088,315.89568 664.25088,294.42048 C664.25088,286.93608 660.79128,281.94648 657.34488,277.07328" id="Fill-63" fill="#0D1D35"></path>
                    <path d="M573.7644,324.81132 C573.7644,340.22052 586.2564,352.71252 601.6656,352.71252 C617.0748,352.71252 629.5668,340.22052 629.5668,324.81132 C629.5668,309.40212 617.0748,296.91012 601.6656,296.91012 C586.2564,296.91012 573.7644,309.40212 573.7644,324.81132" id="Fill-64" fill="#F04F4F"></path>
                    <path d="M457.17216,255.81252 C457.07496,252.50052 459.68136,249.73692 462.99336,249.63972 C466.30536,249.54252 469.07016,252.14892 469.16736,255.46092 C469.26456,258.77292 466.65696,261.53772 463.34496,261.63492 C460.03296,261.73212 457.26936,259.12452 457.17216,255.81252" id="Fill-65" fill="#FF95A9"></path>
                    <path d="M569.70036,236.82456 C569.70036,245.44056 576.68436,252.42456 585.30036,252.42456 C593.91636,252.42456 600.90036,245.44056 600.90036,236.82456 C600.90036,228.20856 593.91636,221.22456 585.30036,221.22456 C576.68436,221.22456 569.70036,228.20856 569.70036,236.82456" id="Fill-66" fill="#FF9C35"></path>
                    <path d="M451.19736,245.63592 L451.19616,245.64432 C450.33216,245.37552 449.41416,245.23512 448.45896,245.26272 C443.82216,245.39952 440.17296,249.26832 440.30856,253.90632 C440.44536,258.54312 444.31416,262.19232 448.95096,262.05672 L463.34496,261.63432 L464.94936,249.90552 L451.19736,245.63592 Z" id="Fill-67" fill="#EBB889"></path>
                    <path d="M530.14188,280.4898 C527.53188,286.1802 530.02788,292.9098 535.71828,295.5198 C541.40868,298.1298 548.13828,295.6338 550.74828,289.9422 C553.35948,284.253 550.86228,277.5234 545.17188,274.9134 C539.48148,272.3022 532.75188,274.7994 530.14188,280.4898" id="Fill-68" fill="#FCB027"></path>
                    <polygon id="Fill-70" fill="#EBB889" points="543.79308 274.38492 464.94228 249.90372 460.66788 261.09012 535.71828 295.51932"></polygon>
                    <polygon id="Fill-69" fill="#FCB027" points="573.18192 226.98024 531.63912 278.07624 548.24472 293.44224 596.03352 248.12664"></polygon>
                    <path d="M600.17028,612.82068 C600.17028,617.12868 596.67828,620.62068 592.37028,620.62068 C588.06228,620.62068 584.57028,617.12868 584.57028,612.82068 C584.57028,608.51268 588.06228,605.02068 592.37028,605.02068 C596.67828,605.02068 600.17028,608.51268 600.17028,612.82068" id="Fill-71" fill="#FF95A9"></path>
                    <path d="M569.72616,237.54588 L573.76416,324.81108 L629.56656,324.81108 L652.62696,233.16708 C654.15216,227.10468 649.56816,221.22468 643.31616,221.22468 L585.30816,221.22468 C576.41016,221.22468 569.31456,228.65628 569.72616,237.54588" id="Fill-72" fill="#FCB027"></path>
                    <path d="M596.61948,226.07268 C602.54748,232.32468 602.28588,242.19828 596.03388,248.12628 C589.78188,254.05548 579.90828,253.79268 573.98028,247.54068 C568.05108,241.28988 568.31388,231.41508 574.56588,225.48708 C580.81788,219.55908 590.69148,219.82188 596.61948,226.07268" id="Fill-75" fill="#FCB027"></path>
                    <path d="M573.7644,323.76172 L573.7644,323.76172 L598.4412,323.76172 L629.5668,323.76172 L632.574,326.136467 C642.7044,334.137668 648.6312,346.446832 648.6312,359.486594 L648.6312,371.685986 C648.6312,381.11545 641.1096,388.76172 631.8312,388.76172 L583.3692,388.76172 C574.0896,388.76172 566.5692,381.11545 566.5692,371.684767 L566.5692,354.98104 C566.5704,344.150146 569.0328,333.465616 573.7644,323.76172" id="Fill-76" fill="#F16034"></path>
                    <path d="M606.00732,248.40804 L581.13852,229.55244 L561.19692,255.84324 L561.21132,255.85404 C560.10252,257.31564 559.22172,258.98724 558.67092,260.85204 C556.23132,269.11524 560.94972,277.79124 569.21292,280.23204 C575.61132,282.12204 582.24492,279.70644 586.05132,274.68804 L586.06572,274.69884 L606.00732,248.40804 Z" id="Fill-77" fill="#FCB027"></path>
                    <path d="M633.35196,334.38792 C634.51116,337.49232 637.96716,339.06912 641.07156,337.91112 C644.17596,336.75192 645.75276,333.29592 644.59356,330.19152 C643.43556,327.08712 639.97956,325.51032 636.87516,326.66832 C633.77076,327.82752 632.19276,331.28352 633.35196,334.38792" id="Fill-81" fill="#FF95A9"></path>
                    <path d="M656.289,244.71072 C651.933,252.14472 642.3762,254.63952 634.9422,250.28472 C627.5094,245.92992 625.0134,236.37192 629.3682,228.93792 C633.723,221.50512 643.281,219.00912 650.7138,223.36392 C658.149,227.71992 660.6438,237.27672 656.289,244.71072" id="Fill-82" fill="#FCB027"></path>
                    <path d="M629.25852,347.44368 C630.15372,347.11008 630.95172,346.63248 631.65012,346.05888 L631.65372,346.06728 L642.78252,336.92688 L636.87492,326.66928 L623.38332,331.70328 C619.03692,333.32568 616.83012,338.16408 618.45132,342.51048 C620.07372,346.85808 624.91212,349.06608 629.25852,347.44368" id="Fill-83" fill="#EBB889"></path>
                    <path d="M690.01212,282.30972 C685.31052,278.17692 684.84852,271.01412 688.98252,266.31132 C693.11532,261.60972 700.27812,261.14892 704.98092,265.28172 C709.68252,269.41452 710.14332,276.57732 706.01052,281.28012 C701.87652,285.98172 694.71372,286.44252 690.01212,282.30972" id="Fill-84" fill="#FCB027"></path>
                    <polygon id="Fill-85" fill="#FCB027" points="652.40076 224.50464 704.45196 264.84384 691.76556 283.57704 634.94196 250.28424"></polygon>
                    <polygon id="Fill-87" fill="#EBB889" points="704.9664 282.32376 642.9276 336.80376 634.4664 328.32816 688.9824 266.31216"></polygon>
                    <polygon id="Fill-88" fill="#FCB027" points="651.611071 329 642 319.368064 689.791355 265 706 281.240585"></polygon>
                    <polygon id="Fill-89" fill="#FCB027" points="475.675571 253.21332 470.82012 265.955868 536.631565 296.21332 544.82012 274.726126"></polygon>
                    <path d="M600.17028,371.95824 C600.17028,381.23544 592.64868,388.75824 583.37028,388.75824 C574.09308,388.75824 566.57028,381.23544 566.57028,371.95824 C566.57028,362.67984 574.09308,355.15824 583.37028,355.15824 C592.64868,355.15824 600.17028,362.67984 600.17028,371.95824" id="Fill-90" fill="#F16034"></path>
                    <path d="M648.55932,370.39848 C649.41972,379.63728 642.62892,387.82368 633.39012,388.68528 C624.15132,389.54568 615.96492,382.75488 615.10332,373.51728 C614.24292,364.27728 621.03492,356.09088 630.27252,355.22928 C639.51132,354.37008 647.69772,361.16088 648.55932,370.39848" id="Fill-91" fill="#F16034"></path>
                    <path d="M584.57028,612.82068 L600.17028,612.82068 L600.17028,623.62068 L578.31348,623.62068 C576.46668,623.62068 574.97028,622.12308 574.97028,620.27508 C574.97028,619.07868 575.60868,617.97348 576.64668,617.37588 L584.57028,612.82068 Z" id="Fill-92" fill="#0D1D35"></path>
                    <path d="M653.02068,612.82068 C653.02068,617.12868 649.52868,620.62068 645.22068,620.62068 C640.91268,620.62068 637.42068,617.12868 637.42068,612.82068 C637.42068,608.51268 640.91268,605.02068 645.22068,605.02068 C649.52868,605.02068 653.02068,608.51268 653.02068,612.82068" id="Fill-93" fill="#FF95A9"></path>
                    <polygon id="Fill-94" fill="#EBB889" points="650.1918 457.4922 652.9854 611.8926 637.4538 613.3398 623.1654 460.011"></polygon>
                    <polygon id="Fill-95" fill="#F16034" points="615.10344 373.5168 623.16264 460.0104 650.20824 458.5152 648.62904 371.6628"></polygon>
                    <path d="M600.17028,458.82696 C600.17028,466.32216 594.09468,472.39896 586.59828,472.39896 C579.10188,472.39896 573.02628,466.32216 573.02628,458.82696 C573.02628,451.33176 579.10188,445.25376 586.59828,445.25376 C594.09468,445.25376 600.17028,451.33176 600.17028,458.82696" id="Fill-96" fill="#FF95A9"></path>
                    <polygon id="Fill-97" fill="#EBB889" points="600.16908 458.82696 600.16908 612.81936 584.56908 612.81936 573.02508 458.82696"></polygon>
                    <polygon id="Fill-98" fill="#F16034" points="600.16908 371.95824 600.17028 458.82744 573.06348 459.84864 566.61588 373.22304"></polygon>
                    <polygon id="Fill-99" fill="#F16034" points="573.0636 459.84876 650.2344 459.84876 648.5844 373.22316 566.616 373.22316"></polygon>
                    <polygon id="Fill-100" fill="#0D1D35" points="570.58632 426.55116 566.71152 374.51196 569.10552 374.33316 572.97912 426.37356"></polygon>
                    <polygon id="Fill-101" fill="#0D1D35" points="590.88552 459.84876 573.06432 459.84876 570.58632 426.55116 572.97912 426.37356 575.29272 457.44876 590.88552 457.44876"></polygon>
                    <polygon id="Fill-102" fill="#0D1D35" points="590.8848 459.8484 615.1044 459.8484 615.1044 457.4484 590.8848 457.4484"></polygon>
                    <polygon id="Fill-103" fill="#0D1D35" points="647.72736 454.27884 646.87296 409.42644 649.27296 409.38084 650.12736 454.23324"></polygon>
                    <polygon id="Fill-104" fill="#0D1D35" points="646.818 406.52616 646.734 402.07656 649.134 402.03096 649.218 406.48056"></polygon>
                    <path d="M619.63164,222.22656 C619.07004,229.49496 612.72324,234.93216 605.45484,234.37176 C598.18644,233.81016 592.74924,227.46336 593.30964,220.19496 C593.87124,212.92656 600.21804,207.48816 607.48644,208.04976 C614.75604,208.61016 620.19324,214.95816 619.63164,222.22656" id="Fill-105" fill="#EBB889"></path>
                    <polygon id="Fill-106" fill="#EBB889" points="593.31012 220.19448 619.63212 222.22608 622.13412 189.81528 595.81092 187.78368"></polygon>
                    <path d="M600.64488,133.19628 L602.69208,133.35468 C615.75768,134.36268 625.53168,145.77228 624.52368,158.83908 L621.08448,203.40468 L596.30208,201.49188 C583.85688,200.53188 574.54608,189.66348 575.50728,177.21828 L577.36608,153.13908 C578.28648,141.20388 588.70968,132.27468 600.64488,133.19628" id="Fill-107" fill="#EBB889"></path>
                    <path d="M624.23352,176.95236 L618.73152,176.52756 L619.57992,165.52476 L625.08192,165.94836 C628.12032,166.18236 630.39432,168.83676 630.15912,171.87516 C629.92512,174.91356 627.27072,177.18636 624.23352,176.95236" id="Fill-108" fill="#EBB889"></path>
                    <path d="M623.98164,165.86352 L625.08204,165.94872 L627.53604,134.16432 L579.11844,130.42752 L577.86084,146.71272 L578.96244,146.79792 C588.33204,147.52032 597.20964,151.28112 604.25004,157.50672 C609.74244,162.36552 616.67004,165.29952 623.98164,165.86352" id="Fill-109" fill="#0D1D35"></path>
                    <path d="M653.02068,612.82068 L637.42068,612.82068 L637.42068,623.62068 L659.27748,623.62068 C661.12428,623.62068 662.62188,622.12308 662.62188,620.27508 C662.62188,619.07868 661.98228,617.97348 660.94428,617.37588 L653.02068,612.82068 Z" id="Fill-110" fill="#0D1D35"></path>
                    <path d="M599.67684,183.70704 C599.36244,187.33824 596.16324,190.02864 592.53204,189.71424 C588.90084,189.39984 586.21044,186.20184 586.52484,182.56944 L599.67684,183.70704 Z" id="Fill-111" fill="#FFFFFF"></path>
                </g>
            </g>
        </g>
    </g>
</svg>