<?xml version="1.0" encoding="utf-8"?>
<!-- Generator: Adobe Illustrator 24.1.0, SVG Export Plug-In . SVG Version: 6.00 Build 0)  -->
<svg version="1.1" id="Layer_1" xmlns="http://www.w3.org/2000/svg" xmlns:xlink="http://www.w3.org/1999/xlink" x="0px" y="0px"
	 viewBox="0 0 1440 672" style="enable-background:new 0 0 1440 672;" xml:space="preserve">
<style type="text/css">
	.st0{fill:#F4F3F0;}
	.st1{filter:url(#Adobe_OpacityMaskFilter);}
	.st2{fill-rule:evenodd;clip-rule:evenodd;fill:#FFFFFF;}
	.st3{mask:url(#b_1_);}
	.st4{fill-rule:evenodd;clip-rule:evenodd;fill:#D4E2D2;}
	.st5{fill-rule:evenodd;clip-rule:evenodd;fill:#4B5B47;}
	.st6{fill-rule:evenodd;clip-rule:evenodd;fill:#B81F2D;}
	.st7{fill-rule:evenodd;clip-rule:evenodd;fill:#1B1B1B;}
	.st8{fill-rule:evenodd;clip-rule:evenodd;fill:#E7DCC8;}
	.st9{fill-rule:evenodd;clip-rule:evenodd;fill:#F16034;}
	.st10{fill-rule:evenodd;clip-rule:evenodd;fill:#659F7A;}
	.st11{fill-rule:evenodd;clip-rule:evenodd;fill:#3F5439;}
	.st12{fill-rule:evenodd;clip-rule:evenodd;fill:#40327A;}
	.st13{fill-rule:evenodd;clip-rule:evenodd;fill:#568D6A;}
	.st14{fill-rule:evenodd;clip-rule:evenodd;fill:#FCB027;}
	.st15{fill-rule:evenodd;clip-rule:evenodd;fill:#AB9AF7;}
	.st16{fill-rule:evenodd;clip-rule:evenodd;fill:#FF95A9;}
	.st17{fill-rule:evenodd;clip-rule:evenodd;fill:#D7A16F;}
	.st18{fill-rule:evenodd;clip-rule:evenodd;fill:#1D3559;}
	.st19{fill-rule:evenodd;clip-rule:evenodd;fill:#0D1D35;}
	.st20{fill-rule:evenodd;clip-rule:evenodd;fill:#F8F7FF;}
	.st21{fill-rule:evenodd;clip-rule:evenodd;fill:#DDD6FF;}
</style>
<g>
	<g>
		<path id="a_1_" class="st0" d="M0,494.4l34.3,32c34.3,32,102.7,96,171.7,112c68.3,16,137-16,205-16c69,0,138,32,206,37.3
			c68.7,5.7,137-16.3,206-16c68.4-0.3,137,21.7,206,26.7c68.1,5,137-5,205-21.3c68.9-15.7,137-37.7,172-48l34-10.7V0H0V494.4z"/>
	</g>
	<defs>
		<filter id="Adobe_OpacityMaskFilter" filterUnits="userSpaceOnUse" x="383" y="0.4" width="1172.6" height="703.5">
			<feColorMatrix  type="matrix" values="1 0 0 0 0  0 1 0 0 0  0 0 1 0 0  0 0 0 1 0"/>
		</filter>
	</defs>
	<mask maskUnits="userSpaceOnUse" x="383" y="0.4" width="1172.6" height="703.5" id="b_1_">
		<g class="st1">
			<path id="a_2_" class="st2" d="M0,494.4l34.3,32c34.3,32,102.7,96,171.7,112c68.3,16,137-16,205-16c69,0,138,32,206,37.3
				c68.7,5.7,137-16.3,206-16c68.4-0.3,137,21.7,206,26.7c68.1,5,137-5,205-21.3c68.9-15.7,137-37.7,172-48l34-10.7V0H0V494.4z"/>
		</g>
	</mask>
	<g class="st3">
		<g transform="translate(383)">
			<path class="st4" d="M132.9,703.8C14.8,572.5-26.4,393.8,16.6,362.7c58.8-42.5,222.3,122.5,279.8,93.3
				c164.4-83.5-148.1-341.6-39.7-373.1c99.7-29,175.4,207.5,261.2,141.1c59.5-46.1,5.2-121,16.1-179.2c17.3-92.4,166.2-45,297,186.1
				c55.1,97.4,130.7-84.5,192.3-105.9c57.2-19.8,151,104.6,149.3,271.8c-0.9,85.8-36.9,214.4-120.2,307.1H132.9z"/>
			<path class="st5" d="M989.9,315l-112.9-74.2l1.5-2.2l112.9,74.2L989.9,315z"/>
			<path class="st5" d="M941.2,368.1l-2.2-1.5l47.6-72.4l2.2,1.5L941.2,368.1z"/>
			<path class="st5" d="M920.5,399.6h-8.3v-2.6h6.9l16.9-25.7l2.2,1.5L920.5,399.6z"/>
			<path class="st6" d="M437.5,419.3h27.8v-90.6h-27.8V419.3z"/>
			<path class="st2" d="M446.8,374.6h9.3v-36.7h-9.3V374.6z"/>
			<path class="st7" d="M456.7,396.9c0,2.9-2.4,5.3-5.3,5.3s-5.3-2.4-5.3-5.3s2.4-5.3,5.3-5.3S456.7,394,456.7,396.9"/>
			<path class="st8" d="M409.8,419.3h27.8v-90.6h-27.8V419.3z"/>
			<path class="st2" d="M419,374.6h9.3v-36.7H419V374.6z"/>
			<path class="st7" d="M428.9,396.9c0,2.9-2.4,5.3-5.3,5.3s-5.3-2.4-5.3-5.3s2.4-5.3,5.3-5.3S428.9,394,428.9,396.9"/>
			<path class="st9" d="M382,419.3h27.8v-90.6H382V419.3z"/>
			<path class="st2" d="M391.2,374.6h9.3v-36.7h-9.3V374.6z"/>
			<path class="st7" d="M401.2,396.9c0,2.9-2.4,5.3-5.3,5.3s-5.3-2.4-5.3-5.3s2.4-5.3,5.3-5.3S401.2,394,401.2,396.9"/>
			<path class="st5" d="M377,568.5c-9.2,0-16.7,7.5-16.7,16.7c0,9.2,7.5,16.7,16.7,16.7s16.7-7.5,16.7-16.7
				C393.7,576,386.2,568.5,377,568.5 M377,604.5c-10.7,0-19.3-8.7-19.3-19.3c0-10.7,8.7-19.3,19.3-19.3s19.3,8.7,19.3,19.3
				C396.3,595.8,387.6,604.5,377,604.5"/>
			<path class="st10" d="M313.5,672.5h127v-87.3h-127V672.5z"/>
			<path class="st5" d="M427.3,672.5h13.2v-87.3h-13.2V672.5z"/>
			<path class="st5" d="M313.5,630.2h113.8v-2.6H313.5V630.2z"/>
			<path class="st2" d="M361.1,639.4h18.5v-11.9h-18.5V639.4z"/>
			<path class="st10" d="M149.4,239.5c-3.9,18-10.4,35.4-15.6,53.1c-5.4,18.2-10.8,36.7-10.7,55.7c0.1,24.7,9.9,49.2,26.8,67.2
				c6.6,7,14.4,13.2,19.5,21.4c5.1,8.2,7,19.5,1.3,27.3c-8.2,11.3-25.9,8.8-37.9,15.9c-15.2,8.9-17.3,31.4-8.6,46.7
				s48.1,59.1,104.3,48.2c25.2-4.9,59.3-28.8,58.3-54.4c-1-26.7-26.5-48.3-25.6-74.9c0.6-17.5,12.3-32.2,22.5-46.5
				c10.2-14.2,19.6-31.5,15-48.4c-6.9-24.8-38.8-32.5-54.3-53c-10-13.2-12.2-30.7-12.8-47.2c-0.6-16.6-0.2-33.5-5.7-49.2
				C212.4,163.5,164.8,168,149.4,239.5"/>
			<path class="st11" d="M207.2,622.2h2.6V334.8h-2.6V622.2z"/>
			<path class="st11" d="M209.8,417.9l-2.6-0.4c4.3-26,33.8-42.2,35.1-42.8l1.3,2.3C243.3,377.1,213.9,393.2,209.8,417.9"/>
			<path class="st11" d="M207.2,531.1c-2.9-17.6-23.8-29-24.1-29.1l1.3-2.3c0.9,0.5,22.3,12.2,25.4,31L207.2,531.1z"/>
			<path class="st9" d="M223.2,672.5h-29.8c-18.1,0-32.7-14.7-32.7-32.7v-27.4h95.3v27.4C255.9,657.8,241.2,672.5,223.2,672.5"/>
			<path class="st11" d="M177.6,669.9c-11.2-5.9-18.2-17.5-18.2-30.2v-10.1h2.6v10.1c0,11.7,6.4,22.4,16.8,27.8L177.6,669.9z"/>
			<path class="st2" d="M160.7,623.6h95.3v-2.6h-95.3V623.6z"/>
			<path class="st11" d="M195.2,613.6h60.7V611h-60.7L195.2,613.6z"/>
			<path class="st4" d="M822.6,72.7c0.9-8.3,3.4-14,9.1-17.1c17.1-9.3,60,5.8,77.9,29c24.9,32.4,2.2,82.2-22,85.3
				C859.4,173.6,817.8,115.7,822.6,72.7"/>
			<path class="st10" d="M413.2,127.2c-33.4,0-60.6,27.2-60.6,60.6c0,33.4,27.2,60.6,60.6,60.6s60.6-27.2,60.6-60.6
				C473.8,154.3,446.6,127.2,413.2,127.2 M413.2,251c-34.9,0-63.2-28.4-63.2-63.2s28.4-63.2,63.2-63.2s63.2,28.4,63.2,63.2
				S448,251,413.2,251"/>
			<path class="st10" d="M466.1,187.7c0,29.2-23.7,52.9-52.9,52.9s-52.9-23.7-52.9-52.9s23.7-52.9,52.9-52.9
				S466.1,158.5,466.1,187.7"/>
			<path class="st2" d="M413.2,136.1c-28.5,0-51.6,23.1-51.6,51.6s23.1,51.6,51.6,51.6s51.6-23.1,51.6-51.6S441.6,136.1,413.2,136.1
				 M413.2,242c-29.9,0-54.2-24.3-54.2-54.2s24.3-54.2,54.2-54.2s54.2,24.3,54.2,54.2S443.1,242,413.2,242"/>
			<path class="st12" d="M413.2,134.8v11.1V134.8z"/>
			<path class="st2" d="M411.9,145.9h2.6v-11.1h-2.6V145.9z"/>
			<path class="st12" d="M413.2,229.5v11.1V229.5z"/>
			<path class="st2" d="M411.9,240.7h2.6v-11.1h-2.6V240.7z"/>
			<path class="st12" d="M386.7,141.9l5.6,9.6L386.7,141.9z"/>
			<path class="st2" d="M391.1,152.2l-5.6-9.6l2.3-1.3l5.6,9.6L391.1,152.2z"/>
			<path class="st12" d="M434.1,223.9l5.6,9.6L434.1,223.9z"/>
			<path class="st2" d="M438.5,234.2l-5.6-9.6l2.3-1.3l5.6,9.6L438.5,234.2z"/>
			<path class="st12" d="M367.4,161.3l9.6,5.6L367.4,161.3z"/>
			<path class="st2" d="M376.3,168l-9.6-5.6l1.3-2.3l9.6,5.6L376.3,168z"/>
			<path class="st12" d="M449.4,208.6l9.6,5.6L449.4,208.6z"/>
			<path class="st2" d="M458.3,215.3l-9.6-5.6l1.3-2.3l9.6,5.6L458.3,215.3z"/>
			<path class="st12" d="M360.3,187.7h11.1H360.3z"/>
			<path class="st2" d="M360.3,189.1h11.1v-2.6h-11.1V189.1z"/>
			<path class="st12" d="M455,187.7h11.1H455z"/>
			<path class="st2" d="M455,189.1h11.1v-2.6H455V189.1z"/>
			<path class="st12" d="M367.4,214.2l9.6-5.6L367.4,214.2z"/>
			<path class="st2" d="M368,215.3l-1.3-2.3l9.6-5.6l1.3,2.3L368,215.3z"/>
			<path class="st12" d="M449.4,166.8l9.6-5.6L449.4,166.8z"/>
			<path class="st2" d="M450,168l-1.3-2.3l9.6-5.6l1.3,2.3L450,168z"/>
			<path class="st12" d="M386.7,233.6l5.6-9.6L386.7,233.6z"/>
			<path class="st2" d="M387.9,234.2l-2.3-1.3l5.6-9.6l2.3,1.3L387.9,234.2z"/>
			<path class="st12" d="M434.1,151.5l5.6-9.6L434.1,151.5z"/>
			<path class="st2" d="M435.2,152.2l-2.3-1.3l5.6-9.6l2.3,1.3L435.2,152.2z"/>
			<path class="st2" d="M438.3,189.1h-26.5v-33.6h2.6v30.9h23.8V189.1z"/>
			<path class="st10" d="M528.5,25h2.6v-7.4h-2.6V25z"/>
			<path class="st10" d="M528.5,69.5h2.6v-7.4h-2.6V69.5z"/>
			<path class="st10" d="M519.4,28.1l-3.7-6.4l2.3-1.3l3.7,6.4L519.4,28.1z"/>
			<path class="st10" d="M541.7,66.7l-3.7-6.4l2.3-1.3l3.7,6.4L541.7,66.7z"/>
			<path class="st10" d="M513.1,35.4l-6.4-3.7l1.3-2.3l6.4,3.7L513.1,35.4z"/>
			<path class="st10" d="M551.7,57.7l-6.4-3.7l1.3-2.3l6.4,3.7L551.7,57.7z"/>
			<path class="st10" d="M503.9,44.9h7.4v-2.6h-7.4V44.9z"/>
			<path class="st10" d="M548.4,44.9h7.4v-2.6h-7.4V44.9z"/>
			<path class="st10" d="M508,57.7l-1.3-2.3l6.4-3.7l1.3,2.3L508,57.7z"/>
			<path class="st10" d="M546.6,35.4l-1.3-2.3l6.4-3.7l1.3,2.3L546.6,35.4z"/>
			<path class="st10" d="M518,66.7l-2.3-1.3l3.7-6.4l2.3,1.3L518,66.7z"/>
			<path class="st10" d="M540.3,28.1l-2.3-1.3l3.7-6.4l2.3,1.3L540.3,28.1z"/>
			<path class="st13" d="M697.7,472.2l-58.1,200.3h-6.7l47.5-200.3H697.7z"/>
			<path class="st13" d="M758.4,472.2l58.1,200.3h6.7l-47.5-200.3H758.4z"/>
			<path class="st9" d="M630.1,443.6c0,54.1,43.8,97.9,97.9,97.9s97.9-43.8,97.9-97.9s-43.8-97.9-97.9-97.9S630.1,389.6,630.1,443.6
				"/>
			<path class="st14" d="M822.3,474.8l-2.5-0.8c1.7-5.2,3-10.6,3.8-16l2.6,0.4C825.4,463.9,824,469.4,822.3,474.8"/>
			<path class="st14" d="M728.1,542.8c-15.9,0-31-3.6-45-10.8l1.2-2.4c13.6,7,28.4,10.5,43.8,10.5c38.2,0,72.9-22.6,88.4-57.6
				l2.4,1.1C803,519.6,767.3,542.8,728.1,542.8"/>
			<path class="st15" d="M683.6,435.3c0,17,13.8,30.8,30.8,30.8c17,0,30.8-13.8,30.8-30.8c0-17-13.8-30.8-30.8-30.8
				C697.4,404.5,683.6,418.3,683.6,435.3"/>
			<path class="st16" d="M540.3,407.1c-1.3-3.4,0.5-7.2,3.9-8.5c3.4-1.3,7.2,0.5,8.5,3.9c1.3,3.4-0.5,7.2-3.9,8.5
				C545.3,412.3,541.5,410.6,540.3,407.1"/>
			<path class="st15" d="M679.1,338.3c0,9.5,7.7,17.2,17.2,17.2s17.2-7.7,17.2-17.2s-7.7-17.2-17.2-17.2S679.1,328.8,679.1,338.3"/>
			<path class="st16" d="M530.4,398.6L530.4,398.6c-1,0-2,0.2-3,0.6c-4.8,1.8-7.3,7.1-5.5,11.9s7.1,7.3,11.9,5.5l14.9-5.5l-2.4-12.8
				L530.4,398.6z"/>
			<path class="st16" d="M618.1,372.1c2.4,6.5,9.6,9.8,16.1,7.4c6.5-2.4,9.8-9.6,7.4-16.1c-2.4-6.5-9.6-9.8-16.1-7.4
				C619,358.5,615.7,365.7,618.1,372.1"/>
			<path class="st17" d="M688.3,323.1L624,356.8l10.1,22.8l68.1-25.1L688.3,323.1z"/>
			<path class="st16" d="M624,356.8L543.4,399l5.4,12.1l85.4-31.5L624,356.8z"/>
			<path class="st12" d="M674.8,660.6c0,4.7-3.8,8.6-8.6,8.6s-8.6-3.8-8.6-8.6s3.8-8.6,8.6-8.6S674.8,655.8,674.8,660.6"/>
			<path class="st18" d="M683.6,435.3L683.6,435.3l27.2,0h34.3l3.3,2.6c11.2,8.7,17.7,22,17.7,36.2v13.2c0,10.2-8.3,18.5-18.5,18.5
				h-53.4c-10.2,0-18.5-8.3-18.5-18.5v-18.1C675.7,457.4,678.4,445.8,683.6,435.3"/>
			<path class="st17" d="M772.1,408.3c-0.9-6.8,3.9-13.1,10.8-14c6.8-0.9,13.1,3.9,14,10.8c0.9,6.8-3.9,13.1-10.8,14
				C779.3,420,773,415.2,772.1,408.3"/>
			<path class="st17" d="M776.3,333.5l20.2,69.7l-23.5,8.5l-29-66.5L776.3,333.5z"/>
			<path class="st14" d="M679.2,339.1l4.5,96.2h61.5l25.4-101c1.7-6.7-3.4-13.2-10.3-13.2h-64C686.5,321.1,678.7,329.3,679.2,339.1"
				/>
			<path class="st14" d="M712.5,332.3c3.3,8.9-1.3,18.8-10.2,22.1c-8.9,3.3-18.8-1.3-22.1-10.2c-3.3-8.9,1.3-18.8,10.2-22.1
				C699.3,318.9,709.2,323.4,712.5,332.3"/>
			<path class="st14" d="M722.9,353.2l-21.2,29.6l-0.2-0.2c-4,5.7-11.2,8.6-18.3,6.7c-9.1-2.4-14.5-11.7-12.1-20.8
				c0.6-2.1,1.5-4.1,2.8-5.7l-0.1,0l21.2-29.6L722.9,353.2z"/>
			<path class="st14" d="M766.6,354c-8.7,3.8-18.8-0.2-22.6-8.9c-3.8-8.7,0.2-18.8,8.9-22.6c8.7-3.8,18.8,0.2,22.6,8.9
				C779.3,340.1,775.3,350.2,766.6,354"/>
			<path class="st14" d="M744,345.2l18.9,43.4l26.5-9.6l-13.2-45.5L744,345.2z"/>
			<path class="st14" d="M702.3,354.4l-44.4,16.4L646.4,345l41.9-22L702.3,354.4z"/>
			<path class="st18" d="M694.2,505.8c-10.2,0-18.5-8.3-18.5-18.5c0-10.2,8.3-18.5,18.5-18.5c10.2,0,18.5,8.3,18.5,18.5
				C712.7,497.5,704.4,505.8,694.2,505.8"/>
			<path class="st18" d="M766.2,487.3c0,10.2-8.3,18.5-18.5,18.5c-10.2,0-18.5-8.3-18.5-18.5c0-10.2,8.3-18.5,18.5-18.5
				C757.9,468.7,766.2,477,766.2,487.3"/>
			<path class="st19" d="M657.6,660.6h17.2v11.9h-24.1c-2,0-3.7-1.6-3.7-3.7c0-1.3,0.7-2.5,1.8-3.2L657.6,660.6z"/>
			<path class="st18" d="M648.3,490.8c0,8.3-6.7,15-15,15s-15-6.7-15-15c0-8.3,6.7-15,15-15S648.3,482.6,648.3,490.8"/>
			<path class="st18" d="M618.7,494.1l39,167.8l17-2.6l-26.5-169.8L618.7,494.1z"/>
			<path class="st12" d="M718.1,660.6c0,4.7-3.8,8.6-8.6,8.6s-8.6-3.8-8.6-8.6s3.8-8.6,8.6-8.6S718.1,655.8,718.1,660.6"/>
			<path class="st19" d="M700.9,660.6h17.2v11.9H694c-2,0-3.7-1.6-3.7-3.7c0-1.3,0.7-2.5,1.8-3.2L700.9,660.6z"/>
			<path class="st12" d="M691.6,490.8c0,8.3-6.7,15-15,15s-15-6.7-15-15c0-8.3,6.7-15,15-15S691.6,482.6,691.6,490.8"/>
			<path class="st18" d="M662,494.1l39,167.8l17-2.6l-26.5-169.8L662,494.1z"/>
			<path class="st17" d="M703.9,321.1H733v-35.8h-29.1V321.1z"/>
			<path class="st17" d="M733,321.1c0,8-6.5,14.6-14.6,14.6s-14.6-6.5-14.6-14.6s6.5-14.6,14.6-14.6S733,313,733,321.1"/>
			<path class="st7" d="M723.9,281.4c0,11.4,9.3,20.7,20.7,20.7s20.7-9.3,20.7-20.7c0-11.4-9.3-20.7-20.7-20.7
				S723.9,270,723.9,281.4"/>
			<path class="st7" d="M666.7,254.3c0-25.3,20.5-45.7,45.7-45.7s45.7,20.5,45.7,45.7S737.6,300,712.4,300l-23.3-23.3
				C676.7,276.7,666.7,266.7,666.7,254.3"/>
			<path class="st17" d="M734.3,276.8h-6.6v-13.2h6.6c3.7,0,6.6,3,6.6,6.6C740.9,273.9,737.9,276.8,734.3,276.8"/>
			<path class="st17" d="M683.2,238.5H733v64.2h-30.9c-12.4,0-22.2-10.4-21.4-22.8L683.2,238.5z"/>
			<path class="st7" d="M733,263.6h1.3v-38.2h-39.4c-10.4,0-18.8,8.4-18.8,18.8v0.7h1.3c11.3,0,22.2,3.7,31.2,10.5v0
				C715.6,260.7,724.2,263.6,733,263.6"/>
			<path class="st5" d="M642.5,419.3H706v-7.9h-63.5V419.3z"/>
			<path class="st10" d="M647.7,419.3h-127l0-0.1l-0.9-19.8l-3.3-70.7h127l3.3,70.8L647.7,419.3z"/>
			<path class="st2" d="M572.8,374c0.2,5.1,4.6,9.3,9.7,9.3c5.1,0,9.1-4.1,8.8-9.3c-0.2-5.1-4.6-9.3-9.7-9.3S572.6,368.8,572.8,374"
				/>
			<path class="st13" d="M647.7,419.3H519.7l0.9-0.1l126.1-19.6L647.7,419.3z"/>
			<path class="st18" d="M692,468.9l-60.4,7.1l1.8,29.8h60.8L692,468.9z"/>
			<path class="st16" d="M687.2,410.5c-1.2,3.5,0.6,7.2,4.1,8.4c3.5,1.2,7.2-0.6,8.4-4.1c1.2-3.5-0.6-7.2-4.1-8.4
				C692.2,405.2,688.4,407,687.2,410.5"/>
			<path class="st17" d="M674.6,418.7c1,0.3,2,0.5,3,0.5l0,0l15.9,0.1l2.2-12.9l-15-5.2c-4.8-1.7-10.1,0.9-11.8,5.7
				C667.2,411.7,669.7,417,674.6,418.7"/>
			<path class="st17" d="M784.5,419.2l-91,0l-0.8-13.2l90.3-11.8L784.5,419.2z"/>
			<path class="st2" d="M703,282.2c0,4-3.2,7.3-7.3,7.3c-4,0-7.3-3.2-7.3-7.3L703,282.2z"/>
			<path class="st5" d="M646.3,419.3l-4.2-90.6l2.6-0.1l4.2,90.6L646.3,419.3z"/>
			<path class="st13" d="M363.9,419.3l-1.4,13.2l-26.3,240h-6.7l19.8-253.2L363.9,419.3z"/>
			<path class="st13" d="M981.2,419.3l1.4,13.2l26.3,240h6.7l-19.8-253.2L981.2,419.3z"/>
			<path class="st10" d="M335.1,432.5h672.7v-13.2H335.1V432.5z"/>
			<path class="st20" d="M335.1,432.5h177.2H335.1z"/>
			<path class="st5" d="M335.1,433.8h177.2v-2.6H335.1V433.8z"/>
			<path class="st5" d="M598.1,432.5h293.5H598.1z"/>
			<path class="st5" d="M598.1,433.8h293.5v-2.6H598.1V433.8z"/>
			<path class="st5" d="M931.7,432.5h76.1H931.7z"/>
			<path class="st5" d="M931.7,433.8h76.1v-2.6h-76.1V433.8z"/>
			<path class="st20" d="M906.1,432.5h12.2H906.1z"/>
			<path class="st5" d="M906.1,433.8h12.2v-2.6h-12.2V433.8z"/>
			<path class="st5" d="M909.8,419.3h2.6v-35.4h-2.6V419.3z"/>
			<path class="st10" d="M862.5,276.4l-43.1-28.3c5.4-8.2,21.4-20.8,34.1-24.3l11.3-17.3l17.7,11.6l-11.3,17.3
				C873.1,248.5,867.9,268.2,862.5,276.4"/>
			<path class="st2" d="M831.9,242.4l-1.7-2c6.1-5.3,15.7-11.7,24.1-14l1-0.3l9.7-14.8l2.2,1.5l-10.3,15.6l-1.9,0.5
				C848.3,230.7,839.4,235.9,831.9,242.4"/>
			<path class="st2" d="M826.2,248l-2-1.7c0.9-1.1,2-2.2,3.2-3.3l1.8,1.9C828.1,246,827.1,247,826.2,248"/>
			<path class="st5" d="M863.6,277.1l-2.2-1.5c5.4-8.3,10.3-27.5,8.6-40.1l-0.1-0.5l11.6-17.7l2.2,1.5l-11.1,16.8
				C874.3,248.8,869.2,268.6,863.6,277.1"/>
			<path class="st21" d="M862.5,276.4l-43.1-28.3L862.5,276.4z"/>
			<path class="st5" d="M857.3,227.8l-3.1-2l1.5-2.2l3.1,2L857.3,227.8z"/>
			<path class="st5" d="M870.5,236.5l-10.9-7.2l1.5-2.2l10.9,7.2L870.5,236.5z"/>
			<path class="st10" d="M880.7,419.3h60.9v-7.9h-60.9L880.7,419.3z"/>
			<path class="st5" d="M895.5,412.7h6.8V410h-6.8V412.7z"/>
			<path class="st5" d="M905.4,412.7h36.1V410h-36.1V412.7z"/>
			<path class="st2" d="M959.6,555.6c0,14.1-11.4,25.5-25.5,25.5s-25.5-11.4-25.5-25.5S920,530,934.1,530S959.6,541.5,959.6,555.6"
				/>
			<path class="st5" d="M934.1,531.4c-13.3,0-24.2,10.9-24.2,24.2s10.9,24.2,24.2,24.2s24.2-10.9,24.2-24.2S947.5,531.4,934.1,531.4
				 M934.1,582.4c-14.8,0-26.8-12-26.8-26.8c0-14.8,12-26.8,26.8-26.8c14.8,0,26.8,12,26.8,26.8C961,570.4,948.9,582.4,934.1,582.4"
				/>
			<path class="st2" d="M919.9,564.3c0,10.1-8.2,18.4-18.4,18.4s-18.4-8.2-18.4-18.4c0-10.1,8.2-18.4,18.4-18.4
				S919.9,554.2,919.9,564.3"/>
			<path class="st5" d="M901.5,547.3c-9.4,0-17,7.6-17,17c0,9.4,7.6,17,17,17s17-7.6,17-17C918.5,554.9,910.9,547.3,901.5,547.3
				 M901.5,584c-10.9,0-19.7-8.8-19.7-19.7c0-10.9,8.8-19.7,19.7-19.7s19.7,8.8,19.7,19.7C921.2,575.2,912.3,584,901.5,584"/>
			<path class="st10" d="M967.8,558.2l-1.7,13.3l-0.3,2.6l-4.7,36.4l-5.7,44.2l-0.6,4.4l-1.7,13.3h-74.4l-1.7-13.3l-0.3-2.6
				l-4.2-32.2l-6.5-50.2l-0.3-2.6l-1.7-13.3H967.8z"/>
			<path class="st13" d="M961,610.5l-5.7,44.2l-0.6,4.4l-1.7,13.3h-74.4l-1.7-13.3l-0.3-2.6l-4.2-32.2L961,610.5z"/>
			<path class="st2" d="M888.2,657.7l-2.6,0.2l-0.1-1.4l-7.6-82.4l-0.1-1.2l2.6-0.2l0.1,1.4l7.6,82.4L888.2,657.7z"/>
			<path class="st2" d="M897.1,657.9l-4.7-85l2.6-0.1l4.7,85L897.1,657.9z"/>
			<path class="st2" d="M908.7,657.9l-1.5-85l2.6,0l1.5,85L908.7,657.9z"/>
			<path class="st2" d="M922.9,657.9l-2.6,0l1.6-85l2.6,0L922.9,657.9z"/>
			<path class="st2" d="M934.4,657.9l-2.6-0.1l4.7-85l2.6,0.1L934.4,657.9z"/>
			<path class="st2" d="M953.9,573l-0.1,1.2l-7.6,82.4L946,658l-2.6-0.2l0.1-1.2l7.6-82.4l0.1-1.4L953.9,573z"/>
			<path class="st2" d="M955,656.5h-78.6l0.3,2.6h77.9l0.6-4.4v-0.1L955,656.5z M865.5,571.5l0.3,2.6h100l0.3-2.6H865.5z"/>
			<path class="st20" d="M863.7,558.2h38.7H863.7z"/>
			<path class="st5" d="M863.7,559.5h38.7v-2.6h-38.7V559.5z"/>
			<path class="st2" d="M1029.1,40.4l-30.7,63.8L977,87.5L1028,41c0-0.1,0-0.1-0.1-0.1l-68.1,33.3l-16.8-13.1l85.8-21
				C1029.1,40.1,1029.2,40.3,1029.1,40.4"/>
			<path class="st10" d="M946,61.8l14,10.9l58.7-28.7L946,61.8z M979,87.4l19,14.8l27.4-56.9L979,87.4z M999,106.3l-24-18.7
				l45.7-41.6l-60.9,29.7l-19.6-15.2l88.5-21.7c0.6-0.1,1.2,0.1,1.6,0.5c0.4,0.5,0.5,1.1,0.2,1.7L999,106.3z"/>
			<path class="st2" d="M1028,41L977,87.5l-14.1,12.8c-1.1,1-2.9,0.2-2.9-1.3l-0.1-24.8v0L1028,41C1028,40.9,1028.1,41,1028,41"/>
			<path class="st10" d="M961.2,75l0.1,24c0,0.2,0.2,0.4,0.3,0.4c0.1,0,0.3,0.1,0.5-0.1l58.6-53.4L961.2,75z M961.7,102.1
				c-0.4,0-0.8-0.1-1.3-0.3c-1.1-0.5-1.8-1.6-1.8-2.8l-0.1-25.7l0.7-0.4l69.1-33.8l1.4,1.8l-0.9,0.9l-65.2,59.3
				C963.2,101.8,962.4,102.1,961.7,102.1z"/>
			<path class="st10" d="M945.2,114l-1.5-2.2c3.4-2.3,5.2-3.8,5.2-3.8l1.7,2C950.5,110,948.7,111.6,945.2,114"/>
			<path class="st10" d="M673,90.1c-4.5-0.3-9-0.5-13.4-0.5l0-2.6c4.5,0,9,0.2,13.6,0.5L673,90.1z M632.8,91.5l-0.4-2.6
				c4.4-0.6,8.9-1.1,13.6-1.4l0.2,2.6C641.5,90.4,637,90.9,632.8,91.5z M699.7,93.5c-4.4-0.8-8.9-1.5-13.3-2.1l0.3-2.6
				c4.4,0.6,9,1.3,13.4,2.1L699.7,93.5z M725.8,99.8c-4.3-1.3-8.7-2.4-13-3.5l0.6-2.6c4.3,1,8.8,2.2,13.1,3.5L725.8,99.8z
				 M751.3,108.6c-4.2-1.7-8.5-3.2-12.6-4.7l0.9-2.5c4.2,1.5,8.5,3,12.7,4.7L751.3,108.6z M776,119.5l-1.1-0.5
				c-3.7-1.8-7.4-3.5-11.1-5.2l1.1-2.4c3.7,1.6,7.5,3.4,11.2,5.2l1.1,0.5L776,119.5z M921.2,126.9l-1-2.4c4.1-1.8,8.2-3.7,12.1-5.8
				l1.3,2.3C929.5,123.1,925.4,125.1,921.2,126.9L921.2,126.9z M801.2,129.8c-4.2-1.4-8.5-3-12.8-4.8l1-2.4
				c4.2,1.7,8.4,3.3,12.6,4.7L801.2,129.8z M895.2,135.4l-0.6-2.6c4.3-1,8.7-2.2,12.9-3.6l0.8,2.5
				C904.1,133.1,899.6,134.4,895.2,135.4L895.2,135.4z M827.5,136.7c-4.4-0.8-8.9-1.8-13.3-3l0.7-2.6c4.4,1.1,8.8,2.1,13.1,2.9
				L827.5,136.7z M868.3,139.3l-0.2-2.6c4.5-0.3,9-0.7,13.4-1.4l0.4,2.6C877.3,138.6,872.8,139,868.3,139.3L868.3,139.3z
				 M854.6,139.5c-4.5-0.1-9.1-0.4-13.6-0.9l0.3-2.6c4.5,0.5,9,0.8,13.4,0.9L854.6,139.5z"/>
			<path class="st10" d="M613.4,95.9l-0.9-2.5c0.1,0,2.3-0.9,6.5-1.9l0.7,2.6C615.5,95.1,613.4,95.9,613.4,95.9"/>
			<path class="st10" d="M521.4,201.7h65.9v-44.2h-65.9V201.7z M518.8,204.4H590v-49.4h-71.2V204.4z"/>
			<path class="st10" d="M555.3,187.3l-36-30l1.7-2l34.3,28.6l32.6-28.5l1.7,2L555.3,187.3z"/>
			<path class="st2" d="M597.5,156.3c0,4.9-4,8.8-8.8,8.8s-8.8-4-8.8-8.8s4-8.8,8.8-8.8S597.5,151.4,597.5,156.3"/>
			<g>
				<path class="st10" d="M588.7,148.8c-4.1,0-7.5,3.4-7.5,7.5s3.4,7.5,7.5,7.5s7.5-3.4,7.5-7.5S592.8,148.8,588.7,148.8
					 M588.7,166.4c-5.6,0-10.2-4.6-10.2-10.2s4.6-10.2,10.2-10.2c5.6,0,10.2,4.6,10.2,10.2S594.3,166.4,588.7,166.4"/>
				<path class="st10" d="M1025.2,251.1h2.6v-7.4h-2.6V251.1z"/>
				<path class="st10" d="M1025.2,295.6h2.6v-7.4h-2.6V295.6z"/>
				<path class="st10" d="M1016.1,254.3l-3.7-6.4l2.3-1.3l3.7,6.4L1016.1,254.3z"/>
				<path class="st10" d="M1038.3,292.8l-3.7-6.4l2.3-1.3l3.7,6.4L1038.3,292.8z"/>
				<path class="st10" d="M1009.8,261.5l-6.4-3.7l1.3-2.3l6.4,3.7L1009.8,261.5z"/>
				<path class="st10" d="M1048.3,283.8l-6.4-3.7l1.3-2.3l6.4,3.7L1048.3,283.8z"/>
				<path class="st10" d="M1000.5,271h7.4v-2.6h-7.4V271z"/>
				<path class="st10" d="M1045.1,271h7.4v-2.6h-7.4V271z"/>
				<path class="st10" d="M1004.7,283.8l-1.3-2.3l6.4-3.7l1.3,2.3L1004.7,283.8z"/>
				<path class="st10" d="M1043.2,261.5l-1.3-2.3l6.4-3.7l1.3,2.3L1043.2,261.5z"/>
				<path class="st10" d="M1014.7,292.8l-2.3-1.3l3.7-6.4l2.3,1.3L1014.7,292.8z"/>
				<path class="st10" d="M1036.9,254.3l-2.3-1.3l3.7-6.4l2.3,1.3L1036.9,254.3z"/>
			</g>
			<path class="st20" d="M344.4,598.3l-5.7,51.9L344.4,598.3z"/>
			<path class="st2" d="M340,650.3l-2.6-0.3l5.7-51.9l2.6,0.3L340,650.3z"/>
			<path class="st20" d="M348.3,562.2l-3.4,30.6L348.3,562.2z"/>
			<path class="st2" d="M346.3,593l-2.6-0.3l3.4-30.6l2.6,0.3L346.3,593z"/>
			<path class="st2" d="M818.3,651.5l1.5,6.5L818.3,651.5z"/>
			<path class="st5" d="M818.5,658.3l-1.5-6.5l2.6-0.6l1.5,6.5L818.5,658.3z"/>
			<path class="st2" d="M796.6,560.3l20.2,85.3L796.6,560.3z"/>
			<path class="st5" d="M815.6,645.8l-20.2-85.3l2.6-0.6l20.2,85.3L815.6,645.8z"/>
			<path class="st2" d="M997.5,440.5l8.3,106.5L997.5,440.5z"/>
			<path class="st5" d="M1004.5,547.1l-8.3-106.5l2.6-0.2l8.3,106.5L1004.5,547.1z"/>
			<path class="st2" d="M1006.6,556.8l0.7,9L1006.6,556.8z"/>
			<path class="st5" d="M1006,566l-0.7-9l2.6-0.2l0.7,9L1006,566z"/>
		</g>
	</g>
</g>
</svg>
