<?xml version="1.0" encoding="UTF-8"?>
<svg width="1440px" height="672px" viewBox="0 0 1440 672" version="1.1" xmlns="http://www.w3.org/2000/svg" xmlns:xlink="http://www.w3.org/1999/xlink">
    <!-- Generator: Sketch 61.2 (89653) - https://sketch.com -->
    <title>Graphic</title>
    <desc>Created with Sketch.</desc>
    <defs>
        <path d="M0,494.397492 L34.3,526.397492 C68.6,558.397492 137,622.397492 206,638.397492 C274.3,654.397492 343,622.397492 411,622.397492 C480,622.397492 549,654.397492 617,659.697492 C685.7,665.397492 754,643.397492 823,643.697492 C891.4,643.397492 960,665.397492 1029,670.397492 C1097.1,675.397492 1166,665.397492 1234,649.097492 C1302.9,633.397492 1371,611.397492 1406,601.097492 L1440,590.397492 L1440,0.0321153797 L0,0.0321153797 L0,494.397492 Z" id="path-1"></path>
    </defs>
    <g id="Page-1" stroke="none" stroke-width="1" fill="none" fill-rule="evenodd">
        <g id="Landing-Page" transform="translate(0.000000, -305.000000)">
            <g id="Graphic" transform="translate(0.000000, 305.000000)">
                <mask id="mask-2" fill="white">
                    <use xlink:href="#path-1"></use>
                </mask>
                <use id="Path" fill="#F4F3F0" fill-rule="nonzero" xlink:href="#path-1"></use>
                <g id="Purchased-Illustration" mask="url(#mask-2)">
                    <g transform="translate(383.000000, 0.000000)">
                        <path d="M132.881988,703.830776 C14.8042377,572.529641 -26.4204423,393.751676 16.6035177,362.674406 C75.4240977,320.179646 238.854288,485.157746 296.404788,455.945906 C460.813998,372.464606 148.321398,114.373766 256.714788,82.8731358 C356.442528,53.8994358 432.145911,290.381717 517.925262,223.927427 C577.409988,177.843368 523.140528,102.903356 534.028818,44.6913558 C551.293968,-47.6805042 700.250538,-0.2906442 830.985429,230.833487 C886.096317,328.263176 961.650201,146.297756 1023.26099,124.918076 C1080.46751,105.073076 1174.29467,229.514456 1172.57477,396.701966 C1171.70159,482.524976 1135.71599,611.075246 1052.36699,703.830776 L132.881988,703.830776 Z" id="Fill-1" fill="#D4E2D2"></path>
                        <polygon id="Fill-4" fill="#4B5B47" points="989.935412 314.980653 877.06499 240.823857 878.516321 238.611801 991.388066 312.768597"></polygon>
                        <polygon id="Fill-6" fill="#4B5B47" points="941.178231 368.091165 938.966175 366.637188 986.553162 294.209553 988.765218 295.66353"></polygon>
                        <polygon id="Fill-8" fill="#4B5B47" points="920.502387 399.560307 912.19527 399.560307 912.19527 396.914307 919.076193 396.914307 935.945766 371.234877 938.157822 372.687531"></polygon>
                        <polygon id="Fill-10" fill="#B81F2D" points="437.54256 419.271552 465.32556 419.271552 465.32556 328.646052 437.54256 328.646052"></polygon>
                        <polygon id="Fill-12" fill="#FFFFFF" points="446.80356 374.620302 456.06456 374.620302 456.06456 337.907052 446.80356 337.907052"></polygon>
                        <path d="M456.726325,396.946588 C456.726325,399.869095 454.356832,402.238588 451.434325,402.238588 C448.511818,402.238588 446.142325,399.869095 446.142325,396.946588 C446.142325,394.024081 448.511818,391.654588 451.434325,391.654588 C454.356832,391.654588 456.726325,394.024081 456.726325,396.946588" id="Fill-13" fill="#1B1B1B"></path>
                        <polygon id="Fill-14" fill="#E7DCC8" points="409.75956 419.271552 437.54256 419.271552 437.54256 328.646052 409.75956 328.646052"></polygon>
                        <polygon id="Fill-15" fill="#FFFFFF" points="419.02056 374.620302 428.28156 374.620302 428.28156 337.907052 419.02056 337.907052"></polygon>
                        <path d="M428.943325,396.946588 C428.943325,399.869095 426.573832,402.238588 423.651325,402.238588 C420.728818,402.238588 418.359325,399.869095 418.359325,396.946588 C418.359325,394.024081 420.728818,391.654588 423.651325,391.654588 C426.573832,391.654588 428.943325,394.024081 428.943325,396.946588" id="Fill-16" fill="#1B1B1B"></path>
                        <polygon id="Fill-17" fill="#F16034" points="381.97656 419.271552 409.75956 419.271552 409.75956 328.646052 381.97656 328.646052"></polygon>
                        <polygon id="Fill-18" fill="#FFFFFF" points="391.23756 374.620302 400.49856 374.620302 400.49856 337.907052 391.23756 337.907052"></polygon>
                        <path d="M401.160325,396.946588 C401.160325,399.869095 398.790832,402.238588 395.868325,402.238588 C392.945818,402.238588 390.576325,399.869095 390.576325,396.946588 C390.576325,394.024081 392.945818,391.654588 395.868325,391.654588 C398.790832,391.654588 401.160325,394.024081 401.160325,396.946588" id="Fill-19" fill="#1B1B1B"></path>
                        <path d="M376.989776,568.514022 C367.796249,568.514022 360.316007,575.992941 360.316007,585.187791 C360.316007,594.381318 367.796249,601.860237 376.989776,601.860237 C386.183303,601.860237 393.663545,594.381318 393.663545,585.187791 C393.663545,575.992941 386.183303,568.514022 376.989776,568.514022 M376.989776,604.506237 C366.33698,604.506237 357.670007,595.839264 357.670007,585.187791 C357.670007,574.534995 366.33698,565.868022 376.989776,565.868022 C387.642572,565.868022 396.309545,574.534995 396.309545,585.187791 C396.309545,595.839264 387.642572,604.506237 376.989776,604.506237" id="Fill-20" fill="#4B5B47"></path>
                        <polygon id="Fill-21" fill="#659F7A" points="313.48485 672.505659 440.494173 672.505659 440.494173 585.187659 313.48485 585.187659"></polygon>
                        <polygon id="Fill-22" fill="#4B5B47" points="427.264173 672.505659 440.494173 672.505659 440.494173 585.187659 427.264173 585.187659"></polygon>
                        <polygon id="Fill-23" fill="#4B5B47" points="313.48485 630.169659 427.264173 630.169659 427.264173 627.523659 313.48485 627.523659"></polygon>
                        <polygon id="Fill-24" fill="#FFFFFF" points="361.114173 639.430659 379.636173 639.430659 379.636173 627.523659 361.114173 627.523659"></polygon>
                        <path d="M149.407978,239.520569 C145.517035,257.547767 138.997291,274.908173 133.791286,292.600652 C128.433136,310.81307 123.028681,329.340362 123.094831,348.324089 C123.179503,373.016561 132.978964,397.546304 149.930563,415.500737 C156.573346,422.536451 164.328772,428.684432 169.446136,436.896293 C174.562177,445.109477 176.447452,456.386729 170.734738,464.196398 C162.491125,475.46042 144.855535,473.019485 132.800359,480.056522 C117.62158,488.91533 115.512718,511.49894 124.166461,526.795466 C132.820204,542.091992 172.227082,585.856832 228.454582,575.018816 C253.619365,570.168698 287.731597,546.218429 286.757869,520.607795 C285.745774,493.940084 260.279347,472.339463 261.145912,445.66646 C261.714802,428.192276 273.463042,413.423627 283.63162,399.2027 C293.801521,384.981773 303.275524,367.654442 298.593427,350.810006 C291.70192,326.013017 259.767346,318.35417 244.302799,297.78152 C234.344578,284.534321 232.151044,267.109088 231.533203,250.546451 C230.914039,233.985137 231.337399,217.01237 225.812551,201.38774 C212.413207,163.489082 164.83945,168.009773 149.407978,239.520569" id="Fill-25" fill="#659F7A"></path>
                        <polygon id="Fill-26" fill="#3F5439" points="207.1818 622.239597 209.8278 622.239597 209.8278 334.817847 207.1818 334.817847"></polygon>
                        <path d="M209.809146,417.867849 L207.198867,417.437874 C211.477449,391.436955 241.046499,375.267249 242.304672,374.591196 L243.557553,376.922322 C243.261201,377.081082 213.874725,393.162147 209.809146,417.867849" id="Fill-27" fill="#3F5439"></path>
                        <path d="M207.199396,531.054071 C204.304672,513.468755 183.358936,502.023482 183.147256,501.909704 L184.40146,499.578578 C185.310361,500.066765 206.705917,511.7687 209.809675,530.624096 L207.199396,531.054071 Z" id="Fill-28" fill="#3F5439"></path>
                        <path d="M223.165757,672.505262 L193.390319,672.505262 C175.308878,672.505262 160.650038,657.847745 160.650038,639.764981 L160.650038,612.3167 L255.906038,612.3167 L255.906038,639.764981 C255.906038,657.847745 241.247198,672.505262 223.165757,672.505262" id="Fill-29" fill="#F16034"></path>
                        <path d="M177.561021,669.935467 C166.314198,664.021657 159.327435,652.461283 159.327435,639.764452 L159.327435,629.671285 L161.973435,629.671285 L161.973435,639.764452 C161.973435,651.475648 168.417768,662.137705 178.794057,667.592434 L177.561021,669.935467 Z" id="Fill-30" fill="#3F5439"></path>
                        <polygon id="Fill-31" fill="#FFFFFF" points="160.650567 623.562597 255.906567 623.562597 255.906567 620.916597 160.650567 620.916597"></polygon>
                        <polygon id="Fill-43" fill="#3F5439" points="195.229818 613.640097 255.906567 613.640097 255.906567 610.994097 195.229818 610.994097"></polygon>
                        <path d="M822.573266,72.7152741 C823.494074,64.3869891 825.924424,58.7099961 831.692705,55.5824241 C848.79248,46.3081941 891.706631,61.3546731 909.549931,84.5680311 C934.434239,116.940518 911.739497,166.719716 887.568286,169.897562 C859.44263,173.595347 817.815758,115.716743 822.573266,72.7152741" id="Fill-44" fill="#D4E2D2"></path>
                        <path d="M413.180441,127.152094 C379.774691,127.152094 352.596302,154.32916 352.596302,187.736233 C352.596302,221.141983 379.774691,248.320372 413.180441,248.320372 C446.586191,248.320372 473.76458,221.141983 473.76458,187.736233 C473.76458,154.32916 446.586191,127.152094 413.180441,127.152094 M413.180441,250.966372 C378.314099,250.966372 349.950302,222.601252 349.950302,187.736233 C349.950302,152.871214 378.314099,124.506094 413.180441,124.506094 C448.046783,124.506094 476.41058,152.871214 476.41058,187.736233 C476.41058,222.601252 448.046783,250.966372 413.180441,250.966372" id="Fill-45" fill="#659F7A"></path>
                        <path d="M466.100441,187.736233 C466.100441,216.962626 442.406834,240.656233 413.180441,240.656233 C383.954048,240.656233 360.260441,216.962626 360.260441,187.736233 C360.260441,158.50984 383.954048,134.816233 413.180441,134.816233 C442.406834,134.816233 466.100441,158.50984 466.100441,187.736233" id="Fill-46" fill="#659F7A"></path>
                        <path d="M413.180441,136.139233 C384.729326,136.139233 361.583441,159.285118 361.583441,187.736233 C361.583441,216.187348 384.729326,239.333233 413.180441,239.333233 C441.631556,239.333233 464.777441,216.187348 464.777441,187.736233 C464.777441,159.285118 441.631556,136.139233 413.180441,136.139233 M413.180441,241.979233 C383.27138,241.979233 358.937441,217.645294 358.937441,187.736233 C358.937441,157.827172 383.27138,133.493233 413.180441,133.493233 C443.089502,133.493233 467.423441,157.827172 467.423441,187.736233 C467.423441,217.645294 443.089502,241.979233 413.180441,241.979233" id="Fill-47" fill="#FFFFFF"></path>
                        <path d="M413.180441,134.816233 L413.180441,145.946632 L413.180441,134.816233 Z" id="Fill-48" fill="#40327A"></path>
                        <polygon id="Fill-49" fill="#FFFFFF" points="411.857838 145.946367 414.503838 145.946367 414.503838 134.815968 411.857838 134.815968"></polygon>
                        <path d="M413.180441,229.525701 L413.180441,240.6561 L413.180441,229.525701 Z" id="Fill-50" fill="#40327A"></path>
                        <polygon id="Fill-51" fill="#FFFFFF" points="411.857838 240.655968 414.503838 240.655968 414.503838 229.525569 411.857838 229.525569"></polygon>
                        <path d="M386.720441,141.906057 L392.286302,151.545435 L386.720441,141.906057 Z" id="Fill-52" fill="#40327A"></path>
                        <polygon id="Fill-53" fill="#FFFFFF" points="391.140319 152.207068 385.574458 142.56769 387.865894 141.24469 393.431756 150.884068"></polygon>
                        <path d="M434.075109,223.926765 L439.64097,233.566143 L434.075109,223.926765 Z" id="Fill-54" fill="#40327A"></path>
                        <polygon id="Fill-55" fill="#FFFFFF" points="438.494459 234.227908 432.928598 224.58853 435.220033 223.26553 440.785895 232.904908"></polygon>
                        <path d="M367.350266,161.276233 L376.989644,166.842094 L367.350266,161.276233 Z" id="Fill-56" fill="#40327A"></path>
                        <polygon id="Fill-57" fill="#FFFFFF" points="376.328938 167.987415 366.68956 162.421554 368.01256 160.130118 377.651938 165.695979"></polygon>
                        <path d="M449.370974,208.630901 L459.010352,214.196762 L449.370974,208.630901 Z" id="Fill-58" fill="#40327A"></path>
                        <polygon id="Fill-59" fill="#FFFFFF" points="458.348455 215.342215 448.7104 209.776354 450.0334 207.484918 459.671455 213.050779"></polygon>
                        <path d="M360.260441,187.736233 L371.39084,187.736233 L360.260441,187.736233 Z" id="Fill-60" fill="#40327A"></path>
                        <polygon id="Fill-61" fill="#FFFFFF" points="360.260838 189.058968 371.391237 189.058968 371.391237 186.412968 360.260838 186.412968"></polygon>
                        <path d="M454.96991,187.736233 L466.100309,187.736233 L454.96991,187.736233 Z" id="Fill-62" fill="#40327A"></path>
                        <polygon id="Fill-63" fill="#FFFFFF" points="454.970439 189.058968 466.100838 189.058968 466.100838 186.412968 454.970439 186.412968"></polygon>
                        <path d="M367.350266,214.196233 L376.989644,208.630372 L367.350266,214.196233 Z" id="Fill-64" fill="#40327A"></path>
                        <polygon id="Fill-65" fill="#FFFFFF" points="368.012295 215.342215 366.689295 213.050779 376.328673 207.484918 377.651673 209.776354"></polygon>
                        <path d="M449.370974,166.841432 L459.010352,161.275571 L449.370974,166.841432 Z" id="Fill-66" fill="#40327A"></path>
                        <polygon id="Fill-67" fill="#FFFFFF" points="450.033135 167.987415 448.710135 165.695979 458.34819 160.130118 459.67119 162.421554"></polygon>
                        <path d="M386.720441,233.566408 L392.286302,223.92703 L386.720441,233.566408 Z" id="Fill-68" fill="#40327A"></path>
                        <polygon id="Fill-69" fill="#FFFFFF" points="387.866424 234.227908 385.574988 232.904908 391.140849 223.26553 393.432285 224.58853"></polygon>
                        <path d="M434.075109,151.545568 L439.64097,141.90619 L434.075109,151.545568 Z" id="Fill-70" fill="#40327A"></path>
                        <polygon id="Fill-71" fill="#FFFFFF" points="435.22043 152.207068 432.928994 150.884068 438.494855 141.24469 440.786291 142.56769"></polygon>
                        <polygon id="Fill-72" fill="#FFFFFF" points="438.322601 189.059233 411.857309 189.059233 411.857309 155.497369 414.503309 155.497369 414.503309 186.413233 438.322601 186.413233"></polygon>
                        <polygon id="Fill-77" fill="#659F7A" points="528.539823 24.973893 531.185823 24.973893 531.185823 17.551863 528.539823 17.551863"></polygon>
                        <polygon id="Fill-78" fill="#659F7A" points="528.539823 69.503427 531.185823 69.503427 531.185823 62.08272 528.539823 62.08272"></polygon>
                        <polygon id="Fill-79" fill="#659F7A" points="519.439038 28.1215746 515.728023 21.6944406 518.020782 20.3714406 521.730474 26.7985746"></polygon>
                        <polygon id="Fill-80" fill="#659F7A" points="541.703938 66.6855693 537.992923 60.2584353 540.285682 58.9354353 543.995374 65.3625693"></polygon>
                        <polygon id="Fill-81" fill="#659F7A" points="513.132826 35.3974131 506.705692 31.6863981 508.028692 29.3949621 514.455826 33.1059771"></polygon>
                        <polygon id="Fill-82" fill="#659F7A" points="551.697483 57.6623124 545.270349 53.9512974 546.593349 51.6598614 553.020483 55.3708764"></polygon>
                        <polygon id="Fill-83" fill="#659F7A" points="503.888364 44.851968 511.309071 44.851968 511.309071 42.205968 503.888364 42.205968"></polygon>
                        <polygon id="Fill-84" fill="#659F7A" points="548.417898 44.851968 555.838605 44.851968 555.838605 42.205968 548.417898 42.205968"></polygon>
                        <polygon id="Fill-85" fill="#659F7A" points="508.028163 57.6623124 506.705163 55.3708764 513.132297 51.6598614 514.455297 53.9512974"></polygon>
                        <polygon id="Fill-86" fill="#659F7A" points="546.59282 35.3974131 545.26982 33.1059771 551.696954 29.3949621 553.019954 31.6863981"></polygon>
                        <polygon id="Fill-87" fill="#659F7A" points="518.020385 66.6855693 515.728949 65.3625693 519.438641 58.9354353 521.7314 60.2584353"></polygon>
                        <polygon id="Fill-88" fill="#659F7A" points="540.285285 28.1215746 537.993849 26.7985746 541.703541 20.3714406 543.9963 21.6944406"></polygon>
                        <polygon id="Fill-89" fill="#568D6A" points="697.657061 472.192213 639.523118 672.504997 632.841968 672.504997 680.377358 472.192213"></polygon>
                        <polygon id="Fill-90" fill="#568D6A" points="758.445339 472.192213 816.579282 672.504997 823.260432 672.504997 775.725042 472.192213"></polygon>
                        <path d="M630.149134,443.619779 C630.149134,497.689466 673.981447,541.521779 728.051134,541.521779 C782.120821,541.521779 825.953134,497.689466 825.953134,443.619779 C825.953134,389.550092 782.120821,345.717779 728.051134,345.717779 C673.981447,345.717779 630.149134,389.550092 630.149134,443.619779" id="Fill-91" fill="#F16034"></path>
                        <path d="M822.277443,474.798127 L819.766389,473.967283 C821.488935,468.758632 822.772245,463.359469 823.577952,457.920616 L826.196169,458.309578 C825.366648,463.89793 824.04894,469.445269 822.277443,474.798127" id="Fill-92" fill="#FCB027"></path>
                        <path d="M728.051134,542.844779 C712.196302,542.844779 697.043983,539.217113 683.020183,532.062329 L684.221467,529.704743 C697.870858,536.667692 712.618339,540.198779 728.051134,540.198779 C766.281865,540.198779 800.973571,517.59797 816.431503,482.620496 L818.852593,483.690803 C802.971301,519.626129 767.328358,542.844779 728.051134,542.844779" id="Fill-93" fill="#FCB027"></path>
                        <path d="M683.620825,435.282498 C683.620825,452.272464 697.391932,466.043571 714.381898,466.043571 C731.370541,466.043571 745.142971,452.272464 745.142971,435.282498 C745.142971,418.293855 731.370541,404.521425 714.381898,404.521425 C697.391932,404.521425 683.620825,418.293855 683.620825,435.282498" id="Fill-94" fill="#AB9AF7"></path>
                        <path d="M540.26716,407.136467 C539.002372,403.708574 540.75667,399.904949 544.18324,398.640161 C547.611133,397.375373 551.414758,399.129671 552.679546,402.556241 C553.943011,405.984134 552.190036,409.787759 548.762143,411.052547 C545.335573,412.317335 541.531948,410.56436 540.26716,407.136467" id="Fill-95" fill="#FF95A9"></path>
                        <path d="M679.140221,338.277889 C679.140221,347.777029 686.840081,355.476889 696.339221,355.476889 C705.838361,355.476889 713.538221,347.777029 713.538221,338.277889 C713.538221,328.778749 705.838361,321.078889 696.339221,321.078889 C686.840081,321.078889 679.140221,328.778749 679.140221,338.277889" id="Fill-96" fill="#AB9AF7"></path>
                        <path d="M530.449309,398.597693 L530.450632,398.606954 C529.454413,398.629445 528.444964,398.805404 527.456683,399.170552 C522.658162,400.940726 520.203997,406.265801 521.974171,411.064322 C523.744345,415.862843 529.06942,418.317008 533.867941,416.546834 L548.762275,411.052415 L546.32134,398.231222 L530.449309,398.597693 Z" id="Fill-97" fill="#FF95A9"></path>
                        <path d="M618.120682,372.144175 C620.51002,378.621583 627.695233,381.933052 634.171318,379.545037 C640.64608,377.155699 643.958872,369.969163 641.570857,363.493078 C639.181519,357.018316 631.994983,353.704201 625.520221,356.093539 C619.044136,358.482877 615.731344,365.66809 618.120682,372.144175" id="Fill-98" fill="#FF95A9"></path>
                        <polygon id="Fill-99" fill="#D7A16F" points="688.334012 323.052408 624.029597 356.755833 634.171715 379.544508 702.291662 354.414123"></polygon>
                        <polygon id="Fill-100" fill="#FF95A9" points="624.032905 356.754642 543.396055 398.988771 548.762143 411.053208 634.171054 379.54464"></polygon>
                        <path d="M674.799061,660.598262 C674.799061,665.347832 670.949131,669.197762 666.199561,669.197762 C661.449991,669.197762 657.600061,665.347832 657.600061,660.598262 C657.600061,655.848692 661.449991,651.998762 666.199561,651.998762 C670.949131,651.998762 674.799061,655.848692 674.799061,660.598262" id="Fill-101" fill="#40327A"></path>
                        <path d="M683.620825,435.283821 L683.620825,435.282498 L710.826997,435.282498 L745.142971,435.282498 L748.458409,437.859702 C759.627175,446.538582 766.161472,459.890298 766.161472,474.034491 L766.161472,487.265814 C766.161472,497.49525 757.868908,505.787814 747.639472,505.787814 L694.210117,505.787814 C683.979358,505.787814 675.686794,497.493927 675.688117,487.265814 L675.688117,469.146006 C675.688117,457.399089 678.404236,445.809609 683.620825,435.283821" id="Fill-102" fill="#1D3559"></path>
                        <path d="M772.104255,408.320023 C771.212553,401.474821 776.038857,395.203801 782.881413,394.312099 C789.726615,393.420397 795.998958,398.246701 796.889337,405.09058 C797.781039,411.934459 792.956058,418.206802 786.112179,419.097181 C779.266977,419.988883 772.995957,415.163902 772.104255,408.320023" id="Fill-103" fill="#D7A16F"></path>
                        <polygon id="Fill-104" fill="#D7A16F" points="776.290227 333.509135 796.505667 403.240496 773.043585 411.703727 744.001089 345.156827"></polygon>
                        <path d="M679.167342,339.073012 L683.62056,435.282895 L745.142706,435.282895 L770.566797,334.245385 C772.247007,327.561589 767.19447,321.078889 760.30164,321.078889 L696.34782,321.078889 C686.537775,321.078889 678.713553,329.272228 679.167342,339.073012" id="Fill-105" fill="#FCB027"></path>
                        <path d="M712.474925,332.324918 C715.761257,341.236646 711.203522,351.126071 702.291794,354.413726 C693.378743,357.701381 683.490641,353.142323 680.201663,344.230595 C676.915331,335.318867 681.473066,325.429442 690.386117,322.141787 C699.297845,318.854132 709.18727,323.41319 712.474925,332.324918" id="Fill-106" fill="#FCB027"></path>
                        <path d="M722.852141,353.164153 L701.653712,382.730557 L701.412926,382.557244 C697.438634,388.276573 690.176687,391.175266 683.069531,389.28073 C673.979198,386.85964 668.589296,377.537782 671.006417,368.460679 C671.57663,366.32668 672.526544,364.403038 673.764872,362.733412 L673.682846,362.684461 L694.879952,333.116734 L722.852141,353.164153 Z" id="Fill-107" fill="#FCB027"></path>
                        <path d="M766.642911,354.040772 C757.937571,357.840428 747.799422,353.86349 744.001089,345.156827 C740.201433,336.451487 744.179694,326.313338 752.885034,322.515005 C761.590374,318.715349 771.728523,322.692287 775.526856,331.39895 C779.326512,340.10429 775.348251,350.241116 766.642911,354.040772" id="Fill-108" fill="#FCB027"></path>
                        <polygon id="Fill-109" fill="#FCB027" points="744.002148 345.159606 762.935601 388.544745 789.461751 378.974163 776.28864 333.507945"></polygon>
                        <polygon id="Fill-110" fill="#FCB027" points="702.291398 354.413461 657.880933 370.797493 646.415816 345.033391 688.339039 323.051746"></polygon>
                        <path d="M694.211307,505.783977 C683.981871,505.783977 675.689307,497.49009 675.689307,487.261977 C675.689307,477.032541 683.981871,468.739977 694.211307,468.739977 C704.43942,468.739977 712.733307,477.032541 712.733307,487.261977 C712.733307,497.49009 704.43942,505.783977 694.211307,505.783977" id="Fill-111" fill="#1D3559"></path>
                        <path d="M766.161075,487.261977 C766.161075,497.49009 757.868511,505.783977 747.639075,505.783977 C737.410962,505.783977 729.117075,497.49009 729.117075,487.261977 C729.117075,477.032541 737.410962,468.739977 747.639075,468.739977 C757.868511,468.739977 766.161075,477.032541 766.161075,487.261977" id="Fill-112" fill="#1D3559"></path>
                        <path d="M657.601384,660.598262 L674.799061,660.598262 L674.799061,672.505262 L650.703262,672.505262 C648.667165,672.505262 647.016061,670.855481 647.016061,668.818061 C647.016061,667.49903 647.72122,666.279224 648.864292,665.621693 L657.601384,660.598262 Z" id="Fill-113" fill="#0D1D35"></path>
                        <path d="M648.33787,490.821376 C648.33787,499.084834 641.639521,505.784507 633.37474,505.784507 C625.109959,505.784507 618.41161,499.084834 618.41161,490.821376 C618.41161,482.556596 625.109959,475.856923 633.37474,475.856923 C641.639521,475.856923 648.33787,482.556596 648.33787,490.821376" id="Fill-114" fill="#1D3559"></path>
                        <polygon id="Fill-115" fill="#1D3559" points="618.6647 494.105724 657.701138 661.922982 674.696396 659.274336 648.23375 489.496392"></polygon>
                        <path d="M718.095029,660.598262 C718.095029,665.347832 714.245099,669.197762 709.495529,669.197762 C704.745959,669.197762 700.896029,665.347832 700.896029,660.598262 C700.896029,655.848692 704.745959,651.998762 709.495529,651.998762 C714.245099,651.998762 718.095029,655.848692 718.095029,660.598262" id="Fill-116" fill="#40327A"></path>
                        <path d="M700.896029,660.598262 L718.095029,660.598262 L718.095029,672.505262 L693.99923,672.505262 C691.96181,672.505262 690.312029,670.855481 690.312029,668.818061 C690.312029,667.49903 691.017188,666.279224 692.16026,665.621693 L700.896029,660.598262 Z" id="Fill-117" fill="#0D1D35"></path>
                        <path d="M691.633839,490.821376 C691.633839,499.084834 684.93549,505.784507 676.670709,505.784507 C668.405928,505.784507 661.707579,499.084834 661.707579,490.821376 C661.707579,482.556596 668.405928,475.856923 676.670709,475.856923 C684.93549,475.856923 691.633839,482.556596 691.633839,490.821376" id="Fill-118" fill="#40327A"></path>
                        <polygon id="Fill-119" fill="#1D3559" points="661.960536 494.105724 700.996974 661.922982 717.992232 659.274336 691.529586 489.496392"></polygon>
                        <polygon id="Fill-120" fill="#D7A16F" points="703.858491 321.078492 732.964491 321.078492 732.964491 285.238422 703.858491 285.238422"></polygon>
                        <path d="M732.964623,321.078889 C732.964623,329.116114 726.448848,335.631889 718.411623,335.631889 C710.374398,335.631889 703.858623,329.116114 703.858623,321.078889 C703.858623,313.041664 710.374398,306.525889 718.411623,306.525889 C726.448848,306.525889 732.964623,313.041664 732.964623,321.078889" id="Fill-121" fill="#D7A16F"></path>
                        <path d="M723.876672,281.414687 C723.876672,292.85996 733.154871,302.136836 744.598821,302.136836 C756.042771,302.136836 765.32097,292.85996 765.32097,281.414687 C765.32097,269.970737 756.042771,260.692538 744.598821,260.692538 C733.154871,260.692538 723.876672,269.970737 723.876672,281.414687" id="Fill-122" fill="#1B1B1B"></path>
                        <path d="M666.668564,254.272549 C666.668564,229.019125 687.132728,208.556284 712.386152,208.556284 C737.639576,208.556284 758.102417,229.019125 758.102417,254.272549 C758.102417,279.525973 737.639576,299.990137 712.386152,299.990137 L689.078861,276.684169 C676.702196,276.684169 666.668564,266.650537 666.668564,254.272549" id="Fill-123" fill="#1B1B1B"></path>
                        <path d="M734.287623,276.837107 L727.672623,276.837107 L727.672623,263.607107 L734.287623,263.607107 C737.941749,263.607107 740.902623,266.569304 740.902623,270.222107 C740.902623,273.876233 737.941749,276.837107 734.287623,276.837107" id="Fill-124" fill="#D7A16F"></path>
                        <path d="M683.246151,238.45529 L732.964491,238.45529 L732.964491,302.635343 L702.085671,302.635343 C689.723559,302.635343 679.921452,292.20878 680.6835,279.870482 L683.246151,238.45529 Z" id="Fill-125" fill="#D7A16F"></path>
                        <path d="M732.964623,263.607107 L734.287623,263.607107 L734.287623,225.393575 L694.905882,225.393575 C684.505779,225.393575 676.075623,233.823731 676.075623,244.223834 L676.075623,244.972652 L677.398623,244.972652 C688.665291,244.972652 699.622377,248.647946 708.609516,255.438905 L708.609516,255.440228 C715.622739,260.740166 724.173288,263.607107 732.964623,263.607107" id="Fill-126" fill="#1B1B1B"></path>
                        <polygon id="Fill-127" fill="#4B5B47" points="642.532149 419.270229 706.036149 419.270229 706.036149 411.332229 642.532149 411.332229"></polygon>
                        <polygon id="Fill-128" fill="#659F7A" points="647.655599 419.272213 520.647599 419.272213 520.634369 419.126683 519.721499 399.334603 516.427229 328.646713 643.436552 328.646713 646.730822 399.480133"></polygon>
                        <path d="M572.788616,373.955495 C573.026756,379.070213 577.366196,383.216495 582.482237,383.216495 C587.595632,383.216495 591.548756,379.070213 591.310616,373.955495 C591.072476,368.8421 586.733036,364.694495 581.618318,364.694495 C576.5036,364.694495 572.550476,368.8421 572.788616,373.955495" id="Fill-129" fill="#FFFFFF"></path>
                        <polygon id="Fill-130" fill="#568D6A" points="647.655599 419.272214 519.721499 419.272214 520.634369 419.126684 646.730822 399.480134"></polygon>
                        <polygon id="Fill-131" fill="#1D3559" points="692.027828 468.867911 631.61171 475.960514 633.375269 505.78358 694.210778 505.78358"></polygon>
                        <path d="M687.216474,410.465929 C686.017836,413.916313 687.844899,417.68554 691.296606,418.884178 C694.74699,420.082816 698.516217,418.255753 699.713532,414.802723 C700.913493,411.352339 699.08643,407.583112 695.6334,406.385797 C692.183016,405.188482 688.413789,407.014222 687.216474,410.465929" id="Fill-132" fill="#FF95A9"></path>
                        <path d="M674.562641,418.677922 C675.557537,419.023225 676.570955,419.179339 677.567174,419.183308 L677.565851,419.192569 L693.441851,419.252104 L695.634062,406.385929 L680.636534,401.179924 C675.803615,399.50236 670.527491,402.059719 668.85125,406.892638 C667.173686,411.724234 669.731045,417.000358 674.562641,418.677922" id="Fill-133" fill="#D7A16F"></path>
                        <polygon id="Fill-134" fill="#D7A16F" points="784.487932 419.203682 693.46024 419.249987 692.610874 406.075553 782.88181 394.31276"></polygon>
                        <path d="M702.952912,282.210472 C702.960835,286.229746 699.708901,289.493587 695.689627,289.501535 C691.671676,289.50814 688.407835,286.257529 688.399897,282.238255 L702.952912,282.210472 Z" id="Fill-137" fill="#FFFFFF"></path>
                        <polygon id="Fill-140" fill="#4B5B47" points="646.333922 419.334262 642.113552 328.707439 644.756906 328.585723 648.977276 419.211223"></polygon>
                        <polygon id="Fill-141" fill="#568D6A" points="363.938646 419.269567 362.549496 432.499568 336.235026 672.504997 329.553876 672.504997 349.306266 419.269567"></polygon>
                        <polygon id="Fill-142" fill="#568D6A" points="981.235099 419.269567 982.624249 432.499568 1008.93872 672.504997 1015.61987 672.504997 995.868802 419.269567"></polygon>
                        <polygon id="Fill-143" fill="#659F7A" points="335.051073 432.500229 1007.78202 432.500229 1007.78202 419.270229 335.051073 419.270229"></polygon>
                        <path d="M335.050412,432.499568 L512.251709,432.499568 L335.050412,432.499568 Z" id="Fill-144" fill="#F8F7FF"></path>
                        <polygon id="Fill-145" fill="#4B5B47" points="335.051073 433.823229 512.25237 433.823229 512.25237 431.177229 335.051073 431.177229"></polygon>
                        <path d="M598.053551,432.499568 L891.567716,432.499568 L598.053551,432.499568 Z" id="Fill-146" fill="#4B5B47"></path>
                        <polygon id="Fill-147" fill="#4B5B47" points="598.054212 433.823229 891.568377 433.823229 891.568377 431.177229 598.054212 431.177229"></polygon>
                        <path d="M931.689807,432.499568 L1007.78215,432.499568 L931.689807,432.499568 Z" id="Fill-148" fill="#4B5B47"></path>
                        <polygon id="Fill-149" fill="#4B5B47" points="931.689675 433.823229 1007.7807 433.823229 1007.7807 431.177229 931.689675 431.177229"></polygon>
                        <path d="M906.0928,432.499568 L918.302767,432.499568 L906.0928,432.499568 Z" id="Fill-150" fill="#F8F7FF"></path>
                        <polygon id="Fill-151" fill="#4B5B47" points="906.092271 433.823229 918.303561 433.823229 918.303561 431.177229 906.092271 431.177229"></polygon>
                        <polygon id="Fill-152" fill="#4B5B47" points="909.783441 419.270229 912.429441 419.270229 912.429441 383.905116 909.783441 383.905116"></polygon>
                        <path d="M862.511328,276.409514 L819.443709,248.11319 C824.828319,239.919851 840.876309,227.274617 853.582401,223.813649 L864.923157,206.552468 L882.614313,218.176346 L871.273557,235.436204 C873.129726,248.465108 867.894615,268.216175 862.511328,276.409514" id="Fill-153" fill="#659F7A"></path>
                        <path d="M831.916953,242.407488 L830.187792,240.403143 C836.311959,235.121727 845.854758,228.660195 854.276976,226.366113 L855.244089,226.102836 L864.954909,211.32228 L867.166965,212.776257 L856.905777,228.392949 L854.972874,228.919503 C848.283786,230.741274 839.448792,235.908912 831.916953,242.407488" id="Fill-154" fill="#FFFFFF"></path>
                        <path d="M826.190877,248.012774 L824.198439,246.273029 C825.12057,245.215952 826.180293,244.109924 827.348502,242.986697 L829.183503,244.89314 C828.07086,245.963447 827.064057,247.013909 826.190877,248.012774" id="Fill-155" fill="#FFFFFF"></path>
                        <path d="M863.617356,277.134915 L861.4053,275.682261 C866.826954,267.429387 871.747191,248.133432 869.963787,235.623144 L869.893668,235.127019 L881.506962,217.449093 L883.719018,218.90307 L872.6508,235.748829 C874.315134,248.826684 869.220261,268.605534 863.617356,277.134915" id="Fill-156" fill="#4B5B47"></path>
                        <path d="M862.511328,276.409514 L819.443709,248.11319 L862.511328,276.409514 Z" id="Fill-157" fill="#DDD6FF"></path>
                        <polygon id="Fill-158" fill="#4B5B47" points="857.285213 227.828028 854.181455 225.789285 855.634109 223.578552 858.737867 225.615972"></polygon>
                        <polygon id="Fill-159" fill="#4B5B47" points="870.547627 236.541835 859.6342 229.372498 861.086854 227.160442 872.000281 234.329779"></polygon>
                        <polygon id="Fill-160" fill="#659F7A" points="880.677441 419.270229 941.535441 419.270229 941.535441 411.332229 880.677441 411.332229"></polygon>
                        <polygon id="Fill-161" fill="#4B5B47" points="895.501656 412.655229 902.296584 412.655229 902.296584 410.009229 895.501656 410.009229"></polygon>
                        <polygon id="Fill-162" fill="#4B5B47" points="905.440032 412.655229 941.535441 412.655229 941.535441 410.009229 905.440032 410.009229"></polygon>
                        <path d="M959.636859,555.55021 C959.636859,569.645452 948.208785,581.073526 934.113543,581.073526 C920.018301,581.073526 908.590227,569.645452 908.590227,555.55021 C908.590227,541.454968 920.018301,530.026894 934.113543,530.026894 C948.208785,530.026894 959.636859,541.454968 959.636859,555.55021" id="Fill-163" fill="#FFFFFF"></path>
                        <path d="M934.113543,531.351217 C920.769765,531.351217 909.913227,542.206432 909.913227,555.55021 C909.913227,568.893988 920.769765,579.750526 934.113543,579.750526 C947.457321,579.750526 958.312536,568.893988 958.312536,555.55021 C958.312536,542.206432 947.457321,531.351217 934.113543,531.351217 M934.113543,582.396526 C919.310496,582.396526 907.267227,570.353257 907.267227,555.55021 C907.267227,540.748486 919.310496,528.705217 934.113543,528.705217 C948.915267,528.705217 960.958536,540.748486 960.958536,555.55021 C960.958536,570.353257 948.915267,582.396526 934.113543,582.396526" id="Fill-164" fill="#4B5B47"></path>
                        <path d="M919.861658,564.302252 C919.861658,574.448339 911.636567,582.672107 901.491803,582.672107 C891.347039,582.672107 883.121948,574.448339 883.121948,564.302252 C883.121948,554.157488 891.347039,545.93372 901.491803,545.93372 C911.636567,545.93372 919.861658,554.157488 919.861658,564.302252" id="Fill-165" fill="#FFFFFF"></path>
                        <path d="M901.492068,547.256984 C892.093476,547.256984 884.445213,554.903924 884.445213,564.303839 C884.445213,573.702431 892.093476,581.349371 901.492068,581.349371 C910.89066,581.349371 918.5376,573.702431 918.5376,564.303839 C918.5376,554.903924 910.89066,547.256984 901.492068,547.256984 M901.492068,583.995371 C890.634207,583.995371 881.799213,575.1617 881.799213,564.303839 C881.799213,553.444655 890.634207,544.610984 901.492068,544.610984 C912.349929,544.610984 921.1836,553.444655 921.1836,564.303839 C921.1836,575.1617 912.349929,583.995371 901.492068,583.995371" id="Fill-166" fill="#4B5B47"></path>
                        <polygon id="Fill-167" fill="#659F7A" points="967.791964 558.198856 966.058834 571.521466 965.728084 574.167466 961.018204 610.523506 955.276384 654.750073 954.707494 659.170216 952.974364 672.504733 878.529154 672.504733 876.797347 659.170216 876.452044 656.524216 872.285917 624.348856 865.776757 574.167466 865.446007 571.521466 863.711554 558.198856"></polygon>
                        <polygon id="Fill-168" fill="#568D6A" points="961.018071 610.523241 955.276251 654.751131 954.707361 659.171274 952.974231 672.505791 878.529021 672.505791 876.797214 659.171274 876.451911 656.525274 872.285784 624.348591"></polygon>
                        <polygon id="Fill-169" fill="#FFFFFF" points="888.180703 657.727484 885.547933 657.966947 885.415633 656.524877 877.821613 574.168127 877.715773 572.964197 880.361773 572.724734 880.494073 574.168127 888.074863 656.524877"></polygon>
                        <polygon id="Fill-170" fill="#FFFFFF" points="897.099311 657.922495 892.418537 572.919745 895.059245 572.775538 899.740019 657.778288"></polygon>
                        <polygon id="Fill-171" fill="#FFFFFF" points="908.656113 657.874734 907.114818 572.871984 909.760818 572.823033 911.302113 657.825783"></polygon>
                        <polygon id="Fill-172" fill="#FFFFFF" points="922.86037 657.874734 920.21437 657.825783 921.813877 572.823033 924.459877 572.871984"></polygon>
                        <polygon id="Fill-173" fill="#FFFFFF" points="934.415849 657.923818 931.775141 657.776965 936.51545 572.774215 939.156158 572.921068"></polygon>
                        <polygon id="Fill-174" fill="#FFFFFF" points="953.853894 572.963668 953.748054 574.167598 946.102437 656.524348 945.968814 657.966418 943.337367 657.726955 943.441884 656.524348 951.088824 574.167598 951.222447 572.724205"></polygon>
                        <path d="M955.045123,656.524613 L876.458923,656.524613 L876.802903,659.170613 L954.714373,659.170613 L955.283263,654.75047 L955.283263,654.68432 L955.045123,656.524613 Z M865.451563,571.521863 L865.782313,574.167863 L965.734963,574.167863 L966.065713,571.521863 L865.451563,571.521863 Z" id="Fill-175" fill="#FFFFFF"></path>
                        <path d="M863.711686,558.198856 L902.364454,558.198856 L863.711686,558.198856 Z" id="Fill-176" fill="#F8F7FF"></path>
                        <polygon id="Fill-177" fill="#4B5B47" points="863.711289 559.521459 902.362734 559.521459 902.362734 556.875459 863.711289 556.875459"></polygon>
                        <path d="M1029.13445,40.4496855 L998.473921,104.239453 L976.963264,87.5048265 L1028.03503,41.0344515 C1028.08398,40.9841775 1028.02842,40.9034745 1027.96624,40.9352265 L959.862166,74.1941235 L943.069327,61.1334675 L1028.87382,40.1202585 C1029.06036,40.0699845 1029.22176,40.2697575 1029.13445,40.4496855" id="Fill-182" fill="#FFFFFF"></path>
                        <path d="M946.039991,61.7669199 L960.021455,72.6433029 L1018.75472,43.9606629 L946.039991,61.7669199 Z M979.017089,87.4251819 L997.991555,102.188539 L1025.35516,45.2585259 L979.017089,87.4251819 Z M998.954699,106.291162 L974.910497,87.5826189 L1020.61353,45.9967599 L959.698643,75.7444149 L940.099721,60.4981629 L1028.55815,38.8353609 C1029.11645,38.6871849 1029.73826,38.8869579 1030.12193,39.3513309 C1030.50957,39.8183499 1030.59028,40.4745579 1030.327,41.0222799 L998.954699,106.291162 Z" id="Fill-183" fill="#659F7A"></path>
                        <path d="M1028.0349,41.0343192 L976.963132,87.5046942 L962.855983,100.333825 C961.731433,101.35915 959.924215,100.562704 959.920246,99.0399312 L959.862034,74.2006062 L959.862034,74.1939912 L1027.9661,40.9350942 C1028.02829,40.9033422 1028.08385,40.9840452 1028.0349,41.0343192" id="Fill-184" fill="#FFFFFF"></path>
                        <path d="M961.18596,75.0195432 L961.242849,99.0359622 C961.242849,99.2807172 961.404255,99.3878802 961.500834,99.4315392 C961.597413,99.4738752 961.786602,99.5188572 961.96653,99.3548052 L1020.6138,45.9968922 L961.18596,75.0195432 Z M961.687377,102.119875 C961.267986,102.119875 960.840657,102.031234 960.433173,101.852629 C959.303331,101.353858 958.599495,100.276936 958.596849,99.0425772 L958.534668,73.3750542 L959.28084,73.0059372 L1028.39039,39.2548842 L1029.77425,41.1004692 L1028.92356,42.0120162 L963.747288,101.312845 C963.162522,101.843368 962.432226,102.119875 961.687377,102.119875 L961.687377,102.119875 Z" id="Fill-185" fill="#659F7A"></path>
                        <path d="M945.16271,113.955036 L943.671689,111.76944 C947.053277,109.463451 948.859172,107.942001 948.877694,107.926125 L950.588333,109.945023 C950.511599,110.011173 948.671306,111.563052 945.16271,113.955036" id="Fill-186" fill="#659F7A"></path>
                        <path d="M672.977422,90.1313784 C668.459377,89.8257654 663.937363,89.6630364 659.538388,89.6498064 L659.546326,87.0038064 C664.003513,87.0170364 668.582416,87.1824114 673.156027,87.4919934 L672.977422,90.1313784 Z M632.750284,91.4874534 L632.362645,88.8692364 C636.724576,88.2249354 641.28628,87.7393944 645.924718,87.4284894 L646.102,90.0678744 C641.533681,90.3748104 637.042096,90.8510904 632.750284,91.4874534 L632.750284,91.4874534 Z M699.664978,93.5314884 C695.222344,92.7072594 690.749281,92.0060694 686.367505,91.4451174 L686.703547,88.8216084 C691.134274,89.3878524 695.657611,90.0969804 700.147873,90.9291474 L699.664978,93.5314884 Z M725.848471,99.8117694 C721.515646,98.5403664 717.139162,97.3708344 712.836766,96.3362484 L713.454607,93.7643364 C717.799339,94.8081834 722.220805,95.9896224 726.591997,97.2729324 L725.848471,99.8117694 Z M751.316221,108.591197 C747.115696,106.930832 742.863574,105.355139 738.678925,103.911746 L739.541521,101.409953 C743.764537,102.866576 748.05238,104.455499 752.289949,106.130417 L751.316221,108.591197 Z M775.963711,119.531084 L774.853714,118.9913 C771.16519,117.19202 767.427715,115.448306 763.74316,113.810432 L764.818759,111.393311 C768.53242,113.043092 772.297678,114.800036 776.013985,116.613869 L777.113398,117.147038 L775.963711,119.531084 Z M921.156346,126.925331 L920.120437,124.491011 C924.26275,122.726129 928.330975,120.774704 932.212657,118.688333 L933.466861,121.019459 C929.512414,123.142874 925.371424,125.13002 921.156346,126.925331 L921.156346,126.925331 Z M801.152308,129.838577 C796.914739,128.41106 792.622927,126.807584 788.394619,125.074454 L789.400099,122.625581 C793.572841,124.337543 797.811733,125.921174 801.997705,127.330169 L801.152308,129.838577 Z M895.232161,135.388562 L894.630196,132.812681 C898.973605,131.79794 903.322306,130.583426 907.555906,129.202214 L908.377489,131.71856 C904.072447,133.122263 899.649658,134.357945 895.232161,135.388562 L895.232161,135.388562 Z M827.507791,136.707593 C823.100878,135.895271 818.625169,134.897729 814.205026,133.741427 L814.874464,131.182745 C819.231103,132.321848 823.643308,133.304837 827.98804,134.105252 L827.507791,136.707593 Z M868.250899,139.303319 L868.092139,136.662611 C872.551972,136.399334 877.042234,135.941576 881.443855,135.30389 L881.823556,137.922107 C877.34917,138.570377 872.780851,139.036073 868.250899,139.303319 L868.250899,139.303319 Z M854.610769,139.541459 C850.109923,139.434296 845.529697,139.137944 841.001068,138.661664 L841.277575,136.030217 C845.736085,136.498559 850.243546,136.790942 854.675596,136.896782 L854.610769,139.541459 Z" id="Fill-187" fill="#659F7A"></path>
                        <path d="M613.357088,95.9498001 L612.412466,93.4784361 C612.503753,93.4427151 614.706548,92.6079021 618.887228,91.5375951 L619.543436,94.1015691 C615.528131,95.1282171 613.379579,95.9418621 613.357088,95.9498001" id="Fill-188" fill="#DDD6FF"></path>
                        <path d="M521.431344,201.749184 L587.348496,201.749184 L587.348496,157.591413 L521.431344,157.591413 L521.431344,201.749184 Z M518.785344,204.395184 L589.994496,204.395184 L589.994496,154.945413 L518.785344,154.945413 L518.785344,204.395184 Z" id="Fill-189" fill="#659F7A"></path>
                        <polygon id="Fill-190" fill="#659F7A" points="555.268524 187.301495 519.261756 157.285271 520.956519 155.253143 555.224865 183.820682 587.799771 155.274311 589.543485 157.264103"></polygon>
                        <path d="M597.503712,156.269736 C597.503712,161.147637 593.549265,165.102084 588.671364,165.102084 C583.793463,165.102084 579.839016,161.147637 579.839016,156.269736 C579.839016,151.391835 583.793463,147.437388 588.671364,147.437388 C593.549265,147.437388 597.503712,151.391835 597.503712,156.269736" id="Fill-191" fill="#FFFFFF"></path>
                        <path d="M588.671628,148.759991 C584.530638,148.759991 581.160957,152.128349 581.160957,156.269339 C581.160957,160.410329 584.530638,163.778687 588.671628,163.778687 C592.812618,163.778687 596.180976,160.410329 596.180976,156.269339 C596.180976,152.128349 592.812618,148.759991 588.671628,148.759991 M588.671628,166.424687 C583.071369,166.424687 578.514957,161.869598 578.514957,156.269339 C578.514957,150.66908 583.071369,146.113991 588.671628,146.113991 C594.270564,146.113991 598.826976,150.66908 598.826976,156.269339 C598.826976,161.869598 594.270564,166.424687 588.671628,166.424687" id="Fill-192" fill="#659F7A"></path>
                        <polygon id="Fill-193" fill="#659F7A" points="1025.18212 251.111637 1027.82812 251.111637 1027.82812 243.689607 1025.18212 243.689607"></polygon>
                        <polygon id="Fill-194" fill="#659F7A" points="1025.18212 295.641171 1027.82812 295.641171 1027.82812 288.219141 1025.18212 288.219141"></polygon>
                        <polygon id="Fill-195" fill="#659F7A" points="1016.08146 254.258922 1012.37045 247.831788 1014.66321 246.508788 1018.3729 252.935922"></polygon>
                        <polygon id="Fill-196" fill="#659F7A" points="1038.34636 292.822916 1034.63535 286.395782 1036.92811 285.072782 1040.6378 291.499916"></polygon>
                        <polygon id="Fill-197" fill="#659F7A" points="1009.77525 261.53476 1003.34812 257.823745 1004.67112 255.530986 1011.09825 259.243324"></polygon>
                        <polygon id="Fill-198" fill="#659F7A" points="1048.33858 283.799659 1041.91277 280.087322 1043.23577 277.797209 1049.66158 281.508223"></polygon>
                        <polygon id="Fill-199" fill="#659F7A" points="1000.53066 270.988389 1007.95136 270.988389 1007.95136 268.342389 1000.53066 268.342389"></polygon>
                        <polygon id="Fill-200" fill="#659F7A" points="1045.06019 270.988389 1052.4809 270.988389 1052.4809 268.342389 1045.06019 268.342389"></polygon>
                        <polygon id="Fill-201" fill="#659F7A" points="1004.67059 283.799659 1003.34759 281.508223 1009.77472 277.795885 1011.09772 280.088644"></polygon>
                        <polygon id="Fill-202" fill="#659F7A" points="1043.23524 261.53476 1041.91224 259.243324 1048.33806 255.532309 1049.66106 257.822422"></polygon>
                        <polygon id="Fill-203" fill="#659F7A" points="1014.66281 292.822916 1012.37137 291.499916 1016.08107 285.072782 1018.37383 286.395782"></polygon>
                        <polygon id="Fill-204" fill="#659F7A" points="1036.92771 254.258922 1034.63627 252.935922 1038.34597 246.508788 1040.63872 247.831788"></polygon>
                        <path d="M344.375312,598.262206 L338.686412,650.14762 L344.375312,598.262206 Z" id="Fill-205" fill="#F8F7FF"></path>
                        <polygon id="Fill-206" fill="#FFFFFF" points="340.002004 650.290769 337.37188 650.002355 343.06078 598.118264 345.690904 598.406678"></polygon>
                        <path d="M348.328172,562.209134 L344.967752,592.85246 L348.328172,562.209134 Z" id="Fill-207" fill="#F8F7FF"></path>
                        <polygon id="Fill-208" fill="#FFFFFF" points="346.283608 592.997328 343.653484 592.708914 347.013904 562.065588 349.644028 562.354002"></polygon>
                        <path d="M818.277485,651.505151 L819.809519,657.966683 L818.277485,651.505151 Z" id="Fill-209" fill="#FFFFFF"></path>
                        <polygon id="Fill-210" fill="#4B5B47" points="818.522901 658.27137 816.989544 651.809838 819.562779 651.198612 821.096136 657.660144"></polygon>
                        <path d="M796.626193,560.272526 L816.860155,645.534584 L796.626193,560.272526 Z" id="Fill-211" fill="#FFFFFF"></path>
                        <polygon id="Fill-212" fill="#4B5B47" points="815.573273 645.8398 795.339311 560.579065 797.912545 559.967839 818.146508 645.228574"></polygon>
                        <path d="M997.525859,440.516418 L1005.83033,546.994104 L997.525859,440.516418 Z" id="Fill-213" fill="#FFFFFF"></path>
                        <polygon id="Fill-214" fill="#4B5B47" points="1004.51037 547.09796 996.205902 440.618951 998.843964 440.412563 1007.14844 546.892895"></polygon>
                        <path d="M1006.59688,556.826773 L1007.30204,565.86154 L1006.59688,556.826773 Z" id="Fill-215" fill="#FFFFFF"></path>
                        <polygon id="Fill-216" fill="#4B5B47" points="1005.98195 565.964998 1005.27811 556.930231 1007.91617 556.725166 1008.62001 565.759933"></polygon>
                    </g>
                </g>
            </g>
        </g>
    </g>
</svg>