<svg xmlns="http://www.w3.org/2000/svg" viewBox="0 0 137 60"><defs><style>.cls-1{fill:#dddcdc;}</style></defs><title>Asset 1</title><g id="Layer_2" data-name="Layer 2"><g id="Your_Design" data-name="Your Design"><path class="cls-1" d="M137,60H0V0H137ZM1,59H136V1H1Z"/><path class="cls-1" d="M78,39c2.59,0,4,1.36,4,2.7a1.42,1.42,0,0,1-1.53,1.41c-.92,0-1.59-.57-2.18-1.69-.75-1.43-1-1.67-1.49-1.67s-.73.3-.73,1.08a8.58,8.58,0,0,0,2.14,5.37A2.11,2.11,0,0,0,80,47a2.28,2.28,0,0,0,1.53-.65c.18-.15.69.22.61.42a5.47,5.47,0,0,1-5.09,3,5,5,0,0,1-5.24-5.3C71.76,41.15,74.43,39,78,39Z"/><path class="cls-1" d="M25.6,34.48a25.64,25.64,0,0,1,4.24.3c.4.06.44.12.5.53a27.77,27.77,0,0,1,.33,4c0,.16-.08.2-.55.2s-.53,0-.59-.2a9.08,9.08,0,0,0-1.87-2.95,3.31,3.31,0,0,0-2.63-1c-2.06,0-3.75,1.37-3.75,4.58s1.1,6.7,2.55,8.15a2.32,2.32,0,0,0,1.75.77,3,3,0,0,0,2.16-1,10.74,10.74,0,0,0,2.06-3.64c.06-.17.12-.21.59-.21s.55,0,.55.21c0,.63-.31,3-.57,4.68-.07.41-.13.47-.53.53a32.82,32.82,0,0,1-4.93.31c-5.52,0-9.31-2.83-9.31-7.52C15.6,37.24,20.37,34.48,25.6,34.48Z"/><path class="cls-1" d="M87.67,36.57c.32,0,.38,0,.4.17.08.59.14,1.48.17,2.38l2.3,0c.2,0,.28.1.28.65s-.08.61-.28.61c-.72,0-1.59,0-2.28,0v4c0,1.89.5,2.36,1.38,2.36a2.38,2.38,0,0,0,.51-.12c.22,0,.57.33.49.53a4.2,4.2,0,0,1-3.83,2.57c-2.14,0-3.26-1.37-3.26-3.57V40.56c0-.2,0-.22-.24-.26l-.73-.1c-.15,0-.17-.06-.17-.41s0-.43.17-.45a8.35,8.35,0,0,0,4.62-2.6C87.32,36.61,87.34,36.57,87.67,36.57Z"/><path class="cls-1" d="M111.49,39.06c.12,0,.16.06.16.42s0,.39-.16.45l-.83.43c-.39.2-.53.43-1.8,2.5l-1.69,2.77c-.38.65-1.64,2.83-2,3.69-.12.24-.21.3-.65.3s-.55-.06-.66-.3c-.36-.86-1.46-3-1.83-3.71l-2.81-5.27c-.1-.2-.1-.24-.3-.29l-.63-.12c-.13,0-.17-.08-.17-.45s0-.42.17-.42c.46,0,1.79.14,3.27.14,1.08,0,3.59-.14,4.06-.14.12,0,.16.06.16.42s0,.43-.16.45l-1.21.12c-.2,0-.24.09-.14.29l2.26,4.28.63-1.76c.78-2.15.74-2.34.15-2.54l-1.19-.41c-.12,0-.16-.06-.16-.43s0-.42.16-.42c.47,0,1.78.14,2.86.14S111,39.06,111.49,39.06Z"/><path class="cls-1" d="M57.93,33.7c.14,0,.53.16.53.31,0,.34-.17,1.73-.17,4.23v10c0,.2.05.24.25.28l.69.15c.12,0,.16.08.16.44s0,.43-.16.43c-.47,0-1.79-.14-3.28-.14s-2.83.14-3.3.14c-.12,0-.16-.06-.16-.43s0-.42.16-.44l.7-.15c.2,0,.24-.08.24-.28V37.73c0-.2,0-.22-.24-.26l-.7-.12c-.12,0-.16-.06-.16-.39s0-.35.16-.39a26.43,26.43,0,0,0,5.12-2.81A.27.27,0,0,1,57.93,33.7Z"/><path class="cls-1" d="M50.46,33.7c.14,0,.53.16.53.31,0,.34-.17,1.73-.17,4.23v10c0,.2,0,.24.25.28l.69.15c.12,0,.16.08.16.44s0,.43-.16.43c-.47,0-1.79-.14-3.28-.14s-2.83.14-3.3.14c-.12,0-.16-.06-.16-.43s0-.42.16-.44l.69-.15c.21,0,.25-.08.25-.28V37.73c0-.2,0-.22-.25-.26l-.69-.12c-.12,0-.16-.06-.16-.39s0-.35.16-.39a26.36,26.36,0,0,0,5.11-2.81A.27.27,0,0,1,50.46,33.7Z"/><path class="cls-1" d="M38.61,39c-3.77,0-6.39,2-6.39,5.45,0,3.3,2.44,5.3,6,5.3,3.77,0,6.4-2,6.4-5.46C44.6,41,42.15,39,38.61,39Zm.8,10a.85.85,0,0,1-.64-.3c-.87-.88-2.11-5.46-2.11-7.6,0-1.08.34-1.34.75-1.34A.83.83,0,0,1,38,40c.88.88,2.12,5.46,2.12,7.6C40.16,48.69,39.81,49,39.41,49Z"/><path class="cls-1" d="M121.13,43.05a.2.2,0,0,0,.22-.15,1.7,1.7,0,0,0,.05-.52c0-2-1.65-3.42-4.69-3.42-3.62,0-6.09,2.17-6.09,5.45a5.13,5.13,0,0,0,5.38,5.3,5.88,5.88,0,0,0,5.33-3.47c.09-.2-.42-.59-.61-.42a2.82,2.82,0,0,1-2,.83,2.63,2.63,0,0,1-2.06-1,6.34,6.34,0,0,1-1.42-2.56C117.2,43.17,119.52,43.13,121.13,43.05Zm-5.33-.47-.66.08a7.16,7.16,0,0,1-.14-1.28c0-1.22.63-1.79,1.26-1.79s.9.4.9,1.18C117.16,41.81,116.73,42.48,115.8,42.58Z"/><path class="cls-1" d="M70.5,43.05a.22.22,0,0,0,.23-.15,2.11,2.11,0,0,0,0-.52c0-2-1.65-3.42-4.69-3.42C62.46,39,60,41.13,60,44.41a5.12,5.12,0,0,0,5.37,5.3,5.88,5.88,0,0,0,5.33-3.47c.09-.2-.42-.59-.61-.42a2.82,2.82,0,0,1-2,.83,2.63,2.63,0,0,1-2.06-1,6.34,6.34,0,0,1-1.42-2.56C66.57,43.17,68.89,43.13,70.5,43.05Zm-5.33-.47-.65.08a6.37,6.37,0,0,1-.15-1.28c0-1.22.63-1.79,1.27-1.79s.89.4.89,1.18C66.53,41.81,66.1,42.48,65.17,42.58Z"/><path class="cls-1" d="M96.79,38.83c.14,0,.53.17.53.31,0,.34-.16,1.73-.16,4.23v4.85c0,.2,0,.24.24.28l.69.15c.13,0,.17.08.17.44s0,.43-.17.43c-.46,0-1.79-.14-3.27-.14s-2.85.14-3.3.14c-.12,0-.17-.06-.17-.43s.05-.42.17-.44l.69-.15c.2,0,.24-.08.24-.28V42.86c0-.2,0-.22-.24-.26l-.69-.12c-.12,0-.17-.06-.17-.39s.05-.35.17-.39a26.36,26.36,0,0,0,5.11-2.81A.27.27,0,0,1,96.79,38.83Z"/><circle class="cls-1" cx="95.08" cy="35.58" r="2.34"/><path class="cls-1" d="M109.2,15.85a16.15,16.15,0,0,1,2.26.19c.41.06.45.1.45.51V19c0,.16,0,.2-.43.2s-.45,0-.51-.2l-.63-1.61a1.16,1.16,0,0,0-1.22-.77c-.69,0-1.22.28-1.22,1s.32,1,1.69,1.51c2.3.82,3,2,3,3.56,0,2.39-1.87,4-5.13,4a9.9,9.9,0,0,1-3.12-.47c-.4-.13-.44-.17-.44-.57,0-.76.1-1.92.2-2.85,0-.17.08-.21.45-.21s.45,0,.51.21a17.57,17.57,0,0,0,1.08,2.38,1.44,1.44,0,0,0,1.4.77c.9,0,1.43-.45,1.43-1.2s-.39-1.22-1.84-1.65c-2.48-.73-3.09-1.87-3.09-3.62C104.07,17.48,105.88,15.85,109.2,15.85Z"/><path class="cls-1" d="M94.7,15.83c.15,0,.53.17.53.31,0,.32-.08,1-.08,2.22A4.07,4.07,0,0,1,98.8,16a3.2,3.2,0,0,1,3.46,3.48v5.78c0,.2,0,.24.24.28l.69.15c.13,0,.17.08.17.44s0,.43-.17.43c-.47,0-1.79-.14-3.28-.14s-2.68.14-3.15.14c-.12,0-.16-.06-.16-.43s0-.4.16-.44l.55-.15c.2-.06.24-.08.24-.28v-4c0-1.9-.44-2.57-1.81-2.57a1.53,1.53,0,0,0-.45.06v6.52c0,.2,0,.22.25.28l.55.15c.12,0,.16.08.16.44s0,.43-.16.43c-.47,0-1.65-.14-3.14-.14s-2.83.14-3.3.14c-.12,0-.16-.06-.16-.43s0-.42.16-.44l.7-.15c.2,0,.24-.08.24-.28V19.86c0-.2,0-.22-.24-.26l-.7-.12c-.12,0-.16-.06-.16-.39s0-.35.16-.39a23,23,0,0,0,4.89-2.81A.27.27,0,0,1,94.7,15.83Z"/><path class="cls-1" d="M63.28,16a3.42,3.42,0,0,0-3.19,2V15.24c0-2.5.16-3.89.16-4.23,0-.15-.39-.31-.53-.31a.27.27,0,0,0-.16.06,26.36,26.36,0,0,1-5.11,2.81c-.13,0-.17.08-.17.39s0,.37.17.39l.69.12c.2,0,.24.06.24.26v8.53a23,23,0,0,1-.2,3.08c0,.1.39.26.59.26s.12,0,.22-.12a13.56,13.56,0,0,1,1.37-1.18,7.29,7.29,0,0,0,4.34,1.32c3.35,0,5.82-2,5.82-5.57C67.52,17.67,65.4,16,63.28,16Zm-1,10a.94.94,0,0,1-.74-.34,7.85,7.85,0,0,1-1.48-4.69V18.52a.38.38,0,0,1,.24-.08.65.65,0,0,1,.49.24c1.1,1.1,2.2,4.38,2.2,6.17C63,25.59,62.73,26,62.31,26Z"/><path class="cls-1" d="M76.91,16a3.42,3.42,0,0,0-3.2,2V15.24c0-2.5.16-3.89.16-4.23,0-.15-.38-.31-.53-.31a.27.27,0,0,0-.16.06,26.36,26.36,0,0,1-5.11,2.81c-.12,0-.16.08-.16.39s0,.37.16.39l.69.12c.21,0,.25.06.25.26v8.53a21.92,21.92,0,0,1-.21,3.08c0,.1.39.26.59.26s.13,0,.23-.12A13.41,13.41,0,0,1,71,25.3a7.32,7.32,0,0,0,4.34,1.32c3.36,0,5.82-2,5.82-5.57C81.14,17.67,79,16,76.91,16Zm-1,10a.93.93,0,0,1-.73-.34,7.84,7.84,0,0,1-1.49-4.69V18.52a.39.39,0,0,1,.25-.08.64.64,0,0,1,.48.24c1.1,1.1,2.2,4.38,2.2,6.17C76.64,25.59,76.36,26,75.93,26Z"/><path class="cls-1" d="M48.17,16c-3.76,0-6.39,2-6.39,5.45,0,3.3,2.44,5.3,6,5.3,3.76,0,6.39-2,6.39-5.46C54.16,18,51.72,16,48.17,16ZM49,26a.82.82,0,0,1-.63-.3c-.88-.88-2.12-5.46-2.12-7.6,0-1.08.35-1.34.75-1.34a.82.82,0,0,1,.63.3c.88.88,2.12,5.46,2.12,7.6C49.72,25.69,49.38,26,49,26Z"/><path class="cls-1" d="M42.11,25.63l-.49-.06c-.69-.09-1.09-.64-2.87-3.38-1.1-1.74-1.56-2.47-2-3.32a3.83,3.83,0,0,0,2.95-3.67c0-2.16-1.55-3.56-5-3.56-1.38,0-3.64.08-4.37.08h-1.1c-1.94,0-3.53-.14-4.71-.14-.12,0-.16.06-.16.43s0,.42.16.44l.9.15c.2,0,.24.08.24.28V25.22c0,.2,0,.24-.24.28l-.9.15c-.12,0-.16.08-.16.44s0,.43.16.43c.47,0,2.1-.14,3.79-.14s3.3.14,3.77.14c.12,0,.16-.06.16-.43s0-.42-.16-.44l-.9-.15c-.2,0-.24-.08-.24-.28v-5.4H31c.63,0,.75.13,1.2.84,1.2,1.89,2.24,3.85,3.15,5.54a.49.49,0,0,0,.49.3c.27,0,1.51-.1,2.65-.1,1.49,0,3.42.1,3.58.1s.17-.06.17-.43S42.24,25.65,42.11,25.63ZM31.75,19a3.33,3.33,0,0,1-.79-.08V12.78c0-.2,0-.25.24-.25h.12c1.88,0,2.81,1.41,2.81,3.3C34.13,18.34,32.83,19,31.75,19Z"/><path class="cls-1" d="M87.41,15.89c.15,0,.53.17.53.31,0,.35-.16,1.73-.16,4.23v4.85c0,.2,0,.24.24.29l.7.14c.12,0,.16.08.16.45s0,.42-.16.42c-.47,0-1.8-.14-3.28-.14s-2.85.14-3.3.14c-.12,0-.16-.06-.16-.42s0-.43.16-.45l.69-.14c.21-.05.25-.09.25-.29V19.93c0-.21,0-.23-.25-.27l-.69-.12c-.12,0-.16-.06-.16-.39s0-.34.16-.39A26.84,26.84,0,0,0,87.25,16,.23.23,0,0,1,87.41,15.89Z"/><circle class="cls-1" cx="85.7" cy="12.64" r="2.34"/></g></g></svg>