<?xml version="1.0" encoding="UTF-8"?>
<svg width="918px" height="934px" viewBox="0 0 918 934" version="1.1" xmlns="http://www.w3.org/2000/svg" xmlns:xlink="http://www.w3.org/1999/xlink">
    <!-- Generator: Sketch 61.2 (89653) - https://sketch.com -->
    <title>Group</title>
    <desc>Created with Sketch.</desc>
    <g id="Page-1" stroke="none" stroke-width="1" fill="none" fill-rule="evenodd">
        <g id="Landing-Page" transform="translate(-493.000000, -2688.000000)">
            <g id="Group" transform="translate(301.000000, 2580.614926)">
                <path d="M132.410377,456.592011 C137.873261,543.51854 196.244488,602.896163 217.442989,624.47091 C272.574162,680.572785 308.365469,673.393754 459.053154,764.374177 C609.740839,855.3546 498.448709,789.350179 559.62045,828.634043 C694.308792,915.121296 725.692118,937.034914 781.526558,945.732587 C809.745179,950.112801 854.992927,956.538787 902.852812,933.282238 C912.158552,928.776517 956.87885,905.984346 981.656481,855.567963 C994.767402,828.910159 993.850643,811.690523 992.029681,708.41036 C989.731503,578.346886 990.422212,562.244267 993.059466,539.489748 C998.497233,492.725635 1009.83743,438.506373 1012.76352,424.462078 C1023.73952,371.912067 1031.375,348.718271 1028.32332,310.476121 C1026.12561,282.927214 1024.00325,256.407468 1005.50479,233.791008 C973.242384,194.331434 914.318589,195.172334 895.594084,195.448451 C864.750767,195.887727 857.579948,203.142064 737.974188,240.003631 C693.517616,253.709056 680.29367,257.085209 661.242647,254.512304 C621.621042,249.153132 612.064135,225.469857 571.035993,200.619362 C488.414585,150.617154 395.030668,166.631917 375.050327,170.572854 C364.827827,172.593526 328.144876,180.450299 286.915801,204.773662 C216.300179,246.429618 125.126532,340.698339 132.410377,456.592011 Z" id="Tim-Bio-BG-Alt" fill="#F4F3F0" transform="translate(580.500000, 557.500000) rotate(22.000000) translate(-580.500000, -557.500000) "></path>
                <path d="M132.410377,456.592011 C137.873261,543.51854 196.244488,602.896163 217.442989,624.47091 C272.574162,680.572785 308.365469,673.393754 459.053154,764.374177 C609.740839,855.3546 498.448709,789.350179 559.62045,828.634043 C694.308792,915.121296 725.692118,937.034914 781.526558,945.732587 C809.745179,950.112801 854.992927,956.538787 902.852812,933.282238 C912.158552,928.776517 956.87885,905.984346 981.656481,855.567963 C994.767402,828.910159 993.850643,811.690523 992.029681,708.41036 C989.731503,578.346886 990.422212,562.244267 993.059466,539.489748 C998.497233,492.725635 1009.83743,438.506373 1012.76352,424.462078 C1023.73952,371.912067 1031.375,348.718271 1028.32332,310.476121 C1026.12561,282.927214 1024.00325,256.407468 1005.50479,233.791008 C973.242384,194.331434 914.318589,195.172334 895.594084,195.448451 C864.750767,195.887727 857.579948,203.142064 737.974188,240.003631 C693.517616,253.709056 680.29367,257.085209 661.242647,254.512304 C621.621042,249.153132 612.064135,225.469857 571.035993,200.619362 C488.414585,150.617154 395.030668,166.631917 375.050327,170.572854 C364.827827,172.593526 328.144876,180.450299 286.915801,204.773662 C216.300179,246.429618 125.126532,340.698339 132.410377,456.592011 Z" id="Tim-Bio-BG" fill="#D4E2D2" transform="translate(580.500000, 557.500000) rotate(28.000000) translate(-580.500000, -557.500000) "></path>
            </g>
        </g>
    </g>
</svg>