<?xml version="1.0" encoding="UTF-8"?>
<svg width="1440px" height="1287px" viewBox="0 0 1440 1287" version="1.1" xmlns="http://www.w3.org/2000/svg" xmlns:xlink="http://www.w3.org/1999/xlink">
    <!-- Generator: Sketch 61.2 (89653) - https://sketch.com -->
    <title>Path</title>
    <desc>Created with Sketch.</desc>
    <g id="Page-1" stroke="none" stroke-width="1" fill="none" fill-rule="evenodd">
        <g id="Landing-Page" transform="translate(0.000000, -4013.000000)" fill="#F4F3F0" fill-rule="nonzero">
            <g id="wave-(1)" transform="translate(0.000000, 4013.000000)">
                <path d="M0,209.196671 L35.1369424,214.496671 C70.2738849,220.196671 140.34289,230.196671 211.026535,187.896671 C280.9931,145.196671 351.369424,49.1966708 421.028669,17.1966708 C491.712314,-14.8033292 562.395959,17.1966708 632.055204,22.4966708 C702.431529,28.1966708 772.398093,6.1966708 843.081739,1.1966708 C913.150743,-3.8033292 983.424628,6.1966708 1054.10827,43.8966708 C1123.86996,81.1966708 1169.02257,155.407499 1238.68182,150.107499 C1308.34106,144.807499 1325.79336,142.160453 1368.49596,160.584733 C1396.96436,172.867587 1420.79904,187.343591 1440,204.012746 L1440,1286.61636 C1416.57537,1286.61636 936.575372,1286.61636 0,1286.61636 L0,209.196671 Z" id="Path"></path>
            </g>
        </g>
    </g>
</svg>