<svg xmlns="http://www.w3.org/2000/svg" viewBox="0 0 138 61"><defs><style>.cls-1{fill:#d7e3d3;}.cls-2{fill:#204241;}</style></defs><title>Asset 2</title><g id="Layer_2" data-name="Layer 2"><g id="Your_Design" data-name="Your Design"><path class="cls-1" d="M138,61H0V0H138ZM2,59H136V2H2Z"/><path class="cls-2" d="M78.53,39.45c2.59,0,4,1.37,4,2.71A1.42,1.42,0,0,1,81,43.57c-.92,0-1.59-.57-2.18-1.69-.75-1.43-1-1.67-1.49-1.67s-.73.3-.73,1.08a8.58,8.58,0,0,0,2.14,5.37,2.11,2.11,0,0,0,1.67.8A2.25,2.25,0,0,0,82,46.8c.18-.14.69.23.61.43a5.47,5.47,0,0,1-5.09,3,5,5,0,0,1-5.24-5.29C72.26,41.65,74.93,39.45,78.53,39.45Z"/><path class="cls-2" d="M26.1,35a25.64,25.64,0,0,1,4.24.3c.4.06.44.12.5.53a27.77,27.77,0,0,1,.33,4c0,.16-.08.2-.55.2s-.53,0-.59-.2a9.08,9.08,0,0,0-1.87-2.95,3.31,3.31,0,0,0-2.63-1c-2.06,0-3.75,1.37-3.75,4.58s1.1,6.7,2.55,8.15a2.32,2.32,0,0,0,1.75.77,3,3,0,0,0,2.16-1,10.74,10.74,0,0,0,2.06-3.64c.06-.17.12-.21.59-.21s.55,0,.55.21c0,.63-.31,3-.57,4.68-.07.41-.13.47-.53.53a32.92,32.92,0,0,1-4.93.3c-5.52,0-9.31-2.83-9.31-7.51C16.1,37.74,20.87,35,26.1,35Z"/><path class="cls-2" d="M88.17,37.07c.32,0,.38,0,.4.17.08.59.14,1.48.17,2.38l2.3,0c.2,0,.28.1.28.65s-.08.61-.28.61c-.72,0-1.59,0-2.28,0v4c0,1.89.5,2.36,1.38,2.36a2.38,2.38,0,0,0,.51-.12c.22,0,.57.33.49.53a4.19,4.19,0,0,1-3.83,2.56c-2.14,0-3.26-1.36-3.26-3.56V41.06c0-.2,0-.22-.24-.26l-.73-.1c-.15,0-.17-.06-.17-.41s0-.43.17-.45a8.35,8.35,0,0,0,4.62-2.6C87.82,37.11,87.84,37.07,88.17,37.07Z"/><path class="cls-2" d="M112,39.56c.12,0,.16.06.16.42s0,.39-.16.45l-.83.43c-.39.2-.53.43-1.8,2.5l-1.69,2.77c-.38.65-1.64,2.83-2,3.69-.12.24-.21.3-.65.3s-.55-.06-.66-.3c-.36-.86-1.46-3-1.83-3.71l-2.81-5.27c-.1-.2-.1-.25-.3-.29l-.63-.12c-.13,0-.17-.08-.17-.45s0-.42.17-.42c.46,0,1.79.14,3.27.14,1.08,0,3.59-.14,4.06-.14.12,0,.16.06.16.42s0,.43-.16.45l-1.21.12c-.2,0-.24.09-.14.29L107,45.11l.63-1.75c.78-2.15.74-2.34.15-2.54l-1.19-.41c-.12,0-.16-.06-.16-.43s0-.42.16-.42c.47,0,1.78.14,2.86.14S111.52,39.56,112,39.56Z"/><path class="cls-2" d="M58.43,34.2c.14,0,.53.16.53.31,0,.34-.17,1.73-.17,4.23v10c0,.2.05.24.25.28l.69.15c.12,0,.16.08.16.44s0,.43-.16.43c-.47,0-1.79-.14-3.28-.14s-2.83.14-3.3.14C53,50,53,50,53,49.59s0-.42.16-.44l.7-.15c.2,0,.24-.08.24-.28V38.23c0-.2,0-.22-.24-.26l-.7-.12c-.12,0-.16-.07-.16-.39s0-.35.16-.39a26.43,26.43,0,0,0,5.12-2.81A.27.27,0,0,1,58.43,34.2Z"/><path class="cls-2" d="M51,34.2c.14,0,.53.16.53.31,0,.34-.17,1.73-.17,4.23v10c0,.2,0,.24.25.28l.69.15c.12,0,.16.08.16.44s0,.43-.16.43c-.47,0-1.79-.14-3.28-.14s-2.83.14-3.3.14c-.12,0-.16-.06-.16-.43s0-.42.16-.44l.69-.15c.21,0,.25-.08.25-.28V38.23c0-.2,0-.22-.25-.26l-.69-.12c-.12,0-.16-.07-.16-.39s0-.35.16-.39a26.36,26.36,0,0,0,5.11-2.81A.27.27,0,0,1,51,34.2Z"/><path class="cls-2" d="M39.11,39.45c-3.77,0-6.39,2-6.39,5.46,0,3.3,2.44,5.29,6,5.29,3.77,0,6.4-2,6.4-5.45C45.1,41.45,42.65,39.45,39.11,39.45Zm.8,10a.85.85,0,0,1-.64-.3c-.87-.88-2.11-5.46-2.11-7.6,0-1.08.34-1.34.75-1.34a.83.83,0,0,1,.63.3c.88.88,2.12,5.46,2.12,7.6C40.66,49.19,40.31,49.45,39.91,49.45Z"/><path class="cls-2" d="M121.63,43.55a.2.2,0,0,0,.22-.15,1.74,1.74,0,0,0,.05-.53c0-1.95-1.65-3.42-4.69-3.42-3.62,0-6.09,2.18-6.09,5.46a5.12,5.12,0,0,0,5.38,5.29,5.87,5.87,0,0,0,5.33-3.46c.09-.2-.42-.59-.61-.42a2.87,2.87,0,0,1-2,.83,2.63,2.63,0,0,1-2.06-1,6.34,6.34,0,0,1-1.42-2.56C117.7,43.67,120,43.63,121.63,43.55Zm-5.33-.47-.66.08a7.26,7.26,0,0,1-.14-1.28c0-1.22.63-1.79,1.26-1.79s.9.4.9,1.18C117.66,42.3,117.23,43,116.3,43.08Z"/><path class="cls-2" d="M71,43.55a.22.22,0,0,0,.23-.15,2.16,2.16,0,0,0,0-.53c0-1.95-1.65-3.42-4.69-3.42-3.62,0-6.08,2.18-6.08,5.46a5.11,5.11,0,0,0,5.37,5.29,5.87,5.87,0,0,0,5.33-3.46c.09-.2-.42-.59-.61-.42a2.87,2.87,0,0,1-2,.83,2.63,2.63,0,0,1-2.06-1,6.34,6.34,0,0,1-1.42-2.56C67.07,43.67,69.39,43.63,71,43.55Zm-5.33-.47-.65.08a6.46,6.46,0,0,1-.15-1.28c0-1.22.63-1.79,1.27-1.79s.89.4.89,1.18C67,42.3,66.6,43,65.67,43.08Z"/><path class="cls-2" d="M97.29,39.33c.14,0,.53.17.53.31,0,.34-.16,1.73-.16,4.23v4.85c0,.2,0,.24.24.28l.69.15c.13,0,.17.08.17.44s0,.43-.17.43c-.46,0-1.79-.14-3.27-.14S92.47,50,92,50c-.12,0-.17-.06-.17-.43s.05-.42.17-.44l.69-.15c.2,0,.24-.08.24-.28V43.36c0-.2,0-.22-.24-.26L92,43c-.12,0-.17-.06-.17-.39s.05-.35.17-.39a26.36,26.36,0,0,0,5.11-2.81A.27.27,0,0,1,97.29,39.33Z"/><circle class="cls-2" cx="95.58" cy="36.07" r="2.34"/><path class="cls-2" d="M109.7,16.35a16.15,16.15,0,0,1,2.26.19c.41.06.45.1.45.5v2.43c0,.16,0,.2-.43.2s-.45,0-.51-.2l-.63-1.61a1.16,1.16,0,0,0-1.22-.77c-.69,0-1.22.28-1.22,1s.32,1,1.69,1.51c2.3.82,3,2,3,3.56,0,2.39-1.87,4-5.13,4a9.9,9.9,0,0,1-3.12-.46c-.4-.13-.44-.17-.44-.57,0-.76.1-1.92.2-2.85,0-.17.08-.21.45-.21s.45,0,.51.21a17.57,17.57,0,0,0,1.08,2.38,1.44,1.44,0,0,0,1.4.77c.9,0,1.43-.45,1.43-1.2s-.39-1.22-1.84-1.65c-2.48-.73-3.09-1.87-3.09-3.62C104.57,18,106.38,16.35,109.7,16.35Z"/><path class="cls-2" d="M95.2,16.33c.15,0,.53.17.53.31,0,.32-.08,1-.08,2.22a4.08,4.08,0,0,1,3.65-2.41,3.2,3.2,0,0,1,3.46,3.49v5.78c0,.2,0,.24.24.28l.69.15c.13,0,.17.08.17.44s0,.43-.17.43c-.47,0-1.79-.14-3.28-.14s-2.68.14-3.15.14c-.12,0-.16-.06-.16-.43s0-.4.16-.44l.55-.15c.2-.06.24-.08.24-.28v-4c0-1.9-.44-2.57-1.81-2.57a1.53,1.53,0,0,0-.45.06v6.52c0,.2,0,.22.25.28l.55.15c.12,0,.16.08.16.44s0,.43-.16.43c-.47,0-1.65-.14-3.14-.14s-2.83.14-3.3.14C90,27,90,27,90,26.59s0-.42.16-.44l.7-.15c.2,0,.24-.08.24-.28V20.36c0-.2,0-.22-.24-.26l-.7-.12c-.12,0-.16-.06-.16-.39s0-.35.16-.39A23,23,0,0,0,95,16.39.27.27,0,0,1,95.2,16.33Z"/><path class="cls-2" d="M63.78,16.45a3.41,3.41,0,0,0-3.19,2V15.74c0-2.5.16-3.89.16-4.23,0-.15-.39-.31-.53-.31a.27.27,0,0,0-.16.06A26.36,26.36,0,0,1,55,14.07c-.13,0-.17.08-.17.39s0,.37.17.39l.69.12c.2,0,.24.06.24.26v8.53a23,23,0,0,1-.2,3.08c0,.1.39.26.59.26s.12,0,.22-.12a13.56,13.56,0,0,1,1.37-1.18,7.29,7.29,0,0,0,4.34,1.32c3.35,0,5.82-2,5.82-5.58C68,18.16,65.9,16.45,63.78,16.45Zm-1,10a.94.94,0,0,1-.74-.34,7.85,7.85,0,0,1-1.48-4.69V19a.38.38,0,0,1,.24-.08.65.65,0,0,1,.49.24c1.1,1.1,2.2,4.38,2.2,6.17C63.52,26.08,63.23,26.47,62.81,26.47Z"/><path class="cls-2" d="M77.41,16.45a3.41,3.41,0,0,0-3.2,2V15.74c0-2.5.16-3.89.16-4.23,0-.15-.38-.31-.53-.31a.27.27,0,0,0-.16.06,26.36,26.36,0,0,1-5.11,2.81c-.12,0-.16.08-.16.39s0,.37.16.39l.69.12c.21,0,.25.06.25.26v8.53a21.92,21.92,0,0,1-.21,3.08c0,.1.39.26.59.26s.13,0,.23-.12a13.41,13.41,0,0,1,1.36-1.18,7.32,7.32,0,0,0,4.34,1.32c3.36,0,5.82-2,5.82-5.58C81.64,18.16,79.53,16.45,77.41,16.45Zm-1,10a.93.93,0,0,1-.73-.34,7.84,7.84,0,0,1-1.49-4.69V19a.39.39,0,0,1,.25-.08.64.64,0,0,1,.48.24c1.1,1.1,2.2,4.38,2.2,6.17C77.14,26.08,76.86,26.47,76.43,26.47Z"/><path class="cls-2" d="M48.67,16.45c-3.76,0-6.39,2-6.39,5.46,0,3.3,2.44,5.29,6,5.29,3.76,0,6.39-2,6.39-5.45C54.66,18.45,52.22,16.45,48.67,16.45Zm.8,10a.82.82,0,0,1-.63-.3c-.88-.88-2.12-5.46-2.12-7.6,0-1.08.35-1.34.75-1.34a.82.82,0,0,1,.63.3c.88.88,2.12,5.46,2.12,7.6C50.22,26.19,49.88,26.45,49.47,26.45Z"/><path class="cls-2" d="M42.61,26.13l-.49-.07c-.69-.08-1.09-.63-2.87-3.38-1.1-1.73-1.56-2.46-2-3.31a3.83,3.83,0,0,0,2.95-3.67c0-2.16-1.55-3.56-5-3.56-1.38,0-3.64.08-4.37.08h-1.1c-1.94,0-3.53-.14-4.71-.14-.12,0-.16.06-.16.42s0,.43.16.45l.9.14c.2.05.24.09.24.29V25.72c0,.2,0,.24-.24.28l-.9.15c-.12,0-.16.08-.16.44s0,.43.16.43c.47,0,2.1-.14,3.79-.14s3.3.14,3.77.14c.12,0,.16-.06.16-.43s0-.42-.16-.44L31.7,26c-.2,0-.24-.08-.24-.28v-5.4h.08c.63,0,.75.13,1.2.84C33.94,23.05,35,25,35.89,26.7a.49.49,0,0,0,.49.3c.27,0,1.51-.1,2.65-.1,1.49,0,3.42.1,3.58.1s.17-.06.17-.43S42.74,26.15,42.61,26.13ZM32.25,19.45a3.33,3.33,0,0,1-.79-.08V13.28c0-.21,0-.25.24-.25h.12c1.88,0,2.81,1.41,2.81,3.3C34.63,18.84,33.33,19.45,32.25,19.45Z"/><path class="cls-2" d="M87.91,16.39c.15,0,.53.17.53.31,0,.34-.16,1.73-.16,4.23v4.85c0,.2,0,.24.24.28l.7.15c.12,0,.16.08.16.45s0,.42-.16.42c-.47,0-1.8-.14-3.28-.14s-2.85.14-3.3.14c-.12,0-.16-.06-.16-.42s0-.43.16-.45l.69-.15c.21,0,.25-.08.25-.28V20.42c0-.2,0-.22-.25-.26L82.64,20c-.12,0-.16-.06-.16-.39s0-.35.16-.39a26.36,26.36,0,0,0,5.11-2.81A.27.27,0,0,1,87.91,16.39Z"/><circle class="cls-2" cx="86.2" cy="13.14" r="2.34"/></g></g></svg>