<?xml version="1.0" encoding="UTF-8"?>
<svg width="260px" height="53px" viewBox="0 0 260 53" version="1.1" xmlns="http://www.w3.org/2000/svg" xmlns:xlink="http://www.w3.org/1999/xlink">
    <!-- Generator: Sketch 64 (93537) - https://sketch.com -->
    <title>Group 44</title>
    <desc>Created with Sketch.</desc>
    <g id="Page-1" stroke="none" stroke-width="1" fill="none" fill-rule="evenodd">
        <g id="Group-44">
            <path d="M43.2264,22.1133 L43.2264,23.2473 C40.9434,23.3883 40.7304,23.8083 40.7304,25.6353 L40.7304,40.7973 C40.7304,44.0673 42.5934,45.7563 45.2004,45.7563 C48.1974,45.7563 50.0304,43.8573 50.0304,40.7283 L50.0304,25.9863 C50.0304,24.1593 49.4664,23.3883 47.3124,23.2473 L47.3124,22.1133 L54.0624,22.1133 L54.0624,23.2473 C51.9174,23.3883 51.3504,24.1593 51.3504,25.9863 L51.3504,39.9513 C51.3504,44.3103 49.4334,46.8873 44.5314,46.8873 C39.6024,46.8873 37.2804,44.2083 37.2804,39.8073 L37.2804,25.6353 C37.2804,23.8083 37.0704,23.3883 34.7754,23.2473 L34.7754,22.1133 L43.2264,22.1133 Z M248.9268,29.0109 C252.8478,29.0109 255.3048,32.6919 255.3048,37.8339 L255.3048,37.8339 L245.5728,37.8339 C245.5728,42.7659 247.3728,45.4329 249.7458,45.4329 C252.8148,45.4329 253.9158,42.7659 254.2668,40.3659 L254.2668,40.3659 L255.3678,40.5819 C255.0558,43.7139 253.3458,46.7859 249.3858,46.7859 C245.0088,46.7859 242.1348,42.3399 242.1348,37.9389 C242.1348,32.6919 244.9368,29.0109 248.9268,29.0109 Z M209.4771,29.0136 C212.4741,29.0136 214.3611,30.8766 214.3611,33.6186 C214.3611,35.3046 213.8421,36.2226 212.5761,36.2226 C211.5951,36.2226 210.9231,35.3736 210.9231,34.1106 C210.9231,32.5986 211.4541,31.9986 212.3631,31.9986 C212.6061,31.9986 212.7471,32.1036 212.8941,32.1426 L212.9631,32.0706 C212.4351,30.7686 211.3131,30.1206 210.0051,30.1206 C207.3771,30.1206 205.6071,32.7756 205.6071,37.7766 C205.6071,43.7406 207.4461,45.4326 209.5041,45.4326 C212.3631,45.4326 213.2781,42.8166 213.6651,40.3236 L214.7901,40.4766 C214.4721,43.8036 212.9271,46.7856 209.0421,46.7856 C205.4691,46.7856 202.1661,43.5906 202.1661,38.3796 C202.1661,33.9696 205.2171,29.0136 209.4771,29.0136 Z M222.1494,29.013 C226.1304,29.013 227.6454,30.795 227.6454,33.465 L227.6454,33.465 L227.6454,43.353 C227.6454,44.385 227.8974,44.85 228.3834,44.85 C229.0584,44.85 229.3314,44.061 229.4004,41.499 L229.4004,41.499 L230.5074,41.463 C230.5074,45.192 229.7844,46.785 227.6154,46.785 C225.9144,46.785 224.9634,45.936 224.7504,44.016 L224.7504,44.016 L224.6814,44.016 C223.8264,45.612 222.7644,46.785 220.2804,46.785 C217.5624,46.785 215.9694,45.117 215.9694,42.783 C215.9694,38.742 221.5584,37.062 224.6034,35.952 L224.6034,35.952 L224.6034,33.039 C224.6034,31.005 223.6794,30.12 221.7894,30.12 C220.5384,30.12 219.5184,30.513 218.7804,31.401 C219.9024,31.5 220.2504,32.358 220.2504,33.393 C220.2504,34.677 219.4824,35.454 218.4984,35.454 C217.5174,35.454 216.8154,34.746 216.8154,33.318 C216.8154,30.9 219.0594,29.013 222.1494,29.013 Z M160.2987,29.0619 C164.2347,29.0619 165.7527,30.8589 165.7527,33.4959 L165.7527,33.4959 L165.7527,43.2909 C165.7527,44.3049 166.0047,44.7669 166.4877,44.7669 C167.1597,44.7669 167.4357,43.9929 167.5077,41.4549 L167.5077,41.4549 L168.6357,41.4639 C168.6357,45.1629 167.8917,46.7379 165.7137,46.7379 C164.0277,46.7379 163.0737,45.8949 162.8637,43.9989 L162.8637,43.9989 L162.7947,43.9989 C161.9487,45.5799 160.8897,46.7379 158.4237,46.7379 C155.7207,46.7379 154.1457,45.0969 154.1457,42.7659 C154.1457,38.7549 159.6957,37.0959 162.7257,35.9649 L162.7257,35.9649 L162.7257,33.0789 C162.7257,31.0689 161.8107,30.1869 159.9447,30.1869 C158.7117,30.1869 157.6917,30.5739 156.9537,31.4589 C158.0787,31.5579 158.4327,32.4039 158.4327,33.4299 C158.4327,34.6929 157.6557,35.4789 156.6747,35.4789 C155.6877,35.4789 154.9767,34.7679 154.9767,33.3579 C154.9767,30.9639 157.2327,29.0619 160.2987,29.0619 Z M117.6342,21.8859 L117.6342,42.5559 C117.6342,44.4639 118.2702,45.0249 119.6742,44.9949 L119.6742,44.9949 L119.6742,46.1079 L114.7482,46.3239 L114.7482,43.8399 L114.6762,43.8399 C113.9052,45.4929 112.7382,46.7379 110.5992,46.7379 C107.4342,46.7379 104.5092,43.4889 104.5092,37.9599 C104.5092,32.8479 107.2932,29.0529 110.9862,29.0529 C112.6362,29.0529 113.8332,30.0309 114.5352,31.4019 L114.5352,31.4019 L114.6072,31.3689 L114.6072,25.0389 C114.6072,23.5239 114.1482,23.2809 112.3212,23.2119 L112.3212,23.2119 L112.3212,22.1079 L117.6342,21.8859 Z M180.8085,22.9893 L180.8085,29.4723 L185.0595,29.4723 L185.0595,30.7983 L180.8085,30.7983 L180.8085,43.2183 C180.8085,44.7783 181.3425,45.4143 182.2905,45.4143 C183.4665,45.4143 184.3485,44.6673 184.3485,40.9263 L184.3485,39.9363 L185.4765,39.9363 L185.4765,41.5983 C185.4765,45.1653 184.1685,46.7373 181.5165,46.7373 C179.1915,46.7373 177.7815,45.2733 177.7815,42.4443 L177.7815,30.7983 L175.6035,30.7983 L175.6035,29.7513 C178.1325,28.6983 179.4705,27.4983 179.6865,22.9893 L180.8085,22.9893 Z M83.6601,22.9893 L83.6601,29.4723 L87.9051,29.4723 L87.9051,30.7983 L83.6601,30.7983 L83.6601,43.2183 C83.6601,44.7783 84.1911,45.4143 85.1481,45.4143 C86.3151,45.4143 87.1971,44.6673 87.1971,40.9263 L87.1971,39.9363 L88.3341,39.9363 L88.3341,41.5983 C88.3341,45.1653 87.0261,46.7373 84.3711,46.7373 C82.0431,46.7373 80.6361,45.2733 80.6361,42.4443 L80.6361,30.7983 L78.4521,30.7983 L78.4521,29.7513 C80.9871,28.6983 82.3281,27.4983 82.5381,22.9893 L83.6601,22.9893 Z M96.372,29.0631 C100.275,29.0631 102.744,32.7231 102.744,37.7841 L102.744,37.7841 L93.03,37.7841 C93.03,42.7251 94.824,45.4101 97.179,45.4101 C100.245,45.4101 101.334,42.7251 101.685,40.3221 L101.685,40.3221 L102.816,40.5321 C102.498,43.6791 100.767,46.7361 96.828,46.7361 C92.466,46.7361 89.58,42.3021 89.58,37.8891 C89.58,32.7231 92.397,29.0631 96.372,29.0631 Z M147.2961,29.0631 C151.2051,29.0631 153.6651,32.7231 153.6651,37.7841 L153.6651,37.7841 L143.9511,37.7841 C143.9511,42.7251 145.7421,45.4101 148.1031,45.4101 C151.1631,45.4101 152.2521,42.7251 152.6031,40.3221 L152.6031,40.3221 L153.7341,40.5321 C153.4221,43.6791 151.6911,46.7361 147.7521,46.7361 C143.3841,46.7361 140.4981,42.3021 140.4981,37.8891 C140.4981,32.7231 143.3181,29.0631 147.2961,29.0631 Z M239.5602,29.0109 C240.8652,29.0109 242.1342,30.0849 242.1342,32.0709 C242.1342,33.5979 241.3962,34.3749 240.4782,34.3749 C239.7042,34.3749 238.8912,33.8829 238.8912,32.2839 C238.8912,31.4349 239.3862,30.5439 240.4032,30.5439 C240.2322,30.2649 239.8782,30.1209 239.4942,30.1209 C237.1152,30.1539 236.0292,35.3409 236.0292,38.4189 L236.0292,43.4619 C236.0292,44.5269 236.5872,45.1659 238.9632,45.2409 L238.9632,46.3419 L230.9472,46.3419 L230.9472,45.2409 C232.4322,45.1659 232.9962,44.5299 232.9962,43.4619 L232.9962,33.8259 C232.9962,31.4169 232.5642,30.6369 230.8032,30.5679 L230.8032,29.4249 L235.6752,29.2209 L235.6752,33.3069 L235.7502,33.3069 C236.2062,31.4649 237.4602,29.0109 239.5602,29.0109 Z M75.9696,29.0544 L75.9696,43.4184 C75.9696,44.4834 76.5336,45.1134 78.2226,45.1884 L78.2226,46.3194 L70.6866,46.3194 L70.6866,45.1884 C72.3756,45.1134 72.9366,44.4834 72.9366,43.4184 L72.9366,32.2164 C72.9366,30.7044 72.5166,30.4554 70.6866,30.3804 L70.6866,29.2434 L75.9696,29.0544 Z M173.4588,21.8832 L173.4588,43.4262 C173.4588,44.4852 174.0228,45.1152 175.7118,45.1872 L175.7118,46.3182 L168.1758,46.3182 L168.1758,45.1872 C169.8618,45.1152 170.4348,44.4852 170.4348,43.4262 L170.4348,25.1112 C170.4348,23.9112 169.8318,23.2812 168.1068,23.2122 L168.1068,22.0872 L173.4588,21.8832 Z M129.0678,22.1112 L129.0678,23.2482 C126.8928,23.3832 126.4728,23.8092 126.4728,25.6302 L126.4728,32.9202 L134.0688,32.9202 L134.0688,25.6302 C134.0688,23.8092 133.6368,23.3832 131.4588,23.2482 L131.4588,22.1112 L139.9788,22.1112 L139.9788,23.2482 C137.8668,23.3832 137.5128,23.8092 137.5128,25.6302 L137.5128,42.7812 C137.5128,44.6202 137.8668,45.0432 139.9788,45.1872 L139.9788,46.3182 L131.4588,46.3182 L131.4588,45.1872 C133.6368,45.0432 134.0688,44.6202 134.0688,42.7812 L134.0688,34.2522 L126.4728,34.2522 L126.4728,42.7812 C126.4728,44.6202 126.8928,45.0432 129.0678,45.1872 L129.0678,46.3182 L120.5538,46.3182 L120.5538,45.1872 C122.6688,45.0432 123.0198,44.6202 123.0198,42.7812 L123.0198,25.6302 C123.0198,23.8092 122.6688,23.3832 120.5538,23.2482 L120.5538,22.1112 L129.0678,22.1112 Z M63.4185,29.0622 C66.3435,29.0622 67.7175,30.9642 67.7175,34.0632 L67.7175,43.4262 C67.7175,44.6202 68.2095,45.1152 69.8955,45.1872 L69.8955,46.3182 L64.6905,46.3182 L64.6905,33.7812 C64.6905,31.4592 63.8085,30.6852 62.6115,30.6852 C60.7395,30.6852 58.8375,33.1452 58.8375,36.5982 L58.8375,43.4262 C58.8375,44.4852 59.3955,45.1152 61.0905,45.1872 L61.0905,46.3182 L53.5575,46.3182 L53.5575,45.1872 C55.2465,45.1152 55.8105,44.4852 55.8105,43.4172 L55.8105,32.4102 C55.8105,30.8892 55.3875,30.6432 53.4885,30.5682 L53.4885,29.4732 L58.6215,29.2452 L58.6215,32.6562 L58.6965,32.6562 C59.6445,30.6852 61.0185,29.0622 63.4185,29.0622 Z M190.6356,21.8832 L190.6356,32.2332 L190.7046,32.2332 C191.4126,30.6852 192.7506,29.0622 195.1086,29.0622 C197.8236,29.0622 199.5156,30.9642 199.5156,34.0632 L199.5156,43.4262 C199.5156,44.4852 200.1156,45.1152 201.6966,45.1872 L201.6966,46.3182 L196.4886,46.3182 L196.4886,33.9552 C196.4886,31.4982 195.6066,30.6852 194.3316,30.6852 C192.5706,30.6852 190.6356,33.0072 190.6356,36.3852 L190.6356,43.4262 C190.6356,44.4852 191.1966,45.1152 192.8916,45.1872 L192.8916,46.3182 L185.3496,46.3182 L185.3496,45.1872 C187.0386,45.1152 187.6086,44.4852 187.6086,43.4262 L187.6086,25.0392 C187.6086,23.5242 187.1856,23.2812 185.2806,23.2122 L185.2806,22.1082 L190.6356,21.8832 Z M111.1602,30.3849 C109.2282,30.3849 107.9622,32.5659 107.9622,37.9929 C107.9622,43.4139 109.1232,45.5979 110.8812,45.5979 C112.7382,45.5979 114.6072,44.0559 114.6072,37.9929 C114.6072,32.9919 113.3052,30.3849 111.1602,30.3849 Z M224.6034,37.281 C221.7684,38.277 219.2154,39.618 219.2154,42.639 C219.2154,44.52 220.0674,45.435 221.1714,45.435 C222.9774,45.435 224.6034,43.311 224.6034,39.303 L224.6034,39.303 Z M162.7257,37.3059 C159.9057,38.2929 157.3737,39.6309 157.3737,42.6249 C157.3737,44.4999 158.2167,45.4119 159.3087,45.4119 C161.1027,45.4119 162.7257,43.2939 162.7257,39.3159 L162.7257,39.3159 Z M248.9268,30.1209 C246.9108,30.1209 245.5728,31.9089 245.5728,36.4839 L245.5728,36.4839 L251.8668,36.4839 C251.8668,31.9089 250.8018,30.1209 248.9268,30.1209 Z M147.2961,30.1881 C145.2831,30.1881 143.9511,31.9491 143.9511,36.4581 L143.9511,36.4581 L150.2151,36.4581 C150.2151,31.9491 149.1591,30.1881 147.2961,30.1881 Z M96.372,30.1881 C94.365,30.1881 93.03,31.9491 93.03,36.4581 L93.03,36.4581 L99.297,36.4581 C99.297,31.9491 98.241,30.1881 96.372,30.1881 Z M256.5732,24.8448 C258.0162,24.8448 259.1982,26.0118 259.1982,27.4698 C259.1982,28.9428 258.0162,30.1158 256.5732,30.1158 C255.1182,30.1158 253.9332,28.9428 253.9332,27.4698 C253.9332,26.0118 255.1182,24.8448 256.5732,24.8448 Z M256.5732,25.2378 C255.3282,25.2378 254.3232,26.2398 254.3232,27.4758 C254.3232,28.7238 255.3282,29.7228 256.5732,29.7228 C257.8212,29.7228 258.8082,28.7238 258.8082,27.4758 C258.8082,26.2398 257.8212,25.2378 256.5732,25.2378 Z M256.7892,25.9698 C257.3772,25.9698 257.6352,26.3418 257.6352,26.7168 C257.6352,27.0768 257.3682,27.3528 256.9782,27.4278 L256.9782,27.4278 C257.3622,27.4758 257.4912,27.5988 257.5092,28.2078 C257.5182,28.3428 257.5602,28.8078 257.6322,28.9998 L257.6322,28.9998 L257.1462,28.9998 C257.0292,28.7898 257.0592,28.3968 257.0232,27.9888 C256.9842,27.6618 256.7112,27.6468 256.5672,27.6468 L256.5672,27.6468 L256.0782,27.6468 L256.0782,28.9998 L255.5862,28.9998 L255.5862,25.9698 Z M256.7112,26.3028 L256.0782,26.3028 L256.0782,27.2568 L256.7112,27.2568 C257.0112,27.2568 257.1462,27.0318 257.1462,26.7648 C257.1462,26.5488 257.0412,26.3028 256.7112,26.3028 L256.7112,26.3028 Z M74.1666,21.7734 C75.2256,21.7734 75.9696,22.6854 75.9696,24.0264 C75.9696,25.3614 75.2256,26.2764 74.1666,26.2764 C73.1136,26.2764 72.3696,25.3614 72.3696,24.0264 C72.3696,22.6854 73.1136,21.7734 74.1666,21.7734 Z" id="Combined-Shape" fill="#000F9F"></path>
            <path d="M4.1163,46.3182 L4.1043,46.3182 L4.1703,46.3182 C4.1853,46.3182 4.2003,46.3182 4.2243,46.3122 L4.2903,46.3122 C4.3083,46.3122 4.3263,46.3122 4.3473,46.3092 L4.4163,46.3092 C4.4373,46.3002 4.4613,46.3002 4.4853,46.2972 C4.5033,46.2972 4.5273,46.2942 4.5453,46.2912 C4.5753,46.2882 4.6023,46.2822 4.6293,46.2762 C4.6473,46.2732 4.6683,46.2702 4.6893,46.2702 C4.7193,46.2642 4.7493,46.2552 4.7793,46.2552 C4.7973,46.2552 4.8123,46.2462 4.8333,46.2462 C4.8693,46.2372 4.9023,46.2312 4.9293,46.2252 C4.9533,46.2222 4.9743,46.2132 4.9953,46.2072 C5.0283,46.2012 5.0613,46.1922 5.1003,46.1862 C5.1213,46.1772 5.1423,46.1712 5.1573,46.1682 C5.1933,46.1562 5.2293,46.1472 5.2743,46.1352 C5.2893,46.1232 5.3073,46.1202 5.3283,46.1142 C5.3643,46.1022 5.4063,46.0872 5.4453,46.0722 C5.4633,46.0662 5.4813,46.0542 5.5023,46.0482 C5.5383,46.0362 5.5803,46.0182 5.6223,46.0032 C5.6433,46.0002 5.6613,45.9912 5.6793,45.9732 C5.7213,45.9582 5.7663,45.9372 5.8053,45.9192 C5.8233,45.9102 5.8443,45.9012 5.8623,45.8892 C5.9073,45.8712 5.9463,45.8502 5.9943,45.8232 C6.0123,45.8172 6.0333,45.8022 6.0543,45.7872 C6.0963,45.7692 6.1413,45.7452 6.1833,45.7182 C6.2013,45.7032 6.2223,45.6942 6.2403,45.6792 C6.2823,45.6492 6.3333,45.6282 6.3783,45.5982 C6.3963,45.5862 6.4173,45.5682 6.4323,45.5532 C6.4833,45.5202 6.5253,45.4932 6.5703,45.4542 C6.5883,45.4452 6.6123,45.4272 6.6333,45.4122 C6.6783,45.3762 6.7203,45.3432 6.7713,45.3072 C6.7923,45.2892 6.8073,45.2712 6.8253,45.2532 C6.8763,45.2112 6.9243,45.1752 6.9633,45.1362 C6.9843,45.1182 7.0053,45.0972 7.0233,45.0762 C7.0743,45.0312 7.1193,44.9952 7.1613,44.9532 C7.1853,44.9262 7.2093,44.9022 7.2303,44.8782 C7.2783,44.8332 7.3143,44.7942 7.3563,44.7462 C7.3893,44.7162 7.4163,44.6892 7.4343,44.6592 C7.4763,44.6142 7.5153,44.5692 7.5573,44.5182 C7.5813,44.4972 7.6083,44.4612 7.6323,44.4252 C7.6773,44.3772 7.7163,44.3292 7.7553,44.2722 C7.7793,44.2422 7.8033,44.2092 7.8273,44.1732 C7.8723,44.1192 7.9113,44.0652 7.9503,44.0112 C7.9803,43.9752 8.0043,43.9362 8.0313,43.9002 C8.0643,43.8402 8.1003,43.7832 8.1423,43.7262 C8.1723,43.6872 8.1963,43.6392 8.2233,43.6002 C8.2623,43.5342 8.3013,43.4832 8.3343,43.4142 C8.3643,43.3722 8.3883,43.3272 8.4093,43.2762 C8.4453,43.2162 8.4873,43.1502 8.5263,43.0902 C8.5503,43.0362 8.5743,42.9882 8.5983,42.9372 C8.6343,42.8712 8.6733,42.7992 8.7033,42.7302 C8.7363,42.6732 8.7603,42.6162 8.7903,42.5562 C8.8203,42.4872 8.8563,42.4212 8.8863,42.3522 C8.9163,42.2832 8.9433,42.2172 8.9703,42.1482 C9.0003,42.0792 9.0363,42.0102 9.0603,41.9412 C9.0903,41.8782 9.1113,41.8122 9.1413,41.7372 C9.1743,41.6592 9.2013,41.5872 9.2313,41.5092 C9.2553,41.4432 9.2823,41.3712 9.3033,41.2962 C9.3363,41.2152 9.3723,41.1312 9.3963,41.0502 C9.4293,40.9542 9.4593,40.8492 9.4953,40.7532 C9.5133,40.6872 9.5343,40.6302 9.5523,40.5612 C9.6033,40.3932 9.6573,40.2252 9.7053,40.0482 C10.4073,37.5222 10.5813,32.4132 10.5813,29.0172 L10.5813,7.3092 L0.0003,12.9792 L0.0003,35.3562 C0.0003,43.8852 1.5363,45.9252 3.4293,46.2582 C3.4203,46.2552 3.4143,46.2552 3.4023,46.2552 L4.1163,46.3182 Z" id="Fill-36" fill="#000F9F"></path>
            <path d="M24.2196,0.0006 L24.2196,28.6656 C24.2196,39.4056 22.5846,47.3556 17.4366,50.9286 C15.8016,52.0266 14.0796,52.9386 11.9766,52.8546 C10.4316,52.7856 9.0156,52.0746 8.1966,50.6856 L8.1984,50.6886 C7.2268875,50.4616875 6.32249297,49.6669805 5.90424346,48.7429094 L5.8272,48.5565 L6.7722,48.6105 L9.7302,48.9615 C12.4122,48.2985 14.6172,45.8685 15.8382,42.7305 C17.2332,39.0825 17.4642,34.2075 17.4642,28.4565 L17.4642,28.4565 L17.4642,5.4495 L15.0552,4.9155 L19.6032,2.4765 L19.6032,29.4735 C19.6032,36.2415 18.8862,40.9365 17.4042,44.2455 C16.3812,46.4775 13.5222,50.7405 9.1632,50.7765 L9.1632,50.7765 L8.7034,50.7346 L9.1656,50.7786 L12.5496,51.1836 C15.1536,50.7366 17.8926,48.5586 19.5156,45.1926 C21.2586,41.6016 22.0566,36.2646 22.0566,28.4556 L22.0566,28.4556 L22.0566,3.0246 L19.6026,2.4786 L24.2196,0.0006 Z M15.0534,4.9143 L15.0534,29.6523 C15.0534,34.0743 14.8794,37.9923 13.9554,41.1333 C13.3764,43.4103 10.9614,48.0483 6.7734,48.6093 L6.7734,48.6093 L5.8284,48.5493 C4.7334,48.3723 3.8034,47.4603 3.4014,46.2603 C3.4164,46.2603 3.4254,46.2603 3.4344,46.2633 L3.4344,46.2633 L7.2144,46.6863 C8.6994,46.1373 10.8174,44.4363 11.9904,40.2423 C12.8184,37.2663 12.9384,32.7903 12.9384,27.6723 L12.9384,27.6723 L12.9384,7.8333 L10.5864,7.3083 L15.0534,4.9143 Z" id="Combined-Shape" fill="#758592"></path>
        </g>
    </g>
</svg>